<svg width="52" height="52" viewBox="0 0 52 52" fill="none" xmlns="http://www.w3.org/2000/svg">
<path d="M0 6C0 2.68629 2.68629 0 6 0H45.9986C49.3123 0 51.9986 2.68629 51.9986 6V46C51.9986 49.3137 49.3123 52 45.9986 52H6C2.68629 52 0 49.3137 0 46V6Z" fill="#BEBED7" fill-opacity="0.15"/>
<path d="M37.3908 30.703L37.9027 31.743C38.1587 32.2549 38.8147 32.7349 39.3587 32.8309L40.0466 32.9429C42.1426 33.2949 42.6225 34.8308 41.1346 36.3348L40.4946 36.9747C40.0626 37.4067 39.8387 38.2387 39.9667 38.8467L40.0466 39.2306C40.6226 41.7585 39.2787 42.7345 37.0868 41.4065L36.6228 41.1186C36.0628 40.7826 35.1349 40.7826 34.5749 41.1186L34.1109 41.4065C31.903 42.7345 30.5751 41.7585 31.151 39.2306L31.231 38.8467C31.359 38.2547 31.135 37.4067 30.7031 36.9747L30.0631 36.3348C28.5751 34.8148 29.0551 33.2949 31.151 32.9429L31.839 32.8309C32.399 32.7349 33.039 32.2549 33.2949 31.743L33.8069 30.703C34.7989 28.7031 36.3988 28.7031 37.3908 30.703Z" fill="url(#paint0_linear_6116_324)"/>
<path d="M32.703 10H19.2956C13.4718 10 10 13.4718 10 19.2956V32.703C10 38.5268 13.4718 41.9986 19.2956 41.9986H27.7432C28.3032 41.9986 28.7032 41.4226 28.6392 40.8627C28.5752 40.2547 28.6072 39.5347 28.7992 38.7027C28.8312 38.5908 28.7992 38.4628 28.7032 38.3668L28.3512 38.0148C26.9913 36.6388 26.4953 34.9749 26.9753 33.455C27.4712 31.951 28.8472 30.8951 30.7511 30.5751L31.2311 30.4951L31.6631 29.6311C32.543 27.8392 33.983 26.7993 35.5989 26.7993C37.2148 26.7993 38.6548 27.8392 39.5347 29.6311L39.7747 30.1271C39.8867 30.3671 40.1107 30.5271 40.3667 30.5751C40.5107 30.6071 40.6547 30.6391 40.7987 30.6711C41.3586 30.8151 41.9986 30.3671 41.9986 29.7751V19.2956C41.9986 13.4718 38.5268 10 32.703 10ZM32.815 21.1355L29.1192 25.9033C28.6552 26.4953 27.9992 26.8793 27.2472 26.9593C26.5113 27.0553 25.7593 26.8473 25.1833 26.3833L22.2555 24.1114C22.1435 24.0154 22.0155 24.0154 21.9515 24.0314C21.8875 24.0314 21.7755 24.0634 21.6795 24.1914L17.8717 29.1352C17.6317 29.4392 17.2797 29.5991 16.9117 29.5991C16.6557 29.5991 16.3997 29.5191 16.1757 29.3432C15.6478 28.9432 15.5518 28.1912 15.9517 27.6632L19.7596 22.7194C20.2236 22.1275 20.8795 21.7435 21.6315 21.6475C22.3835 21.5515 23.1194 21.7595 23.7114 22.2235L26.6393 24.5274C26.7513 24.6234 26.8633 24.6074 26.9433 24.6074C27.0073 24.6074 27.1193 24.5754 27.2153 24.4474L30.9111 19.6796C31.3111 19.1516 32.063 19.0556 32.591 19.4716C33.135 19.8716 33.215 20.6235 32.815 21.1355Z" fill="url(#paint1_linear_6116_324)"/>
<defs>
<linearGradient id="paint0_linear_6116_324" x1="10" y1="26" x2="41.9986" y2="26" gradientUnits="userSpaceOnUse">
<stop offset="0.567308" stop-color="#3433FE"/>
<stop offset="1" stop-color="#0DF26B"/>
</linearGradient>
<linearGradient id="paint1_linear_6116_324" x1="10" y1="26" x2="41.9986" y2="26" gradientUnits="userSpaceOnUse">
<stop offset="0.567308" stop-color="#3433FE"/>
<stop offset="1" stop-color="#0DF26B"/>
</linearGradient>
</defs>
</svg>
