<svg width="51" height="52" viewBox="0 0 51 52" fill="none" xmlns="http://www.w3.org/2000/svg">
<rect width="50.9067" height="52" rx="6" fill="#BEBED7" fill-opacity="0.15"/>
<path d="M17.2167 29.6373H13.0907C11.3908 29.6373 10 31.0281 10 32.7279V40.4546C10 41.3045 10.6954 41.9999 11.5453 41.9999H17.2167C18.0666 41.9999 18.762 41.3045 18.762 40.4546V31.1826C18.762 30.3327 18.0666 29.6373 17.2167 29.6373Z" fill="url(#paint0_linear_6116_312)"/>
<path d="M27.5086 23.456H23.3826C21.6827 23.456 20.2919 24.8468 20.2919 26.5467V40.4547C20.2919 41.3046 20.9873 42 21.8372 42H29.0539C29.9039 42 30.5993 41.3046 30.5993 40.4547V26.5467C30.5993 24.8468 29.2239 23.456 27.5086 23.456Z" fill="url(#paint1_linear_6116_312)"/>
<path d="M37.816 34.2732H33.69C32.84 34.2732 32.1446 34.9686 32.1446 35.8185V40.4545C32.1446 41.3045 32.84 41.9999 33.69 41.9999H39.3613C40.2113 41.9999 40.9067 41.3045 40.9067 40.4545V37.3639C40.9067 35.664 39.5159 34.2732 37.816 34.2732Z" fill="url(#paint2_linear_6116_312)"/>
<path d="M30.1048 15.4975C30.5838 15.0185 30.7693 14.4467 30.6147 13.9522C30.4602 13.4577 29.9811 13.1023 29.3012 12.9941L27.8177 12.7468C27.7559 12.7468 27.6168 12.6387 27.5859 12.5768L26.7669 10.9388C26.1487 9.68707 24.7425 9.68707 24.1243 10.9388L23.3053 12.5768C23.2899 12.6387 23.1508 12.7468 23.089 12.7468L21.6054 12.9941C20.9255 13.1023 20.4619 13.4577 20.2919 13.9522C20.1374 14.4467 20.3228 15.0185 20.8019 15.4975L21.9454 16.6565C22.0072 16.7029 22.0536 16.8883 22.0381 16.9501L21.7136 18.3718C21.4664 19.4381 21.8682 19.9172 22.1309 20.1026C22.3936 20.288 22.9653 20.5353 23.908 19.979L25.2988 19.1599C25.3606 19.1136 25.5615 19.1136 25.6233 19.1599L26.9987 19.979C27.4314 20.2417 27.7868 20.3189 28.0649 20.3189C28.3895 20.3189 28.6213 20.1953 28.7603 20.1026C29.023 19.9172 29.4248 19.4381 29.1776 18.3718L28.8531 16.9501C28.8376 16.8729 28.884 16.7029 28.9458 16.6565L30.1048 15.4975Z" fill="url(#paint3_linear_6116_312)"/>
<defs>
<linearGradient id="paint0_linear_6116_312" x1="10" y1="26" x2="40.9067" y2="26" gradientUnits="userSpaceOnUse">
<stop offset="0.567308" stop-color="#3433FE"/>
<stop offset="1" stop-color="#0DF26B"/>
</linearGradient>
<linearGradient id="paint1_linear_6116_312" x1="10" y1="26" x2="40.9067" y2="26" gradientUnits="userSpaceOnUse">
<stop offset="0.567308" stop-color="#3433FE"/>
<stop offset="1" stop-color="#0DF26B"/>
</linearGradient>
<linearGradient id="paint2_linear_6116_312" x1="10" y1="26" x2="40.9067" y2="26" gradientUnits="userSpaceOnUse">
<stop offset="0.567308" stop-color="#3433FE"/>
<stop offset="1" stop-color="#0DF26B"/>
</linearGradient>
<linearGradient id="paint3_linear_6116_312" x1="10" y1="26" x2="40.9067" y2="26" gradientUnits="userSpaceOnUse">
<stop offset="0.567308" stop-color="#3433FE"/>
<stop offset="1" stop-color="#0DF26B"/>
</linearGradient>
</defs>
</svg>
