<svg width="32" height="32" viewBox="0 0 32 32" fill="none" xmlns="http://www.w3.org/2000/svg">
<path d="M14.352 25.9999H10.752C8.99196 25.9999 7.55196 27.4399 7.55196 29.2V29.6H5.95196C5.29595 29.6 4.75195 30.144 4.75195 30.8C4.75195 31.456 5.29595 32 5.95196 32H25.152C25.808 32 26.352 31.456 26.352 30.8C26.352 30.144 25.808 29.6 25.152 29.6H23.552V29.2C23.552 27.4399 22.112 25.9999 20.352 25.9999H16.752V22.3359C16.352 22.3839 15.952 22.3999 15.552 22.3999C15.152 22.3999 14.752 22.3839 14.352 22.3359V25.9999Z" fill="#0B0B35"/>
<path d="M25.92 15.424C26.976 15.024 27.9041 14.368 28.6401 13.632C30.1281 11.984 31.1041 10.016 31.1041 7.71202C31.1041 5.40801 29.2961 3.60001 26.992 3.60001H26.096C25.056 1.472 22.88 0 20.352 0H10.752C8.22402 0 6.04801 1.472 5.00801 3.60001H4.11201C1.808 3.60001 0 5.40801 0 7.71202C0 10.016 0.976002 11.984 2.464 13.632C3.20001 14.368 4.12801 15.024 5.18401 15.424C6.84801 19.52 10.848 22.4 15.552 22.4C20.256 22.4 24.256 19.52 25.92 15.424ZM20.096 10.32L19.104 11.536C18.944 11.712 18.832 12.064 18.848 12.304L18.944 13.872C19.008 14.832 18.32 15.328 17.424 14.976L15.968 14.4C15.744 14.32 15.36 14.32 15.136 14.4L13.68 14.976C12.784 15.328 12.096 14.832 12.16 13.872L12.256 12.304C12.272 12.064 12.16 11.712 12 11.536L11.008 10.32C10.384 9.58402 10.656 8.76802 11.584 8.52802L13.104 8.14402C13.344 8.08002 13.632 7.85602 13.76 7.64802L14.608 6.33601C15.136 5.52001 15.968 5.52001 16.496 6.33601L17.344 7.64802C17.472 7.85602 17.76 8.08002 18 8.14402L19.52 8.52802C20.448 8.76802 20.72 9.58402 20.096 10.32Z" fill="#0B0B35"/>
</svg>
