<svg width="42" height="42" viewBox="0 0 42 42" fill="none" xmlns="http://www.w3.org/2000/svg">
<circle cx="21" cy="21" r="21" fill="#3433FE"/>
<g clip-path="url(#clip0_2010_145)">
<path d="M23.6205 11.6619C23.8103 11.715 23.9878 11.805 24.1428 11.9267C24.2978 12.0485 24.4273 12.1996 24.5239 12.3714C24.6204 12.5432 24.6822 12.7323 24.7057 12.928C24.7291 13.1237 24.7137 13.3221 24.6605 13.5119L20.2295 29.2989C20.1221 29.682 19.8669 30.0067 19.52 30.2017C19.1732 30.3966 18.7631 30.4458 18.38 30.3384C17.9969 30.231 17.6721 29.9758 17.4772 29.6289C17.2822 29.2821 17.2331 28.872 17.3405 28.4889L21.7715 12.6999C21.8247 12.5102 21.9148 12.3328 22.0365 12.1779C22.1583 12.023 22.3094 11.8936 22.4812 11.7971C22.653 11.7006 22.8421 11.6389 23.0378 11.6156C23.2334 11.5922 23.4318 11.6076 23.6215 11.6609L23.6205 11.6619ZM16.5605 15.6969C16.8414 15.9781 16.9991 16.3594 16.9991 16.7569C16.9991 17.1544 16.8414 17.5356 16.5605 17.8169L13.3805 20.9999L16.5625 24.1819C16.8437 24.4633 17.0017 24.8449 17.0016 25.2427C17.0015 25.6406 16.8434 26.0221 16.562 26.3034C16.2806 26.5847 15.899 26.7426 15.5011 26.7425C15.1033 26.7424 14.7217 26.5843 14.4405 26.3029L10.1975 22.0599C9.91657 21.7786 9.75879 21.3974 9.75879 20.9999C9.75879 20.6024 9.91657 20.2211 10.1975 19.9399L14.4395 15.6969C14.5788 15.5575 14.7442 15.4469 14.9262 15.3715C15.1083 15.296 15.3034 15.2572 15.5005 15.2572C15.6975 15.2572 15.8927 15.296 16.0747 15.3715C16.2568 15.4469 16.4212 15.5575 16.5605 15.6969ZM25.4405 17.8169C25.2931 17.6796 25.1749 17.514 25.0929 17.33C25.0109 17.146 24.9668 16.9473 24.9633 16.7459C24.9597 16.5445 24.9968 16.3445 25.0722 16.1577C25.1477 15.9709 25.26 15.8013 25.4024 15.6588C25.5448 15.5164 25.7145 15.4041 25.9013 15.3287C26.0881 15.2532 26.2881 15.2162 26.4895 15.2197C26.6909 15.2233 26.8895 15.2674 27.0735 15.3493C27.2575 15.4313 27.4231 15.5495 27.5605 15.6969L31.8035 19.9389C32.0847 20.2202 32.2426 20.6017 32.2426 20.9994C32.2426 21.3971 32.0847 21.7786 31.8035 22.0599L27.5615 26.3029C27.4222 26.4422 27.2569 26.5528 27.0749 26.6282C26.8929 26.7036 26.6978 26.7425 26.5008 26.7425C26.3038 26.7426 26.1087 26.7038 25.9267 26.6285C25.7447 26.5531 25.5793 26.4427 25.44 26.3034C25.3006 26.1641 25.1901 25.9988 25.1147 25.8168C25.0392 25.6348 25.0004 25.4397 25.0003 25.2427C25.0003 25.0457 25.0391 24.8507 25.1144 24.6686C25.1897 24.4866 25.3002 24.3212 25.4395 24.1819L28.6215 20.9999L25.4405 17.8169Z" fill="#21F0A8"/>
</g>
<defs>
<clipPath id="clip0_2010_145">
<rect width="24" height="24" fill="white" transform="translate(9 9)"/>
</clipPath>
</defs>
</svg>
