<svg width="42" height="38" viewBox="0 0 42 38" fill="none" xmlns="http://www.w3.org/2000/svg">
<path d="M37.0662 6.90636L34.3965 6.69783C34.4 6.73146 34.3939 6.76946 34.384 6.80444C34.3032 7.60788 33.6616 8.19215 32.9697 8.10848C32.2778 8.02481 31.7666 7.31464 31.8612 6.51322L31.8587 6.48968L24.565 5.9148C24.5725 5.98543 24.5685 6.04361 24.5615 6.10549C24.4876 6.84705 23.8614 7.3856 23.184 7.31068C22.4932 7.2371 21.9993 6.56259 22.0865 5.81968C22.093 5.78504 22.0891 5.74804 22.0989 5.71306L18.921 5.46365C18.4574 5.42849 18.0341 5.74279 17.9271 6.20217L16.4624 12.7286C20.0572 14.8125 27.5874 17.9469 35.035 13.3841C35.035 13.3841 29.3608 22.0281 15.9061 15.2417L14.0832 23.3709C13.9367 24.0008 14.3342 24.6272 14.9488 24.7798C15.0082 24.7976 15.0695 24.8017 15.1278 24.8095L37.747 26.5757C38.387 26.617 38.9349 26.1373 38.9849 25.4899C38.9899 25.4418 38.985 25.3947 38.98 25.3476L38.7576 21.5767L36.6774 21.4757C36.1915 21.453 35.81 21.0425 35.8157 20.5525C35.8254 20.0995 36.1757 19.7347 36.6185 19.7006C36.6653 19.6959 36.7122 19.6912 36.7467 19.6979L38.6369 19.7942L38.529 18.0035L38.2095 17.9879C37.721 17.9417 37.3582 17.5157 37.4 17.0153C37.437 16.5969 37.744 16.2705 38.1508 16.2162C38.1977 16.2115 38.2445 16.2068 38.2791 16.2135L38.4087 16.2243L38.2993 14.4203L37.9564 14.407C37.468 14.3608 37.1051 13.9348 37.1469 13.4344C37.1839 13.016 37.491 12.6896 37.8978 12.6353C37.9446 12.6306 37.9781 12.6272 38.026 12.6326L38.1924 12.6397L37.9074 7.8282C37.9035 7.34255 37.5342 6.95127 37.0561 6.90736L37.0662 6.90636ZM26.0061 10.7873C26.0723 12.0859 25.294 13.1699 24.2741 13.2142C23.2542 13.2586 22.3725 12.2422 22.3064 10.9436C22.2403 9.64506 23.0185 8.56106 24.0484 8.51571C25.0683 8.47137 25.94 9.48875 26.0061 10.7873ZM32.9643 11.4196C32.9119 12.7164 32.0449 13.7277 31.0284 13.6766C30.0119 13.6254 29.2146 12.5428 29.2666 11.2426C29.319 9.94576 30.186 8.93444 31.2025 8.98561C32.219 9.03679 33.0153 10.1093 32.9643 11.4196Z" fill="#6E42D4"/>
<path d="M32.3012 11.2681C32.3074 12.0002 31.7713 12.5999 31.0968 12.5961C30.4257 12.592 29.8798 12.009 29.8833 11.2726C29.8871 10.5396 30.4132 9.94086 31.0877 9.94463C31.2879 9.94834 31.4697 10.0014 31.6449 10.089C31.4631 10.2598 31.4694 10.5441 31.6412 10.727C31.7215 10.814 31.8448 10.8593 31.9635 10.861C32.0585 10.8617 32.1502 10.8321 32.2156 10.7781C32.2799 10.9379 32.3073 11.1013 32.3012 11.2681Z" fill="#6E42D4"/>
<path d="M25.3458 10.8428C25.352 11.5748 24.8158 12.1745 24.1413 12.1707C23.4702 12.1666 22.9229 11.5701 22.9278 10.8472C22.9327 10.1243 23.4577 9.51548 24.1322 9.51925C24.3324 9.52296 24.5142 9.57601 24.6894 9.66363C24.5076 9.83444 24.5005 10.1201 24.6756 10.3027C24.8348 10.4631 25.0711 10.487 25.2612 10.3628C25.3106 10.5105 25.3414 10.6736 25.3454 10.8394L25.3458 10.8428Z" fill="#6E42D4"/>
<path d="M23.2497 6.77549C23.5124 6.7968 23.7323 6.6693 23.7693 6.47508C23.8975 5.79886 24.2732 4.23034 25.2289 3.02896C27.4921 0.179304 31.8538 -0.315579 32.4704 7.10007C32.4938 7.32225 32.727 7.51319 33.0343 7.54024C33.3884 7.56259 33.6745 7.35702 33.6572 7.09681C33.5657 5.9085 33.1594 2.82625 31.1124 1.02423C28.5424 -1.24589 25.7891 0.965689 25.7891 0.965689C25.7891 0.965689 23.4577 2.71995 22.7816 6.34612C22.7446 6.54033 22.9655 6.74273 23.2497 6.77549Z" fill="#6E42D4"/>
<path d="M35.6986 17.7934L38.7534 17.9512C39.2396 17.9741 39.6259 18.3996 39.6062 18.8896C39.5866 19.3797 39.167 19.7665 38.6841 19.7433L35.6294 19.5854C35.1432 19.5625 34.7602 19.1367 34.7765 18.647C34.8051 18.1458 35.2157 17.7701 35.6986 17.7934Z" fill="#6E42D4"/>
<path d="M36.8779 21.4092L39.9326 21.567C40.4189 21.5899 40.8018 22.0157 40.7855 22.5054C40.7659 22.9955 40.3463 23.3823 39.8634 23.359L36.8087 23.2012C36.3224 23.1783 35.9361 22.7528 35.9558 22.2628C35.9744 21.7626 36.3936 21.3724 36.8779 21.4092Z" fill="#6E42D4"/>
<path d="M38.1159 14.3474L40.0704 14.4473C40.557 14.4699 40.9403 14.8939 40.9239 15.3818C40.9041 15.8701 40.4841 16.2557 40.0008 16.2327L38.0363 16.1338C37.5496 16.1112 37.163 15.6875 37.1828 15.1992C37.2015 14.7009 37.6211 14.312 38.1193 14.347L38.1159 14.3474Z" fill="#6E42D4"/>
<path d="M41.1451 17.9778C41.6321 18.0003 42.019 18.4228 41.9993 18.9097C41.9796 19.3966 41.5593 19.7811 41.0757 19.7583C40.5887 19.7358 40.2018 19.3134 40.2215 18.8265C40.2413 18.3396 40.6615 17.955 41.1451 17.9778Z" fill="#6E42D4"/>
<path d="M37.7195 28.9082L13.4885 26.7801C12.8136 26.7288 12.2658 26.2161 12.1468 25.5382L11.1117 2.93485C11.036 2.2186 10.4684 1.64675 9.76905 1.58763L1.45978 1.09071C0.73307 0.996939 0.0821122 1.52426 0.00721122 2.25558C-0.000133375 2.31409 -0.00271137 2.38571 0.00368234 2.44623C0.0359608 3.29596 0.673916 3.9899 1.50683 4.09682L8.36765 4.45329L9.40389 27.0667C9.62308 28.3735 10.6731 29.383 11.972 29.5486C12.1325 29.6277 12.3039 29.6819 12.4814 29.6981L37.4586 31.8805C38.2542 31.9538 38.9719 31.3859 39.0876 30.5927C39.1907 29.777 38.6043 29.0269 37.7952 28.921L37.7224 28.9045L37.7195 28.9082Z" fill="#6E42D4"/>
<path d="M17.1826 36.579C18.4751 36.4496 19.4118 35.2899 19.2744 33.9898C19.1371 32.6898 17.9776 31.7398 16.6851 31.8692C15.3925 31.9985 14.4559 33.1582 14.5932 34.4583C14.7306 35.7584 15.8901 36.7083 17.1826 36.579Z" fill="#6E42D4"/>
<path d="M31.1008 37.5737C32.3933 37.4443 33.33 36.2846 33.1926 34.9845C33.0553 33.6845 31.8958 32.7345 30.6032 32.8638C29.3107 32.9932 28.3741 34.1529 28.5114 35.453C28.6488 36.7531 29.8083 37.703 31.1008 37.5737Z" fill="#6E42D4"/>
<path d="M7.42626 9.27238L2.83631 9.06818C2.05369 9.02739 1.4423 8.45833 1.46556 7.77793C1.49025 7.11102 2.15307 6.59138 2.93427 6.61867L7.27728 6.82379L7.42925 9.26867L7.42626 9.27238Z" fill="#6E42D4"/>
<path d="M7.65499 14.0218L4.19141 13.8721C3.60031 13.8497 3.14065 13.2764 3.16379 12.5968C3.18835 11.9308 3.69781 11.4032 4.28926 11.429L7.56763 11.5871L7.65869 14.0248L7.65499 14.0218Z" fill="#6E42D4"/>
</svg>
