<svg width="164" height="35" viewBox="0 0 164 35" fill="none" xmlns="http://www.w3.org/2000/svg">
<path d="M14.2632 19.0214C13.4738 18.2838 12.579 17.6515 11.579 17.2299C10.579 16.8084 9.47373 16.5976 8.36846 16.5976C7.15793 16.5976 6.05266 16.8084 5.05266 17.2299C4.05265 17.6515 3.15791 18.2838 2.42106 19.0214C1.68422 19.7591 1.05264 20.6549 0.631582 21.7087C0.210527 22.7625 0 23.8164 0 25.0283V33.4589H1.68422V25.0283C1.68422 24.1325 1.84211 23.2367 2.21054 22.4464C2.57896 21.6033 3.05265 20.9183 3.6316 20.286C4.21055 19.7064 4.94739 19.1795 5.7895 18.8634C6.63161 18.4945 7.47372 18.3364 8.36846 18.3364C9.2632 18.3364 10.1579 18.4945 10.9474 18.8634C11.7895 19.2322 12.4737 19.7064 13.1053 20.286C13.6843 20.8656 14.2106 21.6033 14.5264 22.4464C14.8948 23.2894 15.0527 24.1325 15.0527 25.0283H16.7369C16.7369 23.869 16.5264 22.7625 16.0527 21.7087C15.6317 20.7076 15.0001 19.8118 14.2632 19.0214Z" fill="#201CFE"/>
<path d="M54.1072 15.9646L46.2124 23.8684L38.3176 15.9646L37.1597 17.1238L45.0545 25.0276L37.1597 32.9313L38.3176 34.1432L46.2124 26.2395L54.1072 34.1432L55.2651 32.9313L47.3703 25.0276L55.2651 17.1238L54.1072 15.9646Z" fill="#201CFE"/>
<path d="M71.4202 27.6095C71.0518 28.4525 70.5781 29.1375 69.9992 29.7698C69.4202 30.3494 68.6834 30.8763 67.8413 31.1925C66.9992 31.5613 66.1571 31.7194 65.2623 31.7194C64.3676 31.7194 63.4728 31.5613 62.6834 31.1925C61.8412 30.8237 61.157 30.3494 60.5255 29.7698C59.9465 29.1902 59.4202 28.4525 59.1044 27.6095C58.736 26.7664 58.5781 25.9233 58.5781 25.0276V21.6553H63.1044V19.9692H58.5781V14.0678H56.8939V24.9749C56.8939 26.1868 57.1044 27.2933 57.5254 28.2945C57.9465 29.2956 58.5781 30.1914 59.3149 30.929C60.0518 31.6667 60.9465 32.299 61.9465 32.7205C62.9465 33.1421 64.0518 33.3528 65.2623 33.3528C66.4202 33.3528 67.4728 33.1421 68.4728 32.7205C69.4729 32.299 70.3676 31.6667 71.1571 30.929C71.9466 30.1914 72.5255 29.2956 72.9992 28.2945C73.4729 27.2933 73.6834 26.1868 73.6834 24.9749H71.9992C71.9992 25.9233 71.7887 26.8191 71.4202 27.6095Z" fill="#201CFE"/>
<path d="M89.9467 19.1261C89.1572 18.3357 88.2625 17.7561 87.2625 17.2819C86.2625 16.8076 85.1572 16.5969 84.0519 16.5969C82.6309 16.5969 81.3151 16.913 80.2098 17.5453C79.0519 18.1776 78.1045 18.968 77.3677 19.9691V13.5935H75.6835V33.4581H77.3677V25.0275C77.3677 24.1318 77.5256 23.236 77.894 22.4456C78.2624 21.6026 78.7361 20.9176 79.3151 20.2853C79.894 19.7057 80.6309 19.1788 81.473 18.8626C82.3151 18.4938 83.1572 18.3357 84.0519 18.3357C84.9467 18.3357 85.8414 18.4938 86.6309 18.8626C87.473 19.2315 88.1572 19.7057 88.7888 20.2853C89.3678 20.8649 89.8941 21.6026 90.2099 22.4456C90.5783 23.2887 90.7362 24.1318 90.7362 25.0275V33.4581H92.4204V25.0275C92.4204 23.8683 92.2099 22.8145 91.7362 21.8133C91.3678 20.7595 90.7362 19.8638 89.9467 19.1261Z" fill="#201CFE"/>
<path d="M108.842 19.0214C108.105 18.2838 107.21 17.6515 106.157 17.2299C105.105 16.8084 104.052 16.5976 102.842 16.5976C101.631 16.5976 100.526 16.8084 99.5257 17.2299C98.5257 17.6515 97.631 18.2838 96.8942 19.0214C96.1573 19.7591 95.5257 20.6549 95.1047 21.7087C94.6836 22.7625 94.4731 23.8164 94.4731 25.0283C94.4731 26.2402 94.6836 27.3467 95.1047 28.3478C95.5257 29.349 96.1573 30.2447 96.8942 30.9824C97.631 31.7201 98.5257 32.3524 99.5257 32.7739C100.526 33.1954 101.631 33.4062 102.842 33.4062C103.736 33.4062 104.631 33.2481 105.473 32.932C106.315 32.6158 107.105 32.247 107.789 31.7201C108.473 31.1932 109.105 30.6136 109.631 29.8759C110.157 29.1382 110.578 28.4005 110.842 27.5048H108.999C108.473 28.7694 107.684 29.8232 106.578 30.5609C105.473 31.2985 104.21 31.7201 102.789 31.7201C101.947 31.7201 101.157 31.562 100.368 31.2459C99.631 30.9297 98.9468 30.5609 98.3152 30.0339C97.7363 29.507 97.21 28.9274 96.8415 28.1897C96.4731 27.4521 96.2099 26.6617 96.052 25.8186H111.157V24.9756C111.157 23.8164 110.947 22.7098 110.526 21.656C110.21 20.7076 109.578 19.8118 108.842 19.0214ZM96.1573 24.1852C96.3152 23.3421 96.5784 22.5518 96.9468 21.8668C97.3152 21.1291 97.8415 20.4968 98.4205 20.0226C98.9994 19.4957 99.6836 19.0741 100.473 18.8107C101.21 18.4945 101.999 18.3364 102.894 18.3364C103.736 18.3364 104.526 18.4945 105.263 18.8107C105.999 19.1268 106.684 19.5483 107.315 20.0226C107.894 20.5495 108.421 21.1818 108.789 21.8668C109.157 22.6045 109.421 23.3948 109.578 24.1852H96.1573Z" fill="#201CFE"/>
<path d="M142.792 19.0214C142.055 18.2838 141.16 17.6515 140.107 17.2299C139.055 16.8084 138.002 16.5976 136.791 16.5976C136.002 16.5976 135.213 16.703 134.423 16.9665C133.686 17.1772 132.949 17.5461 132.265 17.9676C131.581 18.3891 131.002 18.916 130.476 19.443C129.949 20.0226 129.528 20.6549 129.16 21.2872C128.844 20.6022 128.423 19.9699 127.897 19.443C127.37 18.8634 126.791 18.3891 126.16 17.9676C125.528 17.5461 124.791 17.2299 124.002 16.9665C123.212 16.7557 122.423 16.5976 121.581 16.5976C120.423 16.5976 119.37 16.8084 118.37 17.2299C117.37 17.6515 116.476 18.2838 115.686 19.0214C114.897 19.7591 114.318 20.6549 113.844 21.7087C113.37 22.7625 113.16 23.8164 113.16 25.0283V33.4589H114.844V25.0283C114.844 24.1325 115.002 23.2367 115.37 22.4464C115.739 21.6033 116.212 20.9183 116.791 20.286C117.37 19.7064 118.107 19.1795 118.949 18.8634C119.791 18.4945 120.634 18.3364 121.528 18.3364C122.423 18.3364 123.318 18.4945 124.107 18.8634C124.949 19.2322 125.634 19.7064 126.265 20.286C126.844 20.8656 127.37 21.6033 127.686 22.4464C128.055 23.2894 128.212 24.1325 128.212 25.0283V33.4589H129.897V25.0283C129.897 24.1325 130.055 23.2367 130.423 22.4464C130.791 21.6033 131.265 20.9183 131.844 20.286C132.423 19.7064 133.16 19.1795 134.002 18.8634C134.844 18.4945 135.686 18.3364 136.581 18.3364C137.476 18.3364 138.37 18.4945 139.16 18.8634C140.002 19.2322 140.686 19.7064 141.318 20.286C141.897 20.8656 142.423 21.6033 142.739 22.4464C143.107 23.2894 143.265 24.1325 143.265 25.0283V33.4589H144.949V25.0283C144.949 23.869 144.739 22.7625 144.318 21.7087C144.107 20.7076 143.528 19.8118 142.792 19.0214Z" fill="#201CFE"/>
<path d="M164 25.8713V25.0283C164 23.869 163.789 22.7625 163.368 21.7087C162.947 20.6549 162.316 19.8118 161.579 19.0214C160.842 18.2838 159.947 17.6515 158.895 17.2299C157.842 16.8084 156.789 16.5976 155.579 16.5976C154.368 16.5976 153.263 16.8084 152.263 17.2299C151.263 17.6515 150.368 18.2838 149.631 19.0214C148.895 19.7591 148.263 20.6549 147.842 21.7087C147.421 22.7625 147.21 23.8164 147.21 25.0283C147.21 26.2402 147.421 27.3467 147.842 28.3478C148.263 29.349 148.895 30.2447 149.631 30.9824C150.368 31.7201 151.263 32.3524 152.263 32.7739C153.263 33.1954 154.368 33.4062 155.579 33.4062C156.474 33.4062 157.368 33.2481 158.21 32.932C159.053 32.6158 159.842 32.247 160.526 31.7201C161.21 31.1932 161.842 30.6136 162.368 29.8759C162.895 29.1382 163.316 28.4005 163.579 27.5048H161.737C161.21 28.7694 160.421 29.8232 159.316 30.5609C158.21 31.2985 156.947 31.7201 155.526 31.7201C154.684 31.7201 153.895 31.562 153.105 31.2459C152.368 30.9297 151.684 30.5609 151.053 30.0339C150.474 29.507 149.947 28.9274 149.579 28.1897C149.21 27.4521 148.947 26.6617 148.789 25.8186H164V25.8713ZM149.684 21.8141C150.053 21.0764 150.579 20.4441 151.158 19.9699C151.737 19.443 152.421 19.0214 153.21 18.758C153.947 18.4418 154.737 18.2838 155.632 18.2838C156.474 18.2838 157.263 18.4418 158 18.758C158.737 19.0741 159.421 19.4957 160.053 19.9699C160.632 20.4968 161.158 21.1291 161.526 21.8141C161.895 22.5518 162.158 23.3421 162.316 24.1325H148.895C149.053 23.3421 149.316 22.5518 149.684 21.8141Z" fill="#201CFE"/>
<path d="M20.8976 16.8083C21.2134 16.3341 21.5292 15.9126 21.9503 15.5437C22.6871 14.806 23.5818 14.1737 24.5818 13.7522C25.5818 13.3307 26.6345 13.1199 27.7924 13.1199C27.845 13.1199 27.845 13.1199 27.8977 13.1199C29.0555 13.1199 30.1082 13.3307 31.1082 13.7522C32.1082 14.1737 33.0029 14.7533 33.7924 15.491C34.2135 15.9126 34.5819 16.4922 34.8977 16.8083H35.0029L39.6872 9.69497C39.6872 9.69497 31.2135 12.593 27.9503 3.68814C27.9503 3.68814 24.8976 12.2769 15.7923 9.74766L20.8976 16.8083Z" fill="#201CFE"/>
<path d="M14.4758 9.22046C15.2127 9.22046 15.8443 8.58816 15.8443 7.85048C15.8443 7.1128 15.2127 6.4805 14.4758 6.4805C13.739 6.4805 13.1074 7.1128 13.1074 7.85048C13.1074 8.58816 13.739 9.22046 14.4758 9.22046Z" fill="#201CFE"/>
<path d="M27.9459 2.73996C27.9985 2.73996 27.9985 2.73996 27.9459 2.73996C28.7353 2.73996 29.3143 2.10766 29.3143 1.36998C29.3143 0.632298 28.7353 0.0526915 27.9985 0C27.9459 0 27.9459 0 27.8932 0C27.1564 0 26.5248 0.632298 26.5248 1.36998C26.5774 2.16035 27.209 2.73996 27.9459 2.73996Z" fill="#201CFE"/>
<path d="M41.3181 9.06266C42.055 9.06266 42.6865 8.43036 42.6865 7.69268C42.6865 6.955 42.055 6.3227 41.3181 6.3227C40.5813 6.3227 39.9497 6.955 39.9497 7.69268C39.9497 8.43036 40.5286 9.06266 41.3181 9.06266Z" fill="#201CFE"/>
<path d="M33.684 18.4411C32.9471 17.7035 31.9471 17.0712 30.8945 16.6496C30.0524 16.2808 29.105 16.07 28.105 16.0173V15.9646C27.9997 15.9646 27.8945 15.9646 27.7892 15.9646C27.6839 15.9646 27.5787 15.9646 27.4734 15.9646V16.0173C26.526 16.07 25.6313 16.2808 24.7892 16.6496C23.7892 17.0712 22.8944 17.7035 22.1576 18.4411C21.4208 19.1788 20.8418 20.0746 20.3681 21.1284C19.9471 22.1822 19.7365 23.2361 19.7365 24.448C19.7365 25.6599 19.9471 26.7664 20.3681 27.7675C20.7892 28.7687 21.4208 29.6644 22.1576 30.4021C22.8944 31.1398 23.7892 31.7721 24.7892 32.1936C25.6313 32.5624 26.526 32.7732 27.4734 32.8259V32.8786C27.6313 32.8786 27.7892 32.8786 27.8945 32.8786C27.9471 32.8786 27.9997 32.8786 28.105 32.8786C28.9471 32.8259 29.5787 32.6678 30.2629 32.4571C31.105 32.1409 31.9471 31.7721 32.684 31.2452C33.3682 30.7182 34.0524 30.0859 34.5787 29.3483C35.105 28.6106 35.5261 27.8729 35.8419 26.9245H33.9998C33.4734 28.1364 32.5261 29.2429 31.4734 30.0333C30.4734 30.7182 29.5261 31.1398 27.9471 31.1925C27.2103 31.1398 26.526 31.0344 25.8418 30.7709C25.105 30.4548 24.4208 30.0333 23.7892 29.559C23.2102 29.0321 22.6839 28.2944 22.3155 27.6094C21.9471 26.8718 21.6839 26.0287 21.526 25.1329H36.2103V24.5533C36.2103 23.3941 35.9998 22.2876 35.5787 21.2338C34.9998 20.1273 34.4208 19.2315 33.684 18.4411ZM28.105 23.4995H21.4208C21.5786 22.6038 21.8418 21.9188 22.2102 21.2338C22.5787 20.4961 23.105 19.9165 23.6839 19.3896C24.2629 18.8627 24.9471 18.4938 25.7366 18.1777C26.3681 17.9142 26.9997 17.8088 27.6839 17.7561C28.526 17.7561 29.2629 17.9142 29.9471 18.1777C30.6839 18.4938 31.4734 18.9154 32.0524 19.3896C32.6313 19.9165 33.2103 20.4961 33.5787 21.1811C33.9471 21.9188 34.2629 22.5511 34.4208 23.4468H28.105V23.4995Z" fill="#201CFE"/>
</svg>
