<svg width="28" height="28" viewBox="0 0 28 28" fill="none" xmlns="http://www.w3.org/2000/svg">
<path d="M9.83589 0C6.17538 0 3.19946 2.97592 3.19946 6.63643C3.19946 10.2271 6.00772 13.1331 9.66824 13.2589C9.78001 13.2449 9.89178 13.2449 9.97561 13.2589C10.0036 13.2589 10.0175 13.2589 10.0455 13.2589C10.0594 13.2589 10.0594 13.2589 10.0734 13.2589C13.6501 13.1331 16.4584 10.2271 16.4723 6.63643C16.4723 2.97592 13.4964 0 9.83589 0Z" fill="white"/>
<path d="M16.9334 16.9754C13.0353 14.3767 6.67835 14.3767 2.75237 16.9754C0.978001 18.163 0 19.7697 0 21.4882C0 23.2066 0.978001 24.7994 2.7384 25.973C4.6944 27.2863 7.26515 27.943 9.83589 27.943C12.4066 27.943 14.9774 27.2863 16.9334 25.973C18.6938 24.7854 19.6718 23.1927 19.6718 21.4602C19.6578 19.7417 18.6938 18.149 16.9334 16.9754Z" fill="white"/>
<path d="M25.1905 7.46075C25.4141 10.1712 23.486 12.5464 20.8175 12.8677C20.8035 12.8677 20.8035 12.8677 20.7895 12.8677H20.7476C20.6638 12.8677 20.58 12.8677 20.5101 12.8956C19.1549 12.9655 17.9114 12.5324 16.9753 11.736C18.4144 10.4506 19.2387 8.52258 19.0711 6.42687C18.9733 5.29518 18.5821 4.2613 17.9953 3.3811C18.5262 3.11564 19.1409 2.94798 19.7696 2.8921C22.508 2.65458 24.953 4.69441 25.1905 7.46075Z" fill="white"/>
<path d="M27.9848 20.3843C27.873 21.7395 27.0068 22.9131 25.5537 23.7095C24.1566 24.4779 22.3962 24.8412 20.6498 24.7993C21.6557 23.8911 22.2425 22.7594 22.3543 21.5579C22.494 19.8254 21.6697 18.1628 20.021 16.8356C19.085 16.0951 17.9952 15.5083 16.8076 15.0752C19.8953 14.181 23.7794 14.7818 26.1685 16.7098C27.4539 17.7437 28.1105 19.043 27.9848 20.3843Z" fill="white"/>
</svg>
