<svg width="52" height="23" viewBox="0 0 52 23" fill="none" xmlns="http://www.w3.org/2000/svg">
<path d="M43.0058 4.40645V11.7573C44.499 11.7573 45.7047 10.1111 45.7047 8.08141C45.7047 6.05169 44.4962 4.40645 43.0058 4.40645Z" fill="#3F04FE"/>
<path d="M8.00706 4.36275V11.7117C6.51393 11.7117 5.30823 10.0656 5.30823 8.03677C5.30823 6.00799 6.5158 4.36368 8.00706 4.36275Z" fill="#3F04FE"/>
<path d="M51.0537 17.2607C51.0537 20.4336 39.6248 22.9999 25.5269 22.9999C11.429 22.9999 0 20.4308 0 17.2607C0 14.0906 11.429 11.5253 25.5269 11.5253C39.6248 11.5253 51.0537 14.0906 51.0537 17.2607Z" fill="#3F04FE"/>
<path d="M47.9275 15.9194C47.9275 18.5156 37.8983 20.62 25.5305 20.62C13.1628 20.62 3.13363 18.5156 3.13363 15.9194C3.13363 13.3233 13.1637 11.2189 25.5352 11.2189C37.9067 11.2189 47.9275 13.3233 47.9275 15.9194Z" fill="white"/>
<path d="M38.6422 17.7645H12.4191C10.3101 17.7645 8.59299 15.9774 8.59299 13.7816V3.98292C8.59299 1.78709 10.3092 0 12.4191 0H38.6422C40.7512 0 42.4683 1.78709 42.4683 3.98292V13.7816C42.4683 15.9774 40.7531 17.7645 38.6422 17.7645Z" fill="#3F04FE"/>
<path d="M38.658 0.614251H12.4349C10.6478 0.614251 9.19949 2.12324 9.19949 3.98405V13.7827C9.19949 15.6444 10.6478 17.1525 12.4349 17.1525H12.699V17.1422C16.5634 16.5077 20.9261 16.1502 25.5455 16.1502C30.1649 16.1502 34.5295 16.5077 38.3939 17.1422V17.1525H38.657C40.4441 17.1525 41.8934 15.6444 41.8934 13.7827V3.98405C41.8943 2.12324 40.445 0.614251 38.658 0.614251Z" fill="white"/>
<path d="M12.9269 5.99115H14.1532L15.1582 10.6049L16.3191 5.99115H17.5948L18.6895 10.5797L19.7039 5.99115H20.9376L19.3436 11.9329H17.9952L16.9238 7.69891L15.804 11.9291L14.463 11.9375L12.9269 5.99115Z" fill="#3F04FE"/>
<path d="M23.7816 9.65118H22.826V11.9329H21.6809V5.99115H23.7816C25.1552 5.99115 25.8421 6.80024 25.8421 7.82956C25.8421 8.73197 25.2532 9.65118 23.7816 9.65118ZM23.733 8.68997C24.3788 8.68997 24.6662 8.35775 24.6662 7.82956C24.6662 7.2855 24.3797 6.96168 23.733 6.96168H22.826V8.68997H23.733Z" fill="#3F04FE"/>
<path d="M32.5042 5.99115H33.7173L31.6251 11.9329H30.243L28.147 5.99115H29.3733L30.9429 10.716L32.5042 5.99115Z" fill="#3F04FE"/>
<path d="M36.5508 5.99115C37.9236 5.99115 38.6104 6.81703 38.6104 7.81276C38.6104 8.53693 38.2269 9.26856 37.3105 9.52426L38.6757 11.9329H37.3515L36.0926 9.61758H35.5532V11.9329H34.4091V5.99115H36.5508ZM36.5098 6.97848H35.5532V8.72544H36.5098C37.1471 8.72544 37.4336 8.37642 37.4336 7.84076C37.4336 7.3051 37.149 6.97848 36.5098 6.97848Z" fill="#3F04FE"/>
</svg>
