<svg width="26" height="20" viewBox="0 0 26 20" fill="none" xmlns="http://www.w3.org/2000/svg">
<g clip-path="url(#clip0_2010_646)">
<path d="M26 16.5002C26 17.2664 25.6956 18.0012 25.1539 18.543C24.6121 19.0847 23.8773 19.3891 23.1111 19.3891H2.88889C2.12271 19.3891 1.38791 19.0847 0.846136 18.543C0.304364 18.0012 0 17.2664 0 16.5002V3.50022C0 2.73404 0.304364 1.99924 0.846136 1.45746C1.38791 0.915692 2.12271 0.611328 2.88889 0.611328H23.1111C23.8773 0.611328 24.6121 0.915692 25.1539 1.45746C25.6956 1.99924 26 2.73404 26 3.50022V16.5002Z" fill="#006A4D"/>
<path d="M11.5556 14.6941C14.3477 14.6941 16.6111 12.4307 16.6111 9.63856C16.6111 6.84646 14.3477 4.58301 11.5556 4.58301C8.76345 4.58301 6.5 6.84646 6.5 9.63856C6.5 12.4307 8.76345 14.6941 11.5556 14.6941Z" fill="#F42A41"/>
</g>
<defs>
<clipPath id="clip0_2010_646">
<rect width="26" height="20" fill="white"/>
</clipPath>
</defs>
</svg>
