<svg width="28" height="28" viewBox="0 0 28 28" fill="none" xmlns="http://www.w3.org/2000/svg">
<path fill-rule="evenodd" clip-rule="evenodd" d="M13.9769 28C12.0626 28 10.2174 27.631 8.53376 26.8929C6.87314 26.1779 5.37397 25.1631 4.1285 23.9176C2.85997 22.6722 1.84513 21.173 1.10708 19.4893C0.369025 17.8056 0 15.9605 0 14.0231C0 12.1087 0.369025 10.2636 1.10708 8.55683C1.84513 6.85008 2.85997 5.32784 4.1285 4.08237C5.37397 2.8369 6.87314 1.84514 8.53376 1.10708C10.2174 0.369029 12.0626 0 13.9769 0C15.9143 0 17.7364 0.369029 19.4431 1.10708C21.1268 1.84514 22.626 2.8369 23.8945 4.08237C25.1631 5.32784 26.1779 6.85008 26.9159 8.55683C27.6309 10.2636 28 12.1087 28 14.0231C28 15.9605 27.6309 17.7825 26.8929 19.4893C26.1779 21.173 25.1631 22.6722 23.8945 23.9176C22.626 25.1631 21.1268 26.1779 19.4431 26.8929C17.7364 27.631 15.9143 28 13.9769 28ZM13.9769 5.743C12.8468 5.743 11.7627 5.95057 10.7479 6.36573C9.75616 6.80395 8.85665 7.40362 8.09554 8.14168C7.33442 8.9028 6.75782 9.80231 6.3196 10.8171C5.90445 11.8089 5.67379 12.8929 5.67379 14.0231C5.67379 15.1763 5.90445 16.2603 6.3196 17.2521C6.73476 18.2669 7.33442 19.1433 8.09554 19.8814C8.85665 20.6194 9.75617 21.2191 10.771 21.6573C11.7628 22.1186 12.8468 22.3262 13.9769 22.3262C15.1071 22.3262 16.1911 22.1186 17.2059 21.6804C18.2207 21.2191 19.1202 20.6194 19.8583 19.8814C20.6194 19.1433 21.2191 18.2669 21.6342 17.2521C22.0725 16.2603 22.28 15.1763 22.28 14.0231C22.28 12.8929 22.0725 11.8089 21.6342 10.8171C21.2191 9.80231 20.6194 8.9028 19.8583 8.14168C19.0972 7.40362 18.2207 6.80395 17.2059 6.36573C16.1911 5.95057 15.1071 5.743 13.9769 5.743Z" fill="#0B0B35"/>
</svg>
