<svg width="20" height="20" viewBox="0 0 20 20" fill="none" xmlns="http://www.w3.org/2000/svg">
<path d="M10 12.391C11.1598 12.391 12.1 11.4508 12.1 10.291C12.1 9.1312 11.1598 8.191 10 8.191C8.8402 8.191 7.9 9.1312 7.9 10.291C7.9 11.4508 8.8402 12.391 10 12.391Z" fill="#9C9CE4"/>
<path d="M10 0C4.47716 0 0 4.47659 0 9.99873C0 15.5209 4.47716 19.9975 10 19.9975C15.5228 19.9975 20 15.5209 20 9.99873C20 4.47659 15.5228 0 10 0ZM16.1783 12.54C16.1303 13.4906 15.8632 14.428 15.1703 15.1134C14.4708 15.8053 13.5288 16.0631 12.5689 16.1106H7.43112C6.47112 16.0631 5.52928 15.8055 4.82972 15.1134C4.13684 14.428 3.86972 13.4906 3.82172 12.54V7.45746C3.86972 6.50686 4.13688 5.56945 4.82972 4.88402C5.52928 4.19211 6.47124 3.9343 7.43112 3.88683H12.5689C13.5289 3.9343 14.4707 4.19199 15.1703 4.88402C15.8632 5.56945 16.1303 6.50686 16.1783 7.45746L16.1783 12.54Z" fill="#9C9CE4"/>
<path d="M12.5025 5.14524C11.251 5.11092 8.74624 5.11092 7.4948 5.14524C6.84356 5.16311 6.10528 5.32521 5.64128 5.82075C5.15912 6.33585 4.97692 6.95817 4.95844 7.65436C4.92596 8.87628 4.95844 12.5438 4.95844 12.5438C4.9796 13.2399 5.15912 13.8623 5.64128 14.3774C6.10528 14.8731 6.84356 15.0351 7.4948 15.0529C8.74624 15.0873 11.251 15.0873 12.5025 15.0529C13.1537 15.0351 13.892 14.873 14.356 14.3774C14.8382 13.8623 15.0204 13.24 15.0388 12.5438V7.65436C15.0204 6.95817 14.8382 6.33585 14.356 5.82075C13.8918 5.32505 13.1536 5.16311 12.5025 5.14524ZM9.99848 13.3537C9.3547 13.3537 8.72538 13.1628 8.19009 12.8052C7.65481 12.4476 7.23761 11.9393 6.99125 11.3446C6.74488 10.7499 6.68042 10.0955 6.80602 9.46415C6.93161 8.83282 7.24162 8.25291 7.69684 7.79775C8.15206 7.34259 8.73205 7.03262 9.36346 6.90704C9.99486 6.78146 10.6493 6.84591 11.2441 7.09224C11.8389 7.33857 12.3472 7.75572 12.7049 8.29094C13.0626 8.82615 13.2535 9.45539 13.2535 10.0991C13.2535 10.9623 12.9105 11.7901 12.3001 12.4004C11.6897 13.0108 10.8618 13.3537 9.99848 13.3537ZM13.2673 7.5163C13.1386 7.51626 13.0127 7.47806 12.9057 7.40652C12.7986 7.33498 12.7152 7.23331 12.666 7.11436C12.6167 6.99542 12.6039 6.86455 12.629 6.73829C12.6541 6.61204 12.7162 6.49607 12.8072 6.40505C12.8983 6.31404 13.0143 6.25206 13.1405 6.22696C13.2668 6.20185 13.3977 6.21475 13.5166 6.26402C13.6356 6.3133 13.7372 6.39673 13.8088 6.50377C13.8803 6.6108 13.9185 6.73665 13.9185 6.86538C13.9185 6.95087 13.9016 7.03553 13.8689 7.11451C13.8362 7.19349 13.7882 7.26526 13.7277 7.3257C13.6673 7.38615 13.5955 7.43409 13.5165 7.46679C13.4375 7.4995 13.3528 7.51632 13.2673 7.5163Z" fill="#9C9CE4"/>
</svg>
