<svg width="78" height="78" viewBox="0 0 78 78" fill="none" xmlns="http://www.w3.org/2000/svg">
<rect width="78" height="78" rx="8" fill="#3178C6"/>
<path d="M22 18V22H30V26H18V18H22ZM34 18V22H42V26H30V18H34ZM46 18V22H54V26H42V18H46ZM58 18V22H66V26H54V18H58ZM18 30V34H26V38H14V30H18ZM30 30V34H38V38H26V30H30ZM42 30V34H50V38H38V30H42ZM54 30V34H62V38H50V30H54ZM66 30V34H74V38H62V30H66Z" fill="white"/>
<text x="39" y="48" font-family="Arial, sans-serif" font-size="32" font-weight="bold" text-anchor="middle" fill="white">TS</text>
</svg>