<svg width="27" height="28" viewBox="0 0 27 28" fill="none" xmlns="http://www.w3.org/2000/svg">
<path d="M17.3334 2.66667V8.00001H15.2281V2.66667C15.2281 2.28772 14.8913 2.10527 14.6667 2.10527C14.5965 2.10527 14.5263 2.1193 14.4562 2.14737L3.32632 6.34387C2.58246 6.62457 2.10527 7.32632 2.10527 8.12633V9.06668C0.828072 10.0211 0 11.5509 0 13.2772V8.12633C0 6.45615 1.02456 4.96843 2.58246 4.37895L13.7263 0.168421C14.0351 0.0561406 14.3579 0 14.6667 0C16.0702 0 17.3334 1.13684 17.3334 2.66667Z" fill="white"/>
<path d="M26.6667 17.4735V18.877C26.6667 19.2559 26.3719 19.5647 25.9789 19.5787H23.9298C23.1859 19.5787 22.5123 19.0314 22.4561 18.3016C22.414 17.8665 22.5824 17.4594 22.8631 17.1787C23.1158 16.9121 23.4667 16.7717 23.8456 16.7717H25.9649C26.3719 16.7858 26.6667 17.0945 26.6667 17.4735Z" fill="white"/>
<path d="M23.8316 15.2983H25.2632C26.0351 15.2983 26.6667 14.6667 26.6667 13.8947V13.2772C26.6667 10.3719 24.2948 8 21.3895 8H5.2772C4.08422 8 2.98948 8.39298 2.10527 9.06667C0.828072 10.0211 0 11.5509 0 13.2772V22.7228C0 25.6281 2.37193 28 5.2772 28H21.3895C24.2948 28 26.6667 25.6281 26.6667 22.7228V22.4562C26.6667 21.6842 26.0351 21.0526 25.2632 21.0526H24.0422C22.6948 21.0526 21.4036 20.2246 21.0527 18.9193C20.7579 17.8526 21.1088 16.8281 21.8106 16.1404C22.3299 15.607 23.0457 15.2983 23.8316 15.2983ZM16.1404 15.0176H6.3158C5.74036 15.0176 5.26317 14.5404 5.26317 13.9649C5.26317 13.3895 5.74036 12.9123 6.3158 12.9123H16.1404C16.7158 12.9123 17.193 13.3895 17.193 13.9649C17.193 14.5404 16.7158 15.0176 16.1404 15.0176Z" fill="white"/>
</svg>
