<svg width="20" height="20" viewBox="0 0 20 20" fill="none" xmlns="http://www.w3.org/2000/svg">
<path d="M10 12.391C11.1598 12.391 12.1 11.4508 12.1 10.291C12.1 9.1312 11.1598 8.191 10 8.191C8.8402 8.191 7.9 9.1312 7.9 10.291C7.9 11.4508 8.8402 12.391 10 12.391Z" fill="#9C9CE4"/>
<path d="M10 0C4.47716 0 0 4.47659 0 9.99873C0 15.5209 4.47716 19.9975 10 19.9975C15.5228 19.9975 20 15.5209 20 9.99873C20 4.47659 15.5228 0 10 0ZM16.1783 12.54C16.1303 13.4906 15.8632 14.428 15.1703 15.1134C14.4708 15.8053 13.5288 16.0631 12.5689 16.1106H7.43112C6.47112 16.0631 5.52928 15.8055 4.82972 15.1134C4.13684 14.428 3.86972 13.4906 3.82172 12.54V7.45746C3.86972 6.50686 4.13688 5.56945 4.82972 4.88402C5.52928 4.19211 6.47124 3.9343 7.43112 3.88683H12.5689C13.5289 3.9343 14.4707 4.19199 15.1703 4.88402C15.8632 5.56945 16.1303 6.50686 16.1783 7.45746L16.1783 12.54Z" fill="#9C9CE4"/>
<path d="M12.5025 5.14499C11.251 5.11067 8.74624 5.11067 7.4948 5.14499C6.84356 5.16286 6.10528 5.32496 5.64128 5.8205C5.15912 6.3356 4.97692 6.95792 4.95844 7.65411C4.92596 8.87603 4.95844 12.5436 4.95844 12.5436C4.9796 13.2397 5.15912 13.8621 5.64128 14.3772C6.10528 14.8729 6.84356 15.0348 7.4948 15.0527C8.74624 15.087 11.251 15.087 12.5025 15.0527C13.1537 15.0348 13.892 14.8727 14.356 14.3772C14.8382 13.8621 15.0204 13.2398 15.0388 12.5436V7.65411C15.0204 6.95792 14.8382 6.3356 14.356 5.8205C13.8918 5.3248 13.1536 5.16286 12.5025 5.14499ZM9.99847 13.3534C9.3547 13.3534 8.72538 13.1625 8.19009 12.8049C7.65481 12.4473 7.23761 11.939 6.99125 11.3443C6.74488 10.7496 6.68042 10.0952 6.80602 9.4639C6.93161 8.83257 7.24162 8.25266 7.69684 7.7975C8.15206 7.34234 8.73205 7.03237 9.36346 6.90679C9.99487 6.78121 10.6493 6.84566 11.2441 7.09199C11.8389 7.33832 12.3472 7.75547 12.7049 8.29069C13.0626 8.8259 13.2535 9.45514 13.2535 10.0988C13.2535 10.962 12.9105 11.7898 12.3001 12.4002C11.6897 13.0105 10.8618 13.3534 9.99847 13.3534ZM13.2673 7.51605C13.1386 7.51601 13.0127 7.47781 12.9057 7.40627C12.7986 7.33473 12.7152 7.23306 12.666 7.11411C12.6167 6.99517 12.6039 6.8643 12.629 6.73804C12.6541 6.61179 12.7162 6.49582 12.8072 6.4048C12.8983 6.31379 13.0143 6.25181 13.1405 6.22671C13.2668 6.2016 13.3977 6.2145 13.5166 6.26377C13.6356 6.31305 13.7372 6.39648 13.8088 6.50352C13.8803 6.61055 13.9185 6.7364 13.9185 6.86513C13.9185 6.95062 13.9016 7.03528 13.8689 7.11426C13.8362 7.19324 13.7882 7.26501 13.7277 7.32545C13.6673 7.3859 13.5955 7.43384 13.5165 7.46654C13.4375 7.49925 13.3528 7.51607 13.2673 7.51605Z" fill="#9C9CE4"/>
</svg>
