<svg width="31" height="32" viewBox="0 0 31 32" fill="none" xmlns="http://www.w3.org/2000/svg">
<path d="M7.2167 19.6373H3.09067C1.3908 19.6373 0 21.0281 0 22.728V30.4546C0 31.3046 0.6954 32 1.54533 32H7.2167C8.06664 32 8.76204 31.3046 8.76204 30.4546V21.1827C8.76204 20.3327 8.06664 19.6373 7.2167 19.6373Z" fill="#0B0B35"/>
<path d="M17.5087 13.4561H13.3827C11.6828 13.4561 10.292 14.8469 10.292 16.5467V30.4547C10.292 31.3046 10.9874 32 11.8373 32H19.054C19.904 32 20.5994 31.3046 20.5994 30.4547V16.5467C20.5994 14.8469 19.224 13.4561 17.5087 13.4561Z" fill="#0B0B35"/>
<path d="M27.8159 24.2732H23.6899C22.8399 24.2732 22.1445 24.9686 22.1445 25.8185V30.4545C22.1445 31.3044 22.8399 31.9998 23.6899 31.9998H29.3612C30.2112 31.9998 30.9066 31.3044 30.9066 30.4545V27.3639C30.9066 25.664 29.5158 24.2732 27.8159 24.2732Z" fill="#0B0B35"/>
<path d="M20.1049 5.49751C20.5839 5.01846 20.7694 4.44669 20.6148 3.95218C20.4603 3.45768 19.9812 3.10225 19.3013 2.99408L17.8178 2.74682C17.756 2.74682 17.6169 2.63865 17.586 2.57684L16.767 0.938788C16.1488 -0.312929 14.7426 -0.312929 14.1244 0.938788L13.3054 2.57684C13.29 2.63865 13.1509 2.74682 13.0891 2.74682L11.6055 2.99408C10.9256 3.10225 10.462 3.45768 10.292 3.95218C10.1375 4.44669 10.3229 5.01846 10.802 5.49751L11.9455 6.65651C12.0073 6.70287 12.0537 6.88831 12.0382 6.95012L11.7137 8.37183C11.4665 9.43811 11.8682 9.91716 12.131 10.1026C12.3937 10.288 12.9654 10.5353 13.9081 9.97897L15.2989 9.15995C15.3607 9.11359 15.5616 9.11359 15.6234 9.15995L16.9988 9.97897C17.4314 10.2417 17.7869 10.3189 18.065 10.3189C18.3896 10.3189 18.6214 10.1953 18.7604 10.1026C19.0231 9.91716 19.4249 9.43811 19.1777 8.37183L18.8532 6.95012C18.8377 6.87286 18.8841 6.70287 18.9459 6.65651L20.1049 5.49751Z" fill="#0B0B35"/>
</svg>
