<svg width="28" height="28" viewBox="0 0 28 28" fill="none" xmlns="http://www.w3.org/2000/svg">
<path d="M25.094 27.4927C23.5256 27.4927 22.2571 26.2242 22.2571 24.6789V14.0231C22.2571 12.893 22.0495 11.809 21.6344 10.8172C21.1961 9.80236 20.6195 8.90285 19.8815 8.14172C19.1434 7.40366 18.2439 6.80399 17.2521 6.36576C16.2373 5.9506 15.1302 5.74303 13.977 5.74303C12.8238 5.74303 11.7397 5.9506 10.748 6.36576C9.73315 6.80399 8.85671 7.40366 8.11865 8.14172C7.38059 8.90285 6.78092 9.80236 6.34269 10.8172C5.88141 11.809 5.67383 12.893 5.67383 14.0231V24.6789C5.67383 26.2242 4.40529 27.4927 2.83692 27.4927H2.81385C1.26854 27.4927 0 26.2242 0 24.6789V14.0231C0 12.1088 0.369034 10.2636 1.10709 8.55688C1.82209 6.85012 2.83692 5.32787 4.10546 4.08239C5.374 2.83692 6.85011 1.84515 8.53381 1.10709C10.2175 0.369031 12.0396 0 13.977 0C15.8913 0 17.7365 0.369031 19.4202 1.10709C21.1269 1.84515 22.6261 2.83692 23.8716 4.08239C25.1401 5.32787 26.155 6.85012 26.893 8.55688C27.6311 10.2636 28.0001 12.1088 28.0001 14.0231V24.6789C28.0001 26.2242 26.7316 27.4927 25.1632 27.4927H25.094Z" fill="#0B0B35"/>
</svg>
