<svg width="176" height="32" viewBox="0 0 176 32" fill="none" xmlns="http://www.w3.org/2000/svg">
<path d="M12.2415 0V14.9697C12.2415 18.1408 13.0809 19.1901 17.9775 19.1901H22.5244C24.2732 19.1901 25.6955 20.6124 25.6955 22.3612C25.6955 24.11 24.2732 25.5324 22.5244 25.5324H17.9775C9.56004 25.5324 5.80597 22.268 5.80597 14.9697V0H0V16.6019C0 24.8095 6.66871 31.4783 14.8763 31.4783H31.4782V0H12.2415Z" fill="#3433FE"/>
<path d="M69.0338 26.4417V4.60014C69.0338 3.06298 70.2957 1.80112 71.8558 1.80112H71.9246C73.4847 1.80112 74.7236 3.06298 74.7236 4.60014V26.4417C74.7236 27.9789 73.4847 29.2407 71.9246 29.2407H71.8558C70.2957 29.2407 69.0338 27.9789 69.0338 26.4417Z" fill="#0B0B35"/>
<path d="M105.592 29.2406C104.032 29.2406 102.77 27.9788 102.77 26.4416V15.842C102.77 14.7178 102.563 13.6395 102.15 12.653C101.714 11.6435 101.141 10.7487 100.407 9.99163C99.6725 9.25746 98.7778 8.66094 97.7912 8.22503C96.7817 7.81206 95.6805 7.60558 94.5333 7.60558C93.3862 7.60558 92.3079 7.81206 91.3214 8.22503C90.3119 8.66094 89.44 9.25746 88.7059 9.99163C87.9717 10.7487 87.3752 11.6435 86.9393 12.653C86.4804 13.6395 86.2739 14.7178 86.2739 15.842V26.4416C86.2739 27.9788 85.0121 29.2406 83.452 29.2406H83.429C81.8919 29.2406 80.63 27.9788 80.63 26.4416V15.842C80.63 13.9378 80.9971 12.1024 81.7313 10.4046C82.4425 8.70683 83.452 7.1926 84.7138 5.95369C85.9757 4.71478 87.444 3.72824 89.1188 2.99407C90.7937 2.2599 92.6061 1.89282 94.5333 1.89282C96.4376 1.89282 98.273 2.2599 99.9478 2.99407C101.646 3.72824 103.137 4.71478 104.376 5.95369C105.638 7.1926 106.647 8.70683 107.381 10.4046C108.115 12.1024 108.483 13.9378 108.483 15.842V26.4416C108.483 27.9788 107.221 29.2406 105.661 29.2406H105.592Z" fill="#0B0B35"/>
<path d="M139.35 29.2406C137.79 29.2406 136.551 27.9788 136.551 26.4416V15.842C136.551 14.7178 136.322 13.6395 135.909 12.653C135.473 11.6435 134.9 10.7487 134.165 9.99163C133.431 9.25746 132.536 8.66094 131.55 8.22503C130.54 7.81206 129.439 7.60558 128.292 7.60558C127.168 7.60558 126.09 7.81206 125.08 8.22503C124.071 8.66094 123.199 9.25746 122.465 9.99163C121.73 10.7487 121.134 11.6435 120.698 12.653C120.262 13.6395 120.033 14.7178 120.033 15.842V26.4416C120.033 27.9788 118.771 29.2406 117.211 29.2406H117.188C115.651 29.2406 114.389 27.9788 114.389 26.4416V15.842C114.389 13.9378 114.756 12.1024 115.49 10.4046C116.201 8.70683 117.211 7.1926 118.473 5.95369C119.734 4.71478 121.226 3.72824 122.878 2.99407C124.552 2.2599 126.365 1.89282 128.292 1.89282C130.196 1.89282 132.032 2.2599 133.707 2.99407C135.404 3.72824 136.896 4.71478 138.157 5.95369C139.396 7.1926 140.406 8.70683 141.14 10.4046C141.874 12.1024 142.241 13.9378 142.241 15.842V26.4416C142.241 27.9788 140.979 29.2406 139.419 29.2406H139.35Z" fill="#0B0B35"/>
<path fill-rule="evenodd" clip-rule="evenodd" d="M162.051 29.7454C160.147 29.7454 158.311 29.3783 156.636 28.6441C154.984 27.9329 153.493 26.9234 152.254 25.6845C150.992 24.4456 149.983 22.9543 149.249 21.2795C148.515 19.6047 148.147 17.7692 148.147 15.842C148.147 13.9378 148.515 12.1024 149.249 10.4046C149.983 8.70683 150.992 7.1926 152.254 5.95369C153.493 4.71478 154.984 3.72824 156.636 2.99407C158.311 2.2599 160.147 1.89282 162.051 1.89282C163.978 1.89282 165.79 2.2599 167.488 2.99407C169.163 3.72824 170.654 4.71478 171.916 5.95369C173.178 7.1926 174.188 8.70683 174.922 10.4046C175.633 12.1024 176 13.9378 176 15.842C176 17.7692 175.633 19.5817 174.899 21.2795C174.188 22.9543 173.178 24.4456 171.916 25.6845C170.654 26.9234 169.163 27.9329 167.488 28.6441C165.79 29.3783 163.978 29.7454 162.051 29.7454ZM162.051 7.60558C160.927 7.60558 159.848 7.81206 158.839 8.22503C157.852 8.66094 156.957 9.25746 156.2 9.99163C155.443 10.7487 154.87 11.6435 154.434 12.653C154.021 13.6395 153.791 14.7178 153.791 15.842C153.791 16.9892 154.021 18.0675 154.434 19.054C154.847 20.0635 155.443 20.9353 156.2 21.6695C156.957 22.4037 157.852 23.0002 158.862 23.4361C159.848 23.895 160.927 24.1015 162.051 24.1015C163.175 24.1015 164.253 23.895 165.263 23.4591C166.272 23.0002 167.167 22.4037 167.901 21.6695C168.658 20.9353 169.255 20.0635 169.668 19.054C170.104 18.0675 170.31 16.9892 170.31 15.842C170.31 14.7178 170.104 13.6395 169.668 12.653C169.255 11.6435 168.658 10.7487 167.901 9.99163C167.144 9.25746 166.272 8.66094 165.263 8.22503C164.253 7.81206 163.175 7.60558 162.051 7.60558Z" fill="#0B0B35"/>
<path d="M56.2905 29.2412C48.8112 29.2412 45.4845 26.3504 45.4845 19.8805V4.53176C45.4845 2.99459 46.7463 1.73273 48.3065 1.73273H48.3982C49.9354 1.73273 51.1972 2.99459 51.1972 4.53176V19.8805C51.1972 22.6795 51.9314 23.6202 56.2905 23.6202H60.3055C61.8656 23.6202 63.1275 24.8591 63.1275 26.4192C63.1275 27.9793 61.8656 29.2412 60.3055 29.2412H56.2905Z" fill="#0B0B35"/>
</svg>
