<svg width="28" height="28" viewBox="0 0 28 28" fill="none" xmlns="http://www.w3.org/2000/svg">
<path d="M14 0C6.272 0 0 6.272 0 14C0 21.728 6.272 28 14 28C21.728 28 28 21.728 28 14C28 6.272 21.742 0 14 0ZM21.602 20.202C19.88 22.68 17.052 24.15 14.042 24.15C11.032 24.15 8.204 22.68 6.482 20.202C6.146 19.726 6.272 19.068 6.748 18.746C7.224 18.41 7.882 18.536 8.204 19.012C9.534 20.916 11.718 22.064 14.042 22.064C16.366 22.064 18.55 20.93 19.88 19.012C20.216 18.536 20.86 18.424 21.336 18.746C21.826 19.068 21.938 19.726 21.602 20.202Z" fill="white"/>
</svg>
