<svg width="42" height="42" viewBox="0 0 42 42" fill="none" xmlns="http://www.w3.org/2000/svg">
<circle cx="21" cy="21" r="21" fill="#3433FE"/>
<path d="M19.375 24.25C19.0681 24.25 18.8109 24.146 18.6037 23.938C18.3964 23.73 18.2924 23.4729 18.2917 23.1667V22.0833H19.9167V22.625H22.0833V21.5417H19.375C19.0681 21.5417 18.8109 21.4377 18.6037 21.2297C18.3964 21.0217 18.2924 20.7646 18.2917 20.4583V18.8333C18.2917 18.5264 18.3957 18.2693 18.6037 18.062C18.8117 17.8547 19.0688 17.7507 19.375 17.75H22.625C22.9319 17.75 23.1894 17.854 23.3974 18.062C23.6054 18.27 23.7091 18.5271 23.7083 18.8333V19.9167H22.0833V19.375H19.9167V20.4583H22.625C22.9319 20.4583 23.1894 20.5623 23.3974 20.7703C23.6054 20.9783 23.7091 21.2354 23.7083 21.5417V23.1667C23.7083 23.4736 23.6043 23.7311 23.3963 23.9391C23.1883 24.1471 22.9312 24.2507 22.625 24.25H19.375ZM26.4167 24.25C26.1097 24.25 25.8526 24.146 25.6453 23.938C25.4381 23.73 25.3341 23.4729 25.3333 23.1667V22.0833H26.9583V22.625H29.125V21.5417H26.4167C26.1097 21.5417 25.8526 21.4377 25.6453 21.2297C25.4381 21.0217 25.3341 20.7646 25.3333 20.4583V18.8333C25.3333 18.5264 25.4373 18.2693 25.6453 18.062C25.8533 17.8547 26.1104 17.7507 26.4167 17.75H29.6667C29.9736 17.75 30.2311 17.854 30.4391 18.062C30.6471 18.27 30.7507 18.5271 30.75 18.8333V19.9167H29.125V19.375H26.9583V20.4583H29.6667C29.9736 20.4583 30.2311 20.5623 30.4391 20.7703C30.6471 20.9783 30.7507 21.2354 30.75 21.5417V23.1667C30.75 23.4736 30.646 23.7311 30.438 23.9391C30.23 24.1471 29.9729 24.2507 29.6667 24.25H26.4167ZM12.3333 24.25C12.0264 24.25 11.7693 24.146 11.562 23.938C11.3547 23.73 11.2507 23.4729 11.25 23.1667V18.8333C11.25 18.5264 11.354 18.2693 11.562 18.062C11.77 17.8547 12.0271 17.7507 12.3333 17.75H15.5833C15.8903 17.75 16.1477 17.854 16.3558 18.062C16.5637 18.27 16.6674 18.5271 16.6667 18.8333V19.9167H15.0417V19.375H12.875V22.625H15.0417V22.0833H16.6667V23.1667C16.6667 23.4736 16.5627 23.7311 16.3547 23.9391C16.1467 24.1471 15.8896 24.2507 15.5833 24.25H12.3333Z" fill="#21F0A8"/>
</svg>
