<svg width="18" height="15" viewBox="0 0 18 15" fill="none" xmlns="http://www.w3.org/2000/svg">
<path d="M18.0004 1.73141C17.331 2.02504 16.6177 2.21967 15.8741 2.31417C16.6391 1.85741 17.223 1.13965 17.4975 0.274506C16.7842 0.699765 15.9967 1.00015 15.1574 1.16778C14.4802 0.446635 13.5149 0 12.4619 0C10.4188 0 8.77406 1.65829 8.77406 3.6912C8.77406 3.98371 8.79881 4.26497 8.85956 4.53272C5.79162 4.38309 3.07694 2.91269 1.25328 0.672764C0.934895 1.22515 0.748141 1.85741 0.748141 2.53805C0.748141 3.81608 1.40628 4.94898 2.3873 5.60487C1.79441 5.59362 1.21278 5.42149 0.720015 5.15036C0.720015 5.16161 0.720015 5.17624 0.720015 5.19086C0.720015 6.98415 1.99917 8.47368 3.67658 8.81681C3.3762 8.89894 3.04881 8.93832 2.70906 8.93832C2.4728 8.93832 2.2343 8.92482 2.01042 8.87531C2.48855 10.3367 3.84533 11.4111 5.45862 11.446C4.20309 12.4281 2.60893 13.0199 0.883144 13.0199C0.580512 13.0199 0.290256 13.0064 0 12.9693C1.63466 14.0234 3.57195 14.6253 5.66112 14.6253C12.4518 14.6253 16.1643 9.00019 16.1643 4.12434C16.1643 3.96121 16.1587 3.80371 16.1508 3.64733C16.8832 3.12757 17.4986 2.47843 18.0004 1.73141Z" fill="#0B0B35"/>
</svg>
