<svg width="28" height="28" viewBox="0 0 28 28" fill="none" xmlns="http://www.w3.org/2000/svg">
<path d="M5.33333 16.8699C2.38667 16.8699 0 19.2565 0 22.2032C0 23.2032 0.28 24.1499 0.773333 24.9499C1.69333 26.4965 3.38667 27.5365 5.33333 27.5365C7.28 27.5365 8.97333 26.4965 9.89333 24.9499C10.3867 24.1499 10.6667 23.2032 10.6667 22.2032C10.6667 19.2565 8.28 16.8699 5.33333 16.8699ZM7.96 21.7632L5.12 24.3899C4.93333 24.5632 4.68 24.6565 4.44 24.6565C4.18667 24.6565 3.93333 24.5632 3.73333 24.3632L2.41333 23.0432C2.02667 22.6565 2.02667 22.0165 2.41333 21.6299C2.8 21.2432 3.44 21.2432 3.82667 21.6299L4.46667 22.2699L6.6 20.2965C7 19.9232 7.64 19.9499 8.01333 20.3499C8.38667 20.7499 8.36 21.3899 7.96 21.7632Z" fill="white"/>
<path d="M27.3333 13.5366H23.9999C22.5333 13.5366 21.3333 14.7366 21.3333 16.2033C21.3333 17.67 22.5333 18.87 23.9999 18.87H27.3333C27.7066 18.87 27.9999 18.5766 27.9999 18.2033V14.2033C27.9999 13.83 27.7066 13.5366 27.3333 13.5366Z" fill="white"/>
<path d="M20.7066 4.07C21.1066 4.45667 20.7733 5.05667 20.2133 5.05667L9.17328 5.04333C8.53328 5.04333 8.21328 4.27 8.66662 3.81667L10.9999 1.47C12.9733 -0.49 16.1599 -0.49 18.1333 1.47L20.6533 4.01667C20.6666 4.03 20.6933 4.05667 20.7066 4.07Z" fill="white"/>
<path d="M27.8266 21.75C27.0133 24.4967 24.6666 26.2034 21.4666 26.2034H12.8C12.28 26.2034 11.9466 25.63 12.16 25.15C12.56 24.2167 12.8133 23.1634 12.8133 22.2034C12.8133 18.1634 9.51998 14.87 5.47998 14.87C4.46665 14.87 3.47998 15.0834 2.57331 15.4834C2.07998 15.6967 1.47998 15.3634 1.47998 14.83V12.87C1.47998 9.24337 3.66665 6.71004 7.06665 6.28337C7.39998 6.23004 7.75998 6.20337 8.13331 6.20337H21.4666C21.8133 6.20337 22.1466 6.2167 22.4666 6.27004C25.16 6.5767 27.1066 8.2167 27.8266 10.6567C27.96 11.0967 27.64 11.5367 27.1866 11.5367H24.1333C21.24 11.5367 18.9466 14.1767 19.5733 17.1767C20.0133 19.3634 22.04 20.87 24.2666 20.87H27.1866C27.6533 20.87 27.96 21.3234 27.8266 21.75Z" fill="white"/>
</svg>
