<svg width="27" height="20" viewBox="0 0 27 20" fill="none" xmlns="http://www.w3.org/2000/svg">
<g clip-path="url(#clip0_2010_654)">
<path d="M6.75 1.25H20.25V19.5833H6.75V1.25Z" fill="#E6E7E8"/>
<path d="M4.21875 1.25C1.42298 1.25 0 3.30208 0 5.83333V15C0 17.5312 1.42298 19.5833 4.21875 19.5833H6.75V1.25H4.21875ZM22.7812 1.25H20.25V19.5833H22.7812C25.577 19.5833 27 17.5312 27 15V5.83333C27 3.30208 25.577 1.25 22.7812 1.25Z" fill="#EC1C24"/>
<path fill-rule="evenodd" clip-rule="evenodd" d="M18.6715 10.2669C18.4787 10.1807 18.4463 10.1198 18.5036 9.9094C18.6466 9.38315 18.7939 8.85898 18.9386 8.33357C18.9508 8.29065 18.9618 8.24648 18.9782 8.18357C18.7994 8.21898 18.6323 8.25065 18.4652 8.28648C18.1273 8.35732 17.7915 8.4294 17.4544 8.49982C17.2342 8.54523 17.1334 8.4844 17.0709 8.2694C17.0123 8.06607 16.9545 7.86232 16.8604 7.62982C16.8389 7.66482 16.8233 7.70523 16.7959 7.73482C16.4097 8.16482 16.0222 8.59482 15.6332 9.02482C15.513 9.15565 15.3792 9.21273 15.2847 9.16107C15.1459 9.08357 15.151 8.94649 15.1738 8.81857C15.2763 8.25982 15.3826 7.70232 15.4881 7.14357C15.5653 6.73815 15.6425 6.33482 15.7218 5.91232C15.6817 5.92732 15.6547 5.93482 15.6307 5.94648C15.4121 6.05815 15.1961 6.1719 14.9772 6.28107C14.7089 6.41398 14.5739 6.37023 14.4338 6.11398C14.1372 5.57107 13.8432 5.02732 13.5474 4.48398C13.5322 4.45732 13.5221 4.43065 13.4989 4.39648L13.4504 4.48398C13.1559 5.0276 12.8608 5.57093 12.5649 6.11398C12.4244 6.37023 12.289 6.4144 12.0207 6.28107C11.8017 6.1719 11.5857 6.05815 11.3672 5.94648C11.3431 5.93482 11.3161 5.92732 11.2761 5.91232C11.3554 6.33482 11.4326 6.73815 11.5098 7.14357C11.6153 7.70065 11.722 8.25815 11.8237 8.81857C11.8473 8.9469 11.8519 9.08398 11.7131 9.16107C11.6182 9.21273 11.4849 9.15565 11.3651 9.02482C10.9758 8.59482 10.5881 8.16482 10.202 7.73482C10.1745 7.70523 10.1585 7.66482 10.1374 7.62982C10.0433 7.86273 9.98555 8.06607 9.92691 8.2694C9.86447 8.4844 9.7628 8.54523 9.54342 8.49982L8.53261 8.28648C8.36555 8.25065 8.19848 8.21898 8.01961 8.18357C8.03606 8.24648 8.04661 8.29107 8.05927 8.33357C8.20397 8.85898 8.3512 9.38357 8.49422 9.9094C8.55159 10.1202 8.51911 10.1807 8.32631 10.2669C8.14786 10.3469 7.96983 10.4315 7.78125 10.5186C7.815 10.5486 7.83398 10.5665 7.85508 10.5836L9.20255 11.6648C9.6375 12.014 10.0708 12.3627 10.5061 12.7107C10.6584 12.8319 10.7086 12.9794 10.6458 13.1636C10.6103 13.2719 10.5787 13.3802 10.5458 13.489C10.5061 13.6169 10.4673 13.7457 10.4235 13.8919C10.855 13.8315 11.2626 13.7752 11.673 13.719C12.1544 13.6536 12.6353 13.5865 13.118 13.5265C13.2833 13.5052 13.4061 13.6298 13.3994 13.7919C13.3631 14.6515 13.2791 15.6219 13.2732 16.4361H13.7246C13.7187 15.6219 13.6352 14.6519 13.5989 13.7919C13.5913 13.6298 13.7145 13.5052 13.8799 13.5265C14.3625 13.5865 14.8434 13.6536 15.3248 13.719C15.7353 13.7752 16.1428 13.8319 16.5744 13.8919C16.5305 13.7457 16.4917 13.6169 16.452 13.489C16.4191 13.3798 16.3875 13.2719 16.3521 13.1636C16.2892 12.9794 16.3394 12.8319 16.4917 12.7107C16.9275 12.3627 17.3603 12.014 17.7953 11.6648C18.245 11.3045 18.6942 10.9441 19.1428 10.5836C19.1639 10.5665 19.1828 10.5486 19.2166 10.5186C19.0276 10.4311 18.8504 10.3469 18.6715 10.2669Z" fill="#EC1C24"/>
</g>
<defs>
<clipPath id="clip0_2010_654">
<rect width="27" height="20" fill="white"/>
</clipPath>
</defs>
</svg>
