<svg width="54" height="76" viewBox="0 0 54 76" fill="none" xmlns="http://www.w3.org/2000/svg">
<path d="M14.8496 0.599609H38.5498C46.4281 0.599609 52.7996 6.8929 52.7998 14.6377C52.7998 19.209 50.5826 23.2727 47.1426 25.8379L46.4971 26.3193L47.1426 26.7998C50.5827 29.3651 52.7998 33.4287 52.7998 38C52.7998 45.7449 46.4283 52.0381 38.5498 52.0381C35.3649 52.038 32.4263 51.0091 30.0547 49.2715L29.0996 48.5723V61.3623C29.0994 69.107 22.7277 75.4004 14.8496 75.4004C6.97169 75.4002 0.59984 69.1069 0.599609 61.3623C0.599609 56.7906 2.81798 52.7274 6.25781 50.1621L6.90234 49.6807L6.25781 49.2002C2.81798 46.6349 0.599609 42.5712 0.599609 38C0.599619 33.4287 2.81793 29.3651 6.25781 26.7998L6.90234 26.3193L6.25781 25.8379C2.81792 23.2726 0.599609 19.209 0.599609 14.6377C0.599843 6.89305 6.97169 0.599817 14.8496 0.599609ZM14.8125 52.0381C9.61874 52.0581 5.40039 56.2171 5.40039 61.3623C5.40062 66.5193 9.63899 70.6853 14.8496 70.6855C20.0604 70.6855 24.2996 66.5194 24.2998 61.3623V52.0381H14.8125ZM38.5498 28.6768C33.3452 28.6769 29.1098 32.8326 29.0996 37.9814V38.0186C29.1098 43.1674 33.3452 47.3241 38.5498 47.3242C43.7609 47.3242 48 43.1574 48 38C48 32.8426 43.7609 28.6768 38.5498 28.6768ZM14.8496 28.6768C9.63887 28.677 5.40041 32.8427 5.40039 38C5.40039 43.1451 9.61873 47.3033 14.8125 47.3232H24.2998V28.6768H14.8496ZM14.8496 5.31445C9.639 5.31466 5.40062 9.48057 5.40039 14.6377C5.40039 19.795 9.63886 23.9617 14.8496 23.9619H24.2998V5.31445H14.8496ZM29.0996 23.9619H38.5498C43.7609 23.9619 48 19.7951 48 14.6377C47.9998 9.48047 43.7608 5.31445 38.5498 5.31445H29.0996V23.9619Z" fill="#141618" stroke="#C8BEF6" stroke-width="1.2"/>
</svg>
