<svg width="16" height="16" viewBox="0 0 16 16" fill="none" xmlns="http://www.w3.org/2000/svg">
<path d="M13.8186 0H2.18188C1.60321 0 1.04824 0.229847 0.639058 0.638977C0.229876 1.04811 0 1.60301 0 2.18161L0 13.8168C0 14.3954 0.229876 14.9503 0.639058 15.3595C1.04824 15.7686 1.60321 15.9984 2.18188 15.9984H13.8186C14.3973 15.9984 14.9522 15.7686 15.3614 15.3595C15.7706 14.9503 16.0005 14.3954 16.0005 13.8168V2.18161C16.0005 1.60301 15.7706 1.04811 15.3614 0.638977C14.9522 0.229847 14.3973 0 13.8186 0ZM5.45471 12.6606C5.45483 12.7049 5.44619 12.7489 5.42929 12.7899C5.4124 12.8309 5.38757 12.8682 5.35624 12.8996C5.32491 12.931 5.28769 12.956 5.24671 12.973C5.20573 12.99 5.16179 12.9987 5.11742 12.9987H3.68011C3.63566 12.9989 3.59163 12.9902 3.55055 12.9732C3.50946 12.9563 3.47213 12.9314 3.4407 12.9C3.40927 12.8685 3.38437 12.8312 3.36742 12.7901C3.35046 12.7491 3.3418 12.705 3.34192 12.6606V6.63572C3.34192 6.54603 3.37755 6.46003 3.44097 6.39661C3.50439 6.33319 3.59041 6.29757 3.68011 6.29757H5.11742C5.20696 6.29781 5.29275 6.33354 5.35597 6.39693C5.4192 6.46032 5.45471 6.54619 5.45471 6.63572V12.6606ZM4.39831 5.72672C4.1286 5.72672 3.86495 5.64675 3.64069 5.49692C3.41644 5.3471 3.24165 5.13415 3.13844 4.885C3.03522 4.63585 3.00822 4.3617 3.06084 4.09721C3.11345 3.83271 3.24333 3.58976 3.43405 3.39907C3.62476 3.20838 3.86774 3.07852 4.13227 3.02591C4.3968 2.9733 4.67099 3.0003 4.92017 3.1035C5.16935 3.2067 5.38232 3.38146 5.53217 3.60569C5.68201 3.82992 5.76199 4.09354 5.76199 4.36321C5.76199 4.72484 5.61831 5.07165 5.36258 5.32735C5.10684 5.58306 4.75998 5.72672 4.39831 5.72672ZM12.9677 12.6842C12.9678 12.7251 12.9598 12.7656 12.9442 12.8033C12.9286 12.8411 12.9058 12.8754 12.8769 12.9043C12.848 12.9332 12.8136 12.9561 12.7759 12.9717C12.7381 12.9873 12.6976 12.9952 12.6567 12.9951H11.1112C11.0704 12.9952 11.0299 12.9873 10.9921 12.9717C10.9543 12.9561 10.92 12.9332 10.8911 12.9043C10.8622 12.8754 10.8393 12.8411 10.8237 12.8033C10.8082 12.7656 10.8002 12.7251 10.8003 12.6842V9.86177C10.8003 9.43999 10.924 8.01467 9.69756 8.01467C8.74753 8.01467 8.55389 8.99003 8.5157 9.42817V12.6879C8.51571 12.7695 8.48358 12.8479 8.42625 12.9061C8.36892 12.9643 8.291 12.9975 8.20933 12.9987H6.71656C6.67577 12.9987 6.63539 12.9907 6.59772 12.9751C6.56004 12.9594 6.52583 12.9365 6.49703 12.9076C6.46823 12.8787 6.44541 12.8445 6.42989 12.8068C6.41436 12.769 6.40643 12.7286 6.40655 12.6879V6.60936C6.40643 6.56857 6.41436 6.52817 6.42989 6.49046C6.44541 6.45274 6.46823 6.41847 6.49703 6.38959C6.52583 6.36071 6.56004 6.33779 6.59772 6.32216C6.63539 6.30652 6.67577 6.29848 6.71656 6.29848H8.20933C8.29179 6.29848 8.37088 6.33123 8.42918 6.38953C8.48749 6.44783 8.52025 6.52691 8.52025 6.60936V7.13476C8.87299 6.60481 9.39573 6.19758 10.5112 6.19758C12.9822 6.19758 12.9658 8.50463 12.9658 9.77178L12.9677 12.6842Z" fill="#0B0B35"/>
</svg>
