<svg width="176" height="28" viewBox="0 0 176 28" fill="none" xmlns="http://www.w3.org/2000/svg">
<path d="M55.6846 17.5128L51.4136 4.23032H47.5515L43.2805 17.4673L39.7364 4.23032H35.7835L41.0995 23.4717H45.007L49.4144 9.77984L53.8217 23.4717H57.6838L62.9998 4.23032H59.1832L55.73 17.5128H55.6846Z" fill="#111827"/>
<path d="M55.6846 17.5128L51.4136 4.23032H47.5515L43.2805 17.4673L39.7364 4.23032H35.7835L41.0995 23.4717H45.007L49.4144 9.77984L53.8217 23.4717H57.6838L62.9998 4.23032H59.1832L55.73 17.5128H55.6846Z" fill="#111827"/>
<path d="M69.4518 13.0095V7.41447H72.4506C74.3589 7.41447 75.4948 8.50618 75.4948 10.2347C75.4948 11.9633 74.3135 13.0095 72.4506 13.0095H69.4518ZM72.9049 16.2391C76.7216 16.2391 79.2206 13.7373 79.2206 10.2347C79.2206 6.73216 76.6762 4.23032 72.9049 4.23032H65.4534V23.4717H69.4518V16.2391H72.9049Z" fill="#111827"/>
<path d="M69.4518 13.0095V7.41447H72.4506C74.3589 7.41447 75.4948 8.50618 75.4948 10.2347C75.4948 11.9633 74.3135 13.0095 72.4506 13.0095H69.4518ZM72.9049 16.2391C76.7216 16.2391 79.2206 13.7373 79.2206 10.2347C79.2206 6.73216 76.6762 4.23032 72.9049 4.23032H65.4534V23.4717H69.4518V16.2391H72.9049Z" fill="#111827"/>
<path d="M86.2632 23.4262V15.4203H93.4876V12.2362H86.2632V7.41447H94.26V4.23032H82.2648V23.4717L86.2632 23.4262Z" fill="#111827"/>
<path d="M86.2632 23.4262V15.4203H93.4876V12.2362H86.2632V7.41447H94.26V4.23032H82.2648V23.4717L86.2632 23.4262Z" fill="#111827"/>
<path d="M104.574 23.4262H107.982C107.936 22.9713 107.846 22.0161 107.846 20.9699V9.82535H104.665V17.6038C104.665 19.1503 103.756 20.2421 102.211 20.2421C100.667 20.2421 99.8488 19.0594 99.8488 17.5583V9.82535H95.8504V18.4225C95.8504 21.3792 97.6678 23.7901 100.848 23.7901C104.029 23.7901 103.756 23.2442 104.483 21.9706C104.483 22.5164 104.529 23.1533 104.574 23.4262Z" fill="#111827"/>
<path d="M104.574 23.4262H107.982C107.936 22.9713 107.846 22.0161 107.846 20.9699V9.82535H104.665V17.6038C104.665 19.1503 103.756 20.2421 102.211 20.2421C100.667 20.2421 99.8488 19.0594 99.8488 17.5583V9.82535H95.8504V18.4225C95.8504 21.3792 97.6678 23.7901 100.848 23.7901C104.029 23.7901 103.756 23.2442 104.483 21.9706C104.483 22.5164 104.529 23.1533 104.574 23.4262Z" fill="#111827"/>
<path d="M115.842 15.7388C115.842 14.1922 116.751 12.964 118.25 12.964C119.75 12.964 120.659 14.1467 120.659 15.6478V23.4717H123.839V15.0109C123.839 12.0542 122.294 9.68886 118.932 9.68886C115.57 9.68886 115.842 10.3257 115.024 11.6903V9.82533H111.844V23.4262H115.842V15.6933V15.7388Z" fill="#111827"/>
<path d="M115.842 15.7388C115.842 14.1922 116.751 12.964 118.25 12.964C119.75 12.964 120.659 14.1467 120.659 15.6478V23.4717H123.839V15.0109C123.839 12.0542 122.294 9.68886 118.932 9.68886C115.57 9.68886 115.842 10.3257 115.024 11.6903V9.82533H111.844V23.4262H115.842V15.6933V15.7388Z" fill="#111827"/>
<path d="M131.881 15.7388C131.881 14.1922 132.79 12.964 134.29 12.964C135.789 12.964 136.698 14.1467 136.698 15.6478V23.4717H139.878V15.0109C139.878 12.0542 138.333 9.68886 134.971 9.68886C131.609 9.68886 131.881 10.3257 131.064 11.6903V9.82533H127.883V23.4262H131.881V15.6933V15.7388Z" fill="#111827"/>
<path d="M131.881 15.7388C131.881 14.1922 132.79 12.964 134.29 12.964C135.789 12.964 136.698 14.1467 136.698 15.6478V23.4717H139.878V15.0109C139.878 12.0542 138.333 9.68886 134.971 9.68886C131.609 9.68886 131.881 10.3257 131.064 11.6903V9.82533H127.883V23.4262H131.881V15.6933V15.7388Z" fill="#111827"/>
<path d="M146.421 14.647C146.512 13.4189 147.557 12.0088 149.42 12.0088C151.283 12.0088 152.373 13.3279 152.419 14.647H146.421ZM152.782 18.0586C152.328 19.2413 151.419 20.1056 149.738 20.1056C148.057 20.1056 146.421 18.8319 146.376 17.0579H155.963C155.963 17.0124 156.008 16.4666 156.008 15.9207C156.008 11.5994 153.509 8.96107 149.374 8.96107C145.24 8.96107 142.786 11.7358 142.786 16.0117C142.786 20.2875 146.012 23.1988 149.692 23.1988C153.373 23.1988 155.099 21.2428 155.781 18.9229L152.737 18.0132L152.782 18.0586Z" fill="#111827"/>
<path d="M146.421 14.647C146.512 13.4189 147.557 12.0088 149.42 12.0088C151.283 12.0088 152.373 13.3279 152.419 14.647H146.421ZM152.782 18.0586C152.328 19.2413 151.419 20.1056 149.738 20.1056C148.057 20.1056 146.421 18.8319 146.376 17.0579H155.963C155.963 17.0124 156.008 16.4666 156.008 15.9207C156.008 11.5994 153.509 8.96107 149.374 8.96107C145.24 8.96107 142.786 11.7358 142.786 16.0117C142.786 20.2875 146.012 23.1988 149.692 23.1988C153.373 23.1988 155.099 21.2428 155.781 18.9229L152.737 18.0132L152.782 18.0586Z" fill="#111827"/>
<path d="M162.278 23.4262V3.41157H158.28V23.4262H162.278Z" fill="#111827"/>
<path d="M162.278 23.4262V3.41157H158.28V23.4262H162.278Z" fill="#111827"/>
<path d="M165.186 19.4233C165.368 20.9699 166.731 23.5627 170.775 23.5627C174.819 23.5627 176 21.3338 176 19.1503C176 16.9669 174.682 15.5568 172.002 15.011L170.093 14.6016C169.366 14.4651 168.867 14.0557 168.867 13.4189C168.867 12.7821 169.639 12.0997 170.593 12.0997C172.138 12.0997 172.683 13.1005 172.819 13.9192L175.864 13.2369C175.682 11.7813 174.41 9.37047 170.593 9.37047C166.776 9.37047 165.595 11.3719 165.595 13.7828C165.595 16.1936 166.776 17.2399 169.366 17.7857L171.138 18.1951C172.183 18.4225 172.592 18.9229 172.592 19.5142C172.592 20.1056 172.002 20.8334 170.82 20.8334C169.639 20.8334 168.458 19.8327 168.367 18.7864L165.277 19.4688L165.186 19.4233Z" fill="#111827"/>
<path d="M165.186 19.4233C165.368 20.9699 166.731 23.5627 170.775 23.5627C174.819 23.5627 176 21.3338 176 19.1503C176 16.9669 174.682 15.5568 172.002 15.011L170.093 14.6016C169.366 14.4651 168.867 14.0557 168.867 13.4189C168.867 12.7821 169.639 12.0997 170.593 12.0997C172.138 12.0997 172.683 13.1005 172.819 13.9192L175.864 13.2369C175.682 11.7813 174.41 9.37047 170.593 9.37047C166.776 9.37047 165.595 11.3719 165.595 13.7828C165.595 16.1936 166.776 17.2399 169.366 17.7857L171.138 18.1951C172.183 18.4225 172.592 18.9229 172.592 19.5142C172.592 20.1056 172.002 20.8334 170.82 20.8334C169.639 20.8334 168.458 19.8327 168.367 18.7864L165.277 19.4688L165.186 19.4233Z" fill="#111827"/>
<path d="M29.4678 0.682317C29.1497 0.272927 28.6045 0 28.0138 0H1.84247C1.29723 0 0.842871 0.227434 0.47938 0.591336C0.0704533 1.04621 -0.111296 1.63756 0.0704491 2.27439L1.16093 6.41379H28.6499L29.7404 2.27439C29.8767 1.68305 29.7404 1.1372 29.4223 0.682317H29.4678Z" fill="#6E42D1"/>
<path d="M26.8779 10.4167L25.1513 16.8305H4.70498L3.02383 10.4167H26.8779Z" fill="#EC8034"/>
<path d="M8.61251 25.8825C8.70338 26.2919 8.93057 26.6103 9.24862 26.8378C9.56668 27.0652 9.93017 27.2472 10.3845 27.2472H19.5172C19.9262 27.2472 20.2897 27.1107 20.6077 26.8833C20.9258 26.6558 21.1984 26.2919 21.2893 25.8825L22.6523 20.8334H7.29486L8.61251 25.8825Z" fill="#6E42D1"/>
</svg>
