<svg width="20" height="20" viewBox="0 0 20 20" fill="none" xmlns="http://www.w3.org/2000/svg">
<path d="M17.2727 0H2.72727C2.00396 0 1.31026 0.2873 0.7988 0.798698C0.287337 1.3101 0 2.0037 0 2.72693L0 17.2705C0 17.9938 0.287337 18.6874 0.7988 19.1988C1.31026 19.7102 2.00396 19.9975 2.72727 19.9975H17.2727C17.996 19.9975 18.6897 19.7102 19.2012 19.1988C19.7127 18.6874 20 17.9938 20 17.2705V2.72693C20 2.0037 19.7127 1.3101 19.2012 0.798698C18.6897 0.2873 17.996 0 17.2727 0ZM6.81818 15.8253C6.81833 15.8807 6.80754 15.9357 6.78642 15.9869C6.7653 16.0382 6.73427 16.0848 6.6951 16.1241C6.65594 16.1633 6.60941 16.1945 6.55819 16.2157C6.50697 16.237 6.45205 16.2479 6.39659 16.2479H4.6C4.54444 16.2481 4.48941 16.2373 4.43805 16.2161C4.3867 16.1949 4.34004 16.1638 4.30075 16.1245C4.26147 16.0852 4.23034 16.0385 4.20915 15.9872C4.18795 15.9358 4.17712 15.8808 4.17727 15.8253V8.2944C4.17727 8.1823 4.22181 8.07479 4.30109 7.99553C4.38036 7.91626 4.48789 7.87173 4.6 7.87173H6.39659C6.50851 7.87203 6.61574 7.91669 6.69477 7.99593C6.7738 8.07516 6.81818 8.1825 6.81818 8.2944V15.8253ZM5.49773 7.15818C5.1606 7.15818 4.83104 7.05823 4.55073 6.87095C4.27042 6.68368 4.05195 6.4175 3.92293 6.10607C3.79392 5.79465 3.76016 5.45196 3.82593 5.12136C3.8917 4.79075 4.05405 4.48707 4.29243 4.24871C4.53082 4.01036 4.83454 3.84803 5.16519 3.78227C5.49584 3.71651 5.83856 3.75026 6.15003 3.87926C6.46149 4.00826 6.72771 4.2267 6.91501 4.50698C7.1023 4.78725 7.20227 5.11677 7.20227 5.45385C7.20227 5.90587 7.02269 6.33937 6.70302 6.659C6.38336 6.97862 5.9498 7.15818 5.49773 7.15818ZM16.2091 15.8548C16.2092 15.9059 16.1993 15.9565 16.1798 16.0037C16.1603 16.0509 16.1317 16.0938 16.0956 16.1299C16.0595 16.166 16.0166 16.1946 15.9694 16.2141C15.9221 16.2336 15.8715 16.2435 15.8205 16.2434H13.8886C13.8376 16.2435 13.787 16.2336 13.7397 16.2141C13.6925 16.1946 13.6496 16.166 13.6135 16.1299C13.5774 16.0938 13.5488 16.0509 13.5293 16.0037C13.5098 15.9565 13.4999 15.9059 13.5 15.8548V12.3268C13.5 11.7996 13.6545 10.018 12.1216 10.018C10.9341 10.018 10.692 11.2372 10.6443 11.7849V15.8594C10.6443 15.9614 10.6042 16.0594 10.5325 16.1321C10.4608 16.2048 10.3634 16.2464 10.2614 16.2479H8.39545C8.34447 16.2479 8.29399 16.2379 8.2469 16.2183C8.19981 16.1988 8.15705 16.1702 8.12105 16.1341C8.08505 16.098 8.05653 16.0551 8.03712 16.008C8.01772 15.9608 8.00781 15.9103 8.00795 15.8594V8.26145C8.00781 8.21048 8.01772 8.15997 8.03712 8.11283C8.05653 8.06569 8.08505 8.02285 8.12105 7.98675C8.15705 7.95065 8.19981 7.92201 8.2469 7.90247C8.29399 7.88292 8.34447 7.87287 8.39545 7.87287H10.2614C10.3644 7.87287 10.4633 7.91381 10.5362 7.98668C10.6091 8.05955 10.65 8.15839 10.65 8.26145V8.91819C11.0909 8.25577 11.7443 7.74675 13.1386 7.74675C16.2273 7.74675 16.2068 10.6305 16.2068 12.2144L16.2091 15.8548Z" fill="#AAAAFF"/>
</svg>
