<svg width="33" height="32" viewBox="0 0 33 32" fill="none" xmlns="http://www.w3.org/2000/svg">
<path d="M24.166 32H7.98188C7.31833 32 6.76807 31.4497 6.76807 30.7862C6.76807 30.1226 7.31833 29.5724 7.98188 29.5724H24.166C24.8296 29.5724 25.3798 30.1226 25.3798 30.7862C25.3798 31.4497 24.8296 32 24.166 32Z" fill="#0B0B35"/>
<path d="M29.5876 5.32862L23.1139 9.95728C22.2562 10.5723 21.0262 10.2 20.654 9.21281L17.5952 1.05601C17.0773 -0.352005 15.0866 -0.352005 14.5687 1.05601L11.4937 9.19663C11.1215 10.2 9.90769 10.5723 9.04994 9.9411L2.57629 5.31244C1.28156 4.40613 -0.433961 5.68467 0.100115 7.1898L6.83271 26.0443C7.05929 26.6917 7.67429 27.1125 8.35402 27.1125H23.7775C24.4572 27.1125 25.0722 26.6755 25.2988 26.0443L32.0314 7.1898C32.5817 5.68467 30.8661 4.40613 29.5876 5.32862ZM20.1199 20.2666H12.0278C11.3643 20.2666 10.814 19.7163 10.814 19.0528C10.814 18.3892 11.3643 17.839 12.0278 17.839H20.1199C20.7834 17.839 21.3337 18.3892 21.3337 19.0528C21.3337 19.7163 20.7834 20.2666 20.1199 20.2666Z" fill="#0B0B35"/>
</svg>
