<svg width="79" height="79" viewBox="0 0 79 79" fill="none" xmlns="http://www.w3.org/2000/svg">
<path d="M0 19.7329C0 8.84367 8.84859 0 19.7477 0H59.2493C70.1515 0 79 8.84059 79 19.7329V59.1957C79 70.088 70.1515 78.9286 59.2493 78.9286H19.7477C8.84859 78.9317 0 70.088 0 59.1988V19.7329Z" fill="#FFDD33"/>
<path fill-rule="evenodd" clip-rule="evenodd" d="M52.5159 15.0573H45.3514L51.3305 25.5467L38.1839 15.0573H31.0194L37.5927 27.8691L23.8549 15.0573H16.6905L23.8549 31.3789L16.6905 64.019H23.8549L37.5927 29.0565L31.0194 64.019H38.1839L51.3305 26.7156L45.3514 64.019H52.5159L65.6625 23.2243L52.5159 15.0727V15.0573Z" fill="#1C1C1E"/>
</svg>
