<svg width="20" height="20" viewBox="0 0 20 20" fill="none" xmlns="http://www.w3.org/2000/svg">
<path fill-rule="evenodd" clip-rule="evenodd" d="M9.99998 0C11.8625 0.0212537 13.5451 0.479006 15.0478 1.37326C16.5326 2.24965 17.7677 3.49231 18.635 4.9824C19.5238 6.49414 19.9788 8.18694 20 10.0608C19.9472 12.6247 19.1385 14.8145 17.574 16.6303C16.0094 18.446 14.0056 19.5693 11.9312 19.9999V12.8116H13.8924L14.3359 9.98673H11.3663V8.13652C11.3498 7.75296 11.4711 7.37616 11.7082 7.07425C11.9457 6.77151 12.3639 6.61239 12.9628 6.5969H14.7561V4.12238C14.7304 4.11411 14.4862 4.08137 14.0236 4.02418C13.499 3.9628 12.9715 3.93001 12.4433 3.92597C11.2479 3.93148 10.3025 4.26868 9.60713 4.93757C8.91171 5.60626 8.55647 6.57372 8.54141 7.83994V9.98673H6.28152V12.8116H8.54141V19.9999C5.9944 19.5693 3.99056 18.446 2.426 16.6303C0.861429 14.8145 0.0527926 12.6247 0 10.0608C0.0211219 8.18686 0.476107 6.49406 1.36496 4.9824C2.2323 3.49231 3.46741 2.24966 4.95219 1.37326C6.45484 0.479178 8.13743 0.0214259 9.99998 0Z" fill="#3433FE"/>
</svg>
