<svg width="28" height="28" viewBox="0 0 28 28" fill="none" xmlns="http://www.w3.org/2000/svg">
<path d="M4.86841 4.52061C4.29812 4.52061 3.8252 4.04769 3.8252 3.47739V1.04322C3.8252 0.472925 4.29812 0 4.86841 0C5.43871 0 5.91163 0.472925 5.91163 1.04322V3.47739C5.91163 4.0616 5.43871 4.52061 4.86841 4.52061Z" fill="white"/>
<path d="M10.4321 4.52061C9.86184 4.52061 9.38892 4.04769 9.38892 3.47739V1.04322C9.38892 0.472925 9.86184 0 10.4321 0C11.0024 0 11.4754 0.472925 11.4754 1.04322V3.47739C11.4754 4.0616 11.0024 4.52061 10.4321 4.52061Z" fill="white"/>
<path d="M15.9961 4.52061C15.4258 4.52061 14.9529 4.04769 14.9529 3.47739V1.04322C14.9529 0.472925 15.4258 0 15.9961 0C16.5664 0 17.0393 0.472925 17.0393 1.04322V3.47739C17.0393 4.0616 16.5664 4.52061 15.9961 4.52061Z" fill="white"/>
<path d="M27.4714 15.8292C27.4714 12.1849 24.6478 9.2361 21.0869 8.93009C20.0576 7.24703 18.2215 6.10645 16.1073 6.10645H5.85593C2.62891 6.10645 0 8.73536 0 11.9624V12.6996H21.9632V11.9624C21.9632 11.6981 21.9215 11.4338 21.8798 11.1834C23.8967 11.7816 25.385 13.6176 25.385 15.8292C25.385 18.013 23.9384 19.8352 21.9632 20.4472V14.0905H0V22.1442C0 25.3712 2.62891 28.0001 5.85593 28.0001H16.1073C19.1674 28.0001 21.6572 25.6355 21.9076 22.631C25.079 21.9912 27.4714 19.1814 27.4714 15.8292Z" fill="white"/>
</svg>
