<svg width="28" height="30" viewBox="0 0 28 30" fill="none" xmlns="http://www.w3.org/2000/svg">
<path d="M26.2633 12.9476L19.1491 9.93287L17.5647 9.27293C17.321 9.15294 17.1077 8.83797 17.1077 8.56799V3.9784C17.1077 2.53853 16.0261 0.828677 14.716 0.168735C14.259 -0.056245 13.7106 -0.056245 13.2535 0.168735C11.9587 0.828677 10.877 2.55352 10.877 3.9934V8.58299C10.877 8.85296 10.6638 9.16794 10.42 9.28793L1.73667 12.9626C0.776932 13.3526 0 14.5375 0 15.5574V17.5372C0 18.8121 0.974972 19.442 2.17845 18.9321L9.81066 15.6924C10.4048 15.4374 10.8923 15.7524 10.8923 16.3973V18.0621V20.7619C10.8923 21.1069 10.6942 21.6018 10.4505 21.8418L6.91621 25.3365C6.5506 25.6965 6.38303 26.4014 6.5506 26.9114L7.23613 28.9512C7.51034 29.8361 8.53101 30.2561 9.36888 29.8361L12.9946 26.8364C13.543 26.3714 14.4418 26.3714 14.9902 26.8364L18.6159 29.8361C19.4538 30.2411 20.4744 29.8361 20.7791 28.9512L21.4646 26.9114C21.6322 26.4164 21.4646 25.6965 21.099 25.3365L17.5647 21.8418C17.3058 21.6018 17.1077 21.1069 17.1077 20.7619V16.3973C17.1077 15.7524 17.58 15.4524 18.1893 15.6924L25.8215 18.9321C27.025 19.442 28 18.8121 28 17.5372V15.5574C28 14.5375 27.2231 13.3526 26.2633 12.9476Z" fill="white"/>
</svg>
