<svg width="18" height="18" viewBox="0 0 18 18" fill="none" xmlns="http://www.w3.org/2000/svg">
<path d="M8.99993 11.1531C10.0437 11.1531 10.8899 10.3069 10.8899 9.26313C10.8899 8.21933 10.0437 7.37316 8.99993 7.37316C7.95613 7.37316 7.10996 8.21933 7.10996 9.26313C7.10996 10.3069 7.95613 11.1531 8.99993 11.1531Z" fill="#0B0B35"/>
<path d="M8.99987 0C4.02939 0 0 4.02888 0 8.99873C0 13.9686 4.02939 17.9975 8.99987 17.9975C13.9704 17.9975 17.9997 13.9686 17.9997 8.99873C17.9997 4.02888 13.9704 0 8.99987 0ZM14.5603 11.2858C14.5171 12.1414 14.2766 12.985 13.6531 13.6019C13.0235 14.2246 12.1757 14.4566 11.3119 14.4994H6.68791C5.82392 14.4566 4.97628 14.2247 4.34668 13.6019C3.7231 12.985 3.4827 12.1414 3.4395 11.2858V6.71161C3.4827 5.85608 3.72314 5.01244 4.34668 4.39555C4.97628 3.77284 5.82403 3.54082 6.68791 3.49809H11.3118C12.1758 3.54082 13.0235 3.77273 13.6531 4.39555C14.2766 5.01244 14.517 5.85608 14.5602 6.71161L14.5603 11.2858Z" fill="#0B0B35"/>
<path d="M11.2524 4.63061C10.1261 4.59972 7.87183 4.59972 6.74555 4.63061C6.15944 4.6467 5.495 4.79258 5.07741 5.23856C4.64347 5.70214 4.47949 6.26222 4.46286 6.88878C4.43363 7.9885 4.46286 11.2892 4.46286 11.2892C4.4819 11.9157 4.64347 12.4759 5.07741 12.9395C5.495 13.3856 6.15944 13.5313 6.74555 13.5474C7.87183 13.5783 10.1261 13.5783 11.2524 13.5474C11.8385 13.5313 12.5029 13.3854 12.9205 12.9395C13.3545 12.4759 13.5185 11.9158 13.5351 11.2892V6.88878C13.5185 6.26222 13.3545 5.70214 12.9205 5.23856C12.5028 4.79244 11.8384 4.6467 11.2524 4.63061ZM8.99883 12.0181C8.41944 12.0181 7.85306 11.8463 7.37131 11.5245C6.88956 11.2026 6.51409 10.7451 6.29236 10.2099C6.07064 9.6747 6.01263 9.08576 6.12566 8.51757C6.23869 7.94938 6.5177 7.42747 6.92739 7.01783C7.33708 6.60819 7.85906 6.32922 8.42732 6.2162C8.99558 6.10318 9.58459 6.16119 10.1199 6.38289C10.6552 6.60458 11.1127 6.98001 11.4346 7.46169C11.7565 7.94338 11.9283 8.50969 11.9283 9.08901C11.9283 9.86585 11.6196 10.6109 11.0703 11.1602C10.5209 11.7095 9.77577 12.0181 8.99883 12.0181ZM11.9407 6.76453C11.8249 6.7645 11.7116 6.73012 11.6153 6.66573C11.5189 6.60134 11.4439 6.50984 11.3996 6.40279C11.3552 6.29575 11.3436 6.17796 11.3663 6.06434C11.3889 5.95071 11.4447 5.84634 11.5266 5.76442C11.6086 5.68251 11.713 5.62673 11.8266 5.60414C11.9403 5.58155 12.0581 5.59316 12.1651 5.6375C12.2722 5.68184 12.3637 5.75693 12.428 5.85326C12.4924 5.9496 12.5268 6.06285 12.5268 6.17871C12.5268 6.25565 12.5116 6.33184 12.4822 6.40293C12.4527 6.47401 12.4095 6.5386 12.3551 6.593C12.3007 6.6474 12.2361 6.69054 12.165 6.71998C12.0939 6.74941 12.0177 6.76455 11.9407 6.76453Z" fill="#0B0B35"/>
</svg>
