<svg width="104" height="23" viewBox="0 0 104 23" fill="none" xmlns="http://www.w3.org/2000/svg">
<path d="M18.7654 19.6892V2.28493C18.7654 1.06005 19.7709 0.0545563 21.0141 0.0545563H21.0689C22.3121 0.0545563 23.2993 1.06005 23.2993 2.28493V19.6892C23.2993 20.9141 22.3121 21.9196 21.0689 21.9196H21.0141C19.7709 21.9196 18.7654 20.9141 18.7654 19.6892Z" fill="#0B0B35"/>
<path d="M47.8961 21.9194C46.653 21.9194 45.6475 20.9139 45.6475 19.689V11.2429C45.6475 10.3471 45.4829 9.48781 45.1539 8.7017C44.8065 7.8973 44.3495 7.18431 43.7644 6.58101C43.1794 5.99599 42.4664 5.52067 41.6803 5.17331C40.8759 4.84424 39.9984 4.67971 39.0843 4.67971C38.1702 4.67971 37.311 4.84424 36.5249 5.17331C35.7205 5.52067 35.0258 5.99599 34.4407 6.58101C33.8557 7.18431 33.3804 7.8973 33.033 8.7017C32.6674 9.48781 32.5029 10.3471 32.5029 11.2429V19.689C32.5029 20.9139 31.4974 21.9194 30.2542 21.9194H30.2359C29.0111 21.9194 28.0056 20.9139 28.0056 19.689V11.2429C28.0056 9.72548 28.2981 8.26293 28.8831 6.91008C29.4498 5.55723 30.2542 4.35063 31.2597 3.36342C32.2652 2.3762 33.4352 1.59009 34.7698 1.00507C36.1044 0.420053 37.5486 0.127544 39.0843 0.127544C40.6017 0.127544 42.0642 0.420053 43.3988 1.00507C44.7517 1.59009 45.94 2.3762 46.9272 3.36342C47.9327 4.35063 48.7371 5.55723 49.3221 6.91008C49.9071 8.26293 50.1996 9.72548 50.1996 11.2429V19.689C50.1996 20.9139 49.1941 21.9194 47.951 21.9194H47.8961Z" fill="#0B0B35"/>
<path d="M74.7968 21.9194C73.5536 21.9194 72.5664 20.9139 72.5664 19.689V11.2429C72.5664 10.3471 72.3836 9.48781 72.0545 8.7017C71.7072 7.8973 71.2501 7.18431 70.6651 6.58101C70.0801 5.99599 69.3671 5.52067 68.581 5.17331C67.7766 4.84424 66.8991 4.67971 65.985 4.67971C65.0892 4.67971 64.2299 4.84424 63.4255 5.17331C62.6211 5.52067 61.9264 5.99599 61.3414 6.58101C60.7564 7.18431 60.2811 7.8973 59.9337 8.7017C59.5864 9.48781 59.4036 10.3471 59.4036 11.2429V19.689C59.4036 20.9139 58.398 21.9194 57.1549 21.9194H57.1366C55.9117 21.9194 54.9062 20.9139 54.9062 19.689V11.2429C54.9062 9.72548 55.1987 8.26293 55.7838 6.91008C56.3505 5.55723 57.1549 4.35063 58.1604 3.36342C59.1659 2.3762 60.3542 1.59009 61.6705 1.00507C63.0051 0.420053 64.4493 0.127544 65.985 0.127544C67.5024 0.127544 68.9649 0.420053 70.2995 1.00507C71.6523 1.59009 72.8407 2.3762 73.8462 3.36342C74.8334 4.35063 75.6378 5.55723 76.2228 6.91008C76.8078 8.26293 77.1003 9.72548 77.1003 11.2429V19.689C77.1003 20.9139 76.0948 21.9194 74.8516 21.9194H74.7968Z" fill="#0B0B35"/>
<path fill-rule="evenodd" clip-rule="evenodd" d="M92.8847 22.3216C91.3673 22.3216 89.9047 22.0291 88.5702 21.4441C87.2539 20.8774 86.0656 20.073 85.0784 19.0857C84.0729 18.0985 83.2685 16.9102 82.6834 15.5756C82.0984 14.2411 81.8059 12.7785 81.8059 11.2429C81.8059 9.72548 82.0984 8.26293 82.6834 6.91008C83.2685 5.55723 84.0729 4.35063 85.0784 3.36342C86.0656 2.3762 87.2539 1.59009 88.5702 1.00507C89.9047 0.420053 91.3673 0.127544 92.8847 0.127544C94.4203 0.127544 95.8646 0.420053 97.2174 1.00507C98.552 1.59009 99.7403 2.3762 100.746 3.36342C101.751 4.35063 102.556 5.55723 103.141 6.91008C103.707 8.26293 104 9.72548 104 11.2429C104 12.7785 103.707 14.2228 103.122 15.5756C102.556 16.9102 101.751 18.0985 100.746 19.0857C99.7403 20.073 98.552 20.8774 97.2174 21.4441C95.8646 22.0291 94.4203 22.3216 92.8847 22.3216ZM92.8847 4.67971C91.9889 4.67971 91.1296 4.84424 90.3252 5.17331C89.5391 5.52067 88.8261 5.99599 88.2228 6.58101C87.6195 7.18431 87.1625 7.8973 86.8151 8.7017C86.4861 9.48781 86.3032 10.3471 86.3032 11.2429C86.3032 12.157 86.4861 13.0162 86.8151 13.8023C87.1442 14.6067 87.6195 15.3014 88.2228 15.8864C88.8261 16.4714 89.5391 16.9468 90.3435 17.2941C91.1296 17.6598 91.9889 17.8243 92.8847 17.8243C93.7805 17.8243 94.6397 17.6598 95.4441 17.3124C96.2485 16.9468 96.9615 16.4714 97.5465 15.8864C98.1498 15.3014 98.6251 14.6067 98.9542 13.8023C99.3016 13.0162 99.4661 12.157 99.4661 11.2429C99.4661 10.3471 99.3016 9.48781 98.9542 8.7017C98.6251 7.8973 98.1498 7.18431 97.5465 6.58101C96.9432 5.99599 96.2485 5.52067 95.4441 5.17331C94.6397 4.84424 93.7805 4.67971 92.8847 4.67971Z" fill="#0B0B35"/>
<path d="M8.61071 21.9198C2.65085 21.9198 0 19.6163 0 14.4609V2.23038C0 1.0055 1.00549 0 2.24866 0H2.32178C3.54666 0 4.55216 1.0055 4.55216 2.23038V14.4609C4.55216 16.6913 5.13717 17.4408 8.61071 17.4408H11.81C13.0532 17.4408 14.0587 18.428 14.0587 19.6712C14.0587 20.9143 13.0532 21.9198 11.81 21.9198H8.61071Z" fill="#0B0B35"/>
</svg>
