<svg width="32" height="32" viewBox="0 0 32 32" fill="none" xmlns="http://www.w3.org/2000/svg">
<path d="M27.3907 20.7031L27.9027 21.743C28.1587 22.255 28.8147 22.735 29.3586 22.831L30.0466 22.943C32.1425 23.2949 32.6225 24.8309 31.1346 26.3348L30.4946 26.9748C30.0626 27.4068 29.8386 28.2387 29.9666 28.8467L30.0466 29.2307C30.6226 31.7586 29.2786 32.7345 27.0867 31.4066L26.6228 31.1186C26.0628 30.7826 25.1348 30.7826 24.5748 31.1186L24.1109 31.4066C21.903 32.7345 20.575 31.7586 21.151 29.2307L21.231 28.8467C21.359 28.2547 21.135 27.4068 20.703 26.9748L20.063 26.3348C18.5751 24.8149 19.0551 23.2949 21.151 22.943L21.839 22.831C22.3989 22.735 23.0389 22.255 23.2949 21.743L23.8069 20.7031C24.7988 18.7031 26.3988 18.7031 27.3907 20.7031Z" fill="#0B0B35"/>
<path d="M22.703 0H9.2956C3.47185 0 0 3.47185 0 9.2956V22.703C0 28.5268 3.47185 31.9986 9.2956 31.9986H17.7432C18.3032 31.9986 18.7032 31.4226 18.6392 30.8627C18.5752 30.2547 18.6072 29.5347 18.7992 28.7027C18.8312 28.5908 18.7992 28.4628 18.7032 28.3668L18.3512 28.0148C16.9913 26.6388 16.4953 24.9749 16.9753 23.455C17.4712 21.951 18.8472 20.8951 20.7511 20.5751L21.2311 20.4951L21.6631 19.6311C22.543 17.8392 23.983 16.7993 25.5989 16.7993C27.2148 16.7993 28.6548 17.8392 29.5347 19.6311L29.7747 20.1271C29.8867 20.3671 30.1107 20.5271 30.3667 20.5751C30.5107 20.6071 30.6547 20.6391 30.7987 20.6711C31.3586 20.8151 31.9986 20.3671 31.9986 19.7751V9.2956C31.9986 3.47185 28.5268 0 22.703 0ZM22.815 11.1355L19.1192 15.9033C18.6552 16.4953 17.9992 16.8793 17.2472 16.9593C16.5113 17.0553 15.7593 16.8473 15.1833 16.3833L12.2555 14.1114C12.1435 14.0154 12.0155 14.0154 11.9515 14.0314C11.8875 14.0314 11.7755 14.0634 11.6795 14.1914L7.87166 19.1352C7.63167 19.4392 7.27968 19.5991 6.9117 19.5991C6.65571 19.5991 6.39972 19.5191 6.17573 19.3432C5.64775 18.9432 5.55176 18.1912 5.95174 17.6632L9.75957 12.7194C10.2236 12.1275 10.8795 11.7435 11.6315 11.6475C12.3835 11.5515 13.1194 11.7595 13.7114 12.2235L16.6393 14.5274C16.7513 14.6234 16.8633 14.6074 16.9433 14.6074C17.0073 14.6074 17.1193 14.5754 17.2153 14.4474L20.9111 9.67958C21.3111 9.1516 22.063 9.05561 22.591 9.47159C23.135 9.87157 23.215 10.6235 22.815 11.1355Z" fill="#0B0B35"/>
</svg>
