<svg width="84" height="76" viewBox="0 0 84 76" fill="none" xmlns="http://www.w3.org/2000/svg">
<path fill-rule="evenodd" clip-rule="evenodd" d="M72.1011 6.27475L84 19.8708L42 76L0 19.8708L11.8999 6.27538L26.9501 0H57.0489L72.1011 6.27475ZM29.4 54.5918L18.1999 34.4423L9.37989 27.8882L29.4 54.5918ZM62.2311 34.8603H21.63L41.9289 71.3276L62.2311 34.8603ZM54.4611 54.5918L65.6589 34.4423L74.4789 27.8882L54.4611 54.5918ZM18.8289 31.4444L3.49892 20.0095L12.809 9.34167L26.039 15.6864L18.8289 31.4444ZM28.6291 16.7324L21.629 32.0704H62.2301L55.229 16.7324H28.6291ZM65.027 31.4444L80.357 20.0095L71.0491 9.34167L57.8191 15.6864L65.027 31.4444ZM55.2281 13.9435H28.6282L15.7481 7.66808L27.438 2.7873L56.417 2.7874L68.1091 7.66818L55.2281 13.9435Z" fill="#111418"/>
</svg>
