<svg width="34" height="32" viewBox="0 0 34 32" fill="none" xmlns="http://www.w3.org/2000/svg">
<path d="M4.42383 21.7939C6.51995 24.1984 9.93306 25.6621 13.7051 25.6621C17.3749 25.662 20.7039 24.2907 22.7891 22.0137L27.1172 25.9766C23.7483 29.6554 18.7478 31.5302 13.7051 31.5303C8.50042 31.5303 3.37289 29.5186 0 25.6494L4.42383 21.7939ZM12.2266 0.131836C14.18 -0.152405 16.0269 0.0233743 17.7666 0.658203C19.5063 1.29302 20.7017 2.05522 21.8418 3.43359L17.1074 7.7998C16.6592 7.19585 16.0795 6.75244 15.3691 6.46973C14.6569 6.17441 13.9034 6.08467 13.1094 6.2002C11.8873 6.37812 10.9324 6.93492 10.2451 7.87109C9.55595 8.79493 9.29973 9.86852 9.47754 11.0908C9.65542 12.3132 10.207 13.2688 11.1309 13.958C12.0548 14.6472 13.1281 14.9035 14.3506 14.7256C15.1445 14.61 15.8421 14.3152 16.4424 13.8418C16.5729 13.7358 16.7305 13.6243 16.8994 13.5078L18.4443 12.0928C18.4498 12.0797 18.4552 12.0659 18.46 12.0527L18.4775 12.0615L24.5859 6.46582L34 6.2334L21.9824 17.3428C21.7154 17.6149 21.4321 17.876 21.1348 18.127L21.04 18.2139L21.0332 18.2119C20.82 18.3885 20.5997 18.5599 20.374 18.7275C18.8874 19.8318 17.1897 20.5283 15.2363 20.8125C13.2198 21.1059 11.3272 20.9239 9.55859 20.2676C7.80088 19.5968 6.34746 18.5409 5.19824 17.0996C4.049 15.6582 3.33322 13.9671 3.05078 12.0264C2.76837 10.0857 2.97238 8.26084 3.66309 6.55176C4.35383 4.84269 5.44691 3.42231 6.94238 2.29102C8.44869 1.14529 10.2102 0.425263 12.2266 0.131836Z" fill="#6E42D3"/>
</svg>
