<svg width="27" height="28" viewBox="0 0 27 28" fill="none" xmlns="http://www.w3.org/2000/svg">
<path d="M19.9416 19.0946C20.8793 18.4788 22.111 19.1506 22.111 20.2703V22.0759C22.111 23.8535 20.7254 25.757 19.0598 26.3168L14.5949 27.8005C13.8111 28.0664 12.5374 28.0664 11.7676 27.8005L7.30271 26.3168C5.62312 25.757 4.25146 23.8535 4.25146 22.0759V20.2564C4.25146 19.1506 5.48316 18.4788 6.40693 19.0806L9.29021 20.9562C10.3959 21.698 11.7956 22.0619 13.1952 22.0619C14.5949 22.0619 15.9945 21.698 17.1003 20.9562L19.9416 19.0946Z" fill="white"/>
<path d="M24.3504 6.24595L15.9665 0.745315C14.4549 -0.248438 11.9635 -0.248438 10.4519 0.745315L2.026 6.24595C-0.675332 7.99551 -0.675332 11.9565 2.026 13.7201L4.26544 15.1757L10.4519 19.2067C11.9635 20.2005 14.4549 20.2005 15.9665 19.2067L22.111 15.1757L24.0285 13.916V18.199C24.0285 18.7728 24.5044 19.2487 25.0783 19.2487C25.6521 19.2487 26.128 18.7728 26.128 18.199V11.3127C26.6879 9.50713 26.114 7.40766 24.3504 6.24595Z" fill="white"/>
</svg>
