<svg width="18" height="18" viewBox="0 0 18 18" fill="none" xmlns="http://www.w3.org/2000/svg">
<path d="M13.7576 1.63965V3.88965H16.0076M9.55762 8.08965L16.0076 1.63965" stroke="#21F0A8" stroke-width="1.5" stroke-linecap="round" stroke-linejoin="round"/>
<path d="M8.50684 10.6396C9.33526 10.6396 10.0068 9.96808 10.0068 9.13965C10.0068 8.31122 9.33526 7.63965 8.50684 7.63965C7.67841 7.63965 7.00684 8.31122 7.00684 9.13965C7.00684 9.96808 7.67841 10.6396 8.50684 10.6396Z" fill="#21F0A8" stroke="#21F0A8" stroke-width="1.5" stroke-linecap="round" stroke-linejoin="round"/>
<path d="M8.73184 4.63965H8.50684C7.61682 4.63965 6.74679 4.90357 6.00677 5.39804C5.26675 5.8925 4.68997 6.59531 4.34938 7.41757C4.00879 8.23984 3.91967 9.14464 4.0933 10.0176C4.26694 10.8905 4.69552 11.6923 5.32486 12.3216C5.95419 12.951 6.75602 13.3795 7.62893 13.5532C8.50185 13.7268 9.40665 13.6377 10.2289 13.2971C11.0512 12.9565 11.754 12.3797 12.2485 11.6397C12.7429 10.8997 13.0068 10.0297 13.0068 9.13965V8.91465" stroke="#3433FE" stroke-width="1.5" stroke-linecap="round" stroke-linejoin="round"/>
<path d="M10.7572 2.01475C9.16724 1.51562 7.4558 1.56418 5.89668 2.15266C4.33757 2.74114 3.02087 3.83554 2.15724 5.26078C1.2936 6.68601 0.93294 8.35972 1.13294 10.0142C1.33294 11.6686 2.08206 13.2081 3.26044 14.3865C4.43882 15.5649 5.97837 16.314 7.6328 16.514C9.28724 16.714 10.961 16.3534 12.3862 15.4897C13.8114 14.6261 14.9058 13.3094 15.4943 11.7503C16.0828 10.1912 16.1313 8.47972 15.6322 6.88975M3.48222 14.6897L2.50722 16.6397M13.5322 14.6897L14.5072 16.6397" stroke="#3433FE" stroke-width="1.5" stroke-linecap="round" stroke-linejoin="round"/>
</svg>
