<svg width="78" height="78" viewBox="0 0 78 78" fill="none" xmlns="http://www.w3.org/2000/svg">
<rect width="78" height="78" rx="8" fill="#F7DF1E"/>
<path d="M20.1 58.9L25.5 55.9C26.4 57.5 27.2 58.9 29.1 58.9C30.9 58.9 32 58.2 32 56.1V36.5H38V56.2C38 61.8 34.7 64.5 29.4 64.5C24.8 64.5 22.1 62.2 20.1 58.9ZM42.1 58.3L47.5 55.5C48.8 57.5 50.5 58.9 53.2 58.9C55.5 58.9 56.9 57.8 56.9 56.2C56.9 54.3 55.4 53.6 52.9 52.5L51.4 51.8C47.4 50.1 44.9 47.9 44.9 43.8C44.9 40.1 47.7 37.3 52.9 37.3C56.6 37.3 59.2 38.6 61 42.1L55.9 45.2C54.9 43.4 53.8 42.8 52.9 42.8C51.9 42.8 51.3 43.5 51.3 44.5C51.3 46.2 52.8 46.8 55.1 47.8L56.6 48.5C61.4 50.5 63.9 52.6 63.9 56.8C63.9 61.4 60.4 64.5 53.4 64.5C46.7 64.5 42.9 61.6 42.1 58.3Z" fill="#323330"/>
</svg>