<svg width="176" height="32" viewBox="0 0 176 32" fill="none" xmlns="http://www.w3.org/2000/svg">
<path d="M68.7827 26.7726V4.87974C68.7827 3.33897 70.0476 2.07415 71.6113 2.07415H71.6803C73.2441 2.07415 74.4859 3.33897 74.4859 4.87974V26.7726C74.4859 28.3133 73.2441 29.5782 71.6803 29.5782H71.6113C70.0476 29.5782 68.7827 28.3133 68.7827 26.7726Z" fill="#0B0B35"/>
<path d="M105.427 29.5781C103.863 29.5781 102.598 28.3133 102.598 26.7725V16.148C102.598 15.0212 102.391 13.9403 101.977 12.9515C101.54 11.9396 100.965 11.0428 100.229 10.2839C99.4934 9.54799 98.5965 8.95007 97.6077 8.51313C96.5958 8.09919 95.492 7.89223 94.3421 7.89223C93.1923 7.89223 92.1115 8.09919 91.1226 8.51313C90.1108 8.95007 89.2369 9.54799 88.501 10.2839C87.7651 11.0428 87.1672 11.9396 86.7302 12.9515C86.2703 13.9403 86.0633 15.0212 86.0633 16.148V26.7725C86.0633 28.3133 84.7985 29.5781 83.2348 29.5781H83.2118C81.671 29.5781 80.4062 28.3133 80.4062 26.7725V16.148C80.4062 14.2393 80.7741 12.3996 81.51 10.6978C82.2229 8.99606 83.2348 7.47829 84.4996 6.23647C85.7644 4.99465 87.2362 4.00579 88.9149 3.2699C90.5937 2.53401 92.4104 2.16606 94.3421 2.16606C96.2509 2.16606 98.0906 2.53401 99.7693 3.2699C101.471 4.00579 102.966 4.99465 104.208 6.23647C105.473 7.47829 106.484 8.99606 107.22 10.6978C107.956 12.3996 108.324 14.2393 108.324 16.148V26.7725C108.324 28.3133 107.059 29.5781 105.496 29.5781H105.427Z" fill="#0B0B35"/>
<path d="M139.264 29.5781C137.701 29.5781 136.459 28.3133 136.459 26.7725V16.148C136.459 15.0212 136.229 13.9403 135.815 12.9515C135.378 11.9396 134.803 11.0428 134.067 10.2839C133.331 9.54799 132.434 8.95007 131.446 8.51313C130.434 8.09919 129.33 7.89223 128.18 7.89223C127.053 7.89223 125.972 8.09919 124.961 8.51313C123.949 8.95007 123.075 9.54799 122.339 10.2839C121.603 11.0428 121.005 11.9396 120.568 12.9515C120.131 13.9403 119.901 15.0212 119.901 16.148V26.7725C119.901 28.3133 118.636 29.5781 117.073 29.5781H117.05C115.509 29.5781 114.244 28.3133 114.244 26.7725V16.148C114.244 14.2393 114.612 12.3996 115.348 10.6978C116.061 8.99606 117.073 7.47829 118.338 6.23647C119.602 4.99465 121.097 4.00579 122.753 3.2699C124.432 2.53401 126.248 2.16606 128.18 2.16606C130.089 2.16606 131.929 2.53401 133.607 3.2699C135.309 4.00579 136.804 4.99465 138.069 6.23647C139.31 7.47829 140.322 8.99606 141.058 10.6978C141.794 12.3996 142.162 14.2393 142.162 16.148V26.7725C142.162 28.3133 140.897 29.5781 139.333 29.5781H139.264Z" fill="#0B0B35"/>
<path fill-rule="evenodd" clip-rule="evenodd" d="M162.018 30.084C160.109 30.084 158.27 29.7161 156.591 28.9802C154.935 28.2673 153.44 27.2554 152.199 26.0136C150.934 24.7718 149.922 23.277 149.186 21.5982C148.45 19.9195 148.082 18.0797 148.082 16.148C148.082 14.2393 148.45 12.3996 149.186 10.6978C149.922 8.99606 150.934 7.47829 152.199 6.23647C153.44 4.99465 154.935 4.00579 156.591 3.2699C158.27 2.53401 160.109 2.16606 162.018 2.16606C163.95 2.16606 165.767 2.53401 167.468 3.2699C169.147 4.00579 170.642 4.99465 171.907 6.23647C173.171 7.47829 174.183 8.99606 174.919 10.6978C175.632 12.3996 176 14.2393 176 16.148C176 18.0797 175.632 19.8965 174.896 21.5982C174.183 23.277 173.171 24.7718 171.907 26.0136C170.642 27.2554 169.147 28.2673 167.468 28.9802C165.767 29.7161 163.95 30.084 162.018 30.084ZM162.018 7.89223C160.891 7.89223 159.81 8.09919 158.799 8.51313C157.81 8.95007 156.913 9.54799 156.154 10.2839C155.395 11.0428 154.82 11.9396 154.383 12.9515C153.969 13.9403 153.739 15.0212 153.739 16.148C153.739 17.2979 153.969 18.3787 154.383 19.3676C154.797 20.3794 155.395 21.2533 156.154 21.9892C156.913 22.7251 157.81 23.323 158.822 23.7599C159.81 24.2199 160.891 24.4268 162.018 24.4268C163.145 24.4268 164.226 24.2199 165.238 23.7829C166.249 23.323 167.146 22.7251 167.882 21.9892C168.641 21.2533 169.239 20.3794 169.653 19.3676C170.09 18.3787 170.297 17.2979 170.297 16.148C170.297 15.0212 170.09 13.9403 169.653 12.9515C169.239 11.9396 168.641 11.0428 167.882 10.2839C167.123 9.54799 166.249 8.95007 165.238 8.51313C164.226 8.09919 163.145 7.89223 162.018 7.89223Z" fill="#0B0B35"/>
<path d="M56.0096 29.5786C48.5127 29.5786 45.1782 26.681 45.1782 20.196V4.8112C45.1782 3.27042 46.443 2.0056 48.0067 2.0056H48.0987C49.6395 2.0056 50.9043 3.27042 50.9043 4.8112V20.196C50.9043 23.0015 51.6402 23.9444 56.0096 23.9444H60.034C61.5977 23.9444 62.8626 25.1862 62.8626 26.75C62.8626 28.3138 61.5977 29.5786 60.034 29.5786H56.0096Z" fill="#0B0B35"/>
<path d="M12.2702 0V15.0048C12.2702 18.1834 13.1116 19.2351 18.0197 19.2351H22.5773C24.3301 19.2351 25.7558 20.6608 25.7558 22.4137C25.7558 24.1666 24.3301 25.5923 22.5773 25.5923H18.0197C9.58248 25.5923 5.8196 22.3202 5.8196 15.0048V0H0V16.6408C0 24.8678 6.68436 31.5522 14.9113 31.5522H31.5521V0H12.2702Z" fill="#3433FE"/>
</svg>
