<svg width="78" height="77" viewBox="0 0 78 77" fill="none" xmlns="http://www.w3.org/2000/svg">
<path d="M64.1875 0H13.8125C6.175 0 0 6.175 0 13.8125V62.2375C0 69.875 6.175 76.05 13.8125 76.05H64.1875C71.825 76.05 78 69.875 78 62.2375V13.8125C78 6.175 71.825 0 64.1875 0ZM74.7175 60.97C74.7248 62.5201 74.4259 64.0564 73.838 65.4907C73.2502 66.925 72.3849 68.2292 71.2918 69.3283C70.1987 70.4274 68.8994 71.2999 67.4683 71.8956C66.0372 72.4914 64.5026 72.7987 62.9525 72.8H15.0475C8.5475 72.8 3.25 67.5025 3.25 61.0025V15.0475C3.25 8.5475 8.5475 3.25 15.0475 3.25H62.92C66.0489 3.25 69.0496 4.49295 71.2621 6.70541C73.4746 8.91787 74.7175 11.9186 74.7175 15.0475V60.97ZM30.8425 35.5875L39.9425 53.0725C40.105 53.3325 40.0075 53.5925 39.7475 53.5925H34.0925C33.735 53.5925 33.5725 53.495 33.41 53.17C31.33 48.88 29.2175 44.59 27.04 39.975H26.975C25.025 44.33 22.88 48.9125 20.8 53.2025C20.6375 53.4625 20.475 53.56 20.215 53.56H14.8525C14.5275 53.56 14.495 53.3 14.6575 53.105L23.5625 36.14L14.95 18.98C14.755 18.72 14.95 18.525 15.145 18.525H20.735C21.06 18.525 21.19 18.59 21.32 18.8825C23.3675 23.1725 25.4475 27.5925 27.3975 31.915H27.4625C29.3475 27.625 31.4275 23.1725 33.4425 18.915C33.605 18.655 33.7025 18.4925 34.0275 18.4925H39.26C39.52 18.4925 39.6175 18.6875 39.455 18.9475L30.8425 35.5875ZM41.535 40.885C41.535 33.3125 46.5725 27.3975 54.5675 27.3975C55.25 27.3975 55.6075 27.3975 56.2575 27.4625V18.85C56.2575 18.655 56.42 18.525 56.5825 18.525H61.7175C61.9775 18.525 62.0425 18.6225 62.0425 18.785V48.62C62.0425 49.4975 62.0425 50.6025 62.205 51.805C62.205 52 62.14 52.065 61.945 52.1625C59.215 53.4625 56.355 54.0475 53.625 54.0475C46.5725 54.08 41.535 49.725 41.535 40.885ZM56.2575 32.565C55.8025 32.37 55.1525 32.24 54.3725 32.24C50.2775 32.24 47.4175 35.3925 47.4175 40.625C47.4175 46.605 50.3425 49.01 54.015 49.01C54.795 49.01 55.64 48.9125 56.2575 48.6525V32.565Z" fill="#141618"/>
</svg>
