<svg width="78" height="78" viewBox="0 0 78 78" fill="none" xmlns="http://www.w3.org/2000/svg">
<rect width="78" height="78" rx="8" fill="#2496ED"/>
<path d="M20 35C20 30.6 23.6 27 28 27H50C54.4 27 58 30.6 58 35V43C58 47.4 54.4 51 50 51H28C23.6 51 20 47.4 20 43V35Z" fill="white"/>
<rect x="25" y="32" width="8" height="14" rx="2" fill="#2496ED"/>
<rect x="35" y="32" width="8" height="14" rx="2" fill="#2496ED"/>
<rect x="45" y="32" width="8" height="14" rx="2" fill="#2496ED"/>
<path d="M28 52C28 52 30 55 35 55C40 55 42 52 42 52M42 52C42 52 44 55 49 55C54 55 56 52 56 52" stroke="white" stroke-width="2" fill="none"/>
<text x="39" y="68" font-family="Arial, sans-serif" font-size="9" font-weight="bold" text-anchor="middle" fill="white">Docker</text>
</svg>