<svg width="17" height="17" viewBox="0 0 17 17" fill="none" xmlns="http://www.w3.org/2000/svg">
<path fill-rule="evenodd" clip-rule="evenodd" d="M8.50001 0C10.0832 0.0180657 11.5134 0.407156 12.7907 1.16727C14.0527 1.91221 15.1026 2.96848 15.8398 4.23505C16.5953 5.52004 16.982 6.95892 17 8.55171C16.9552 10.731 16.2678 12.5924 14.9379 14.1358C13.608 15.6791 11.9048 16.634 10.1416 17V10.8899H11.8085L12.1855 8.48874H9.66134V6.91606C9.64733 6.59003 9.75044 6.26975 9.95202 6.01312C10.1539 5.7558 10.5094 5.62055 11.0184 5.60738H12.5427V3.50404C12.5208 3.497 12.3133 3.46917 11.9201 3.42056C11.4742 3.36839 11.0258 3.34052 10.5769 3.33708C9.56078 3.34177 8.75718 3.62839 8.16608 4.19694C7.57498 4.76534 7.27302 5.58768 7.26022 6.66397V8.48874H5.33931V10.8899H7.26022V17C5.09526 16.634 3.39199 15.6791 2.0621 14.1358C0.732216 12.5924 0.0448738 10.731 0 8.55171C0.0179536 6.95885 0.404692 5.51996 1.16022 4.23505C1.89746 2.96848 2.94731 1.91221 4.20937 1.16727C5.48663 0.407303 6.91684 0.018212 8.50001 0Z" fill="#0B0B35"/>
</svg>
