<svg width="26" height="20" viewBox="0 0 26 20" fill="none" xmlns="http://www.w3.org/2000/svg">
<g clip-path="url(#clip0_2010_649)">
<path d="M25.5992 2.14244C25.0987 1.29172 24.1778 0.713867 23.1111 0.713867H13V2.14244H25.5992ZM0 14.9996H26V16.4282H0V14.9996ZM13 9.2853H26V10.7139H13V9.2853ZM13 6.42815H26V7.85672H13V6.42815ZM0 12.1424H26V13.571H0V12.1424ZM2.88889 19.2853H23.1111C24.1778 19.2853 25.0987 18.7074 25.5992 17.8567H0.400833C0.901333 18.7074 1.82217 19.2853 2.88889 19.2853ZM13 3.57101H26V4.99958H13V3.57101Z" fill="#B22334"/>
<path d="M0.0491111 16.9133C0.0611482 16.98 0.0753519 17.0459 0.0917222 17.1111C0.110981 17.1826 0.13313 17.2531 0.158167 17.3226C0.222444 17.5076 0.300444 17.6862 0.398667 17.8533L0.400833 17.8569H25.5992L25.6006 17.854C25.6985 17.6861 25.7788 17.5087 25.8404 17.3247C25.8873 17.1905 25.924 17.0529 25.9502 16.9133C25.9798 16.7562 26 16.5947 26 16.4283H0C0 16.5947 0.0202222 16.7554 0.0491111 16.9133ZM0 13.5711H26V14.9997H0V13.5711ZM0 10.714V12.1426H26V10.714H13H0ZM13 7.85686H26V9.28544H13V7.85686ZM13 4.99972H26V6.42829H13V4.99972ZM0.0924444 2.88829C0.1105 2.81544 0.135778 2.74615 0.158889 2.67615C0.133969 2.74599 0.111804 2.81675 0.0924444 2.88829ZM13 3.57115H26C26 3.40472 25.9798 3.24329 25.9502 3.08544C25.9249 2.94551 25.8879 2.80789 25.8397 2.67401C25.778 2.48923 25.6974 2.31116 25.5992 2.14258H13V3.57115Z" fill="#EEEEEE"/>
<path d="M13 0.713867H2.88889C2.12271 0.713867 1.38791 1.01489 0.846136 1.5507C0.304364 2.08652 0 2.81325 0 3.57101L0 10.7139H13V0.713867Z" fill="#3C3B6E"/>
<path d="M1.44531 2.66115L1.89165 2.98186L1.7212 3.49972L2.16681 3.17972L2.61315 3.49972L2.4427 2.98186L2.88903 2.66115H2.33726L2.16681 2.14258L1.99709 2.66115H1.44531ZM2.88976 4.08972L3.33609 4.41044L3.16565 4.92829L3.61126 4.60829L4.05759 4.92829L3.88715 4.41044L4.33348 4.08972H3.7817L3.61126 3.57115L3.44153 4.08972H2.88976ZM5.77865 4.08972L6.22498 4.41044L6.05454 4.92829L6.50015 4.60829L6.94648 4.92829L6.77604 4.41044L7.22237 4.08972H6.67059L6.50015 3.57115L6.33042 4.08972H5.77865ZM8.66754 4.08972L9.11387 4.41044L8.94342 4.92829L9.38904 4.60829L9.83537 4.92829L9.66492 4.41044L10.1113 4.08972H9.55948L9.38904 3.57115L9.21931 4.08972H8.66754ZM2.88976 6.94686L3.33609 7.26758L3.16565 7.78544L3.61126 7.46544L4.05759 7.78544L3.88715 7.26758L4.33348 6.94686H3.7817L3.61126 6.42829L3.44153 6.94686H2.88976ZM5.77865 6.94686L6.22498 7.26758L6.05454 7.78544L6.50015 7.46544L6.94648 7.78544L6.77604 7.26758L7.22237 6.94686H6.67059L6.50015 6.42829L6.33042 6.94686H5.77865ZM8.66754 6.94686L9.11387 7.26758L8.94342 7.78544L9.38904 7.46544L9.83537 7.78544L9.66492 7.26758L10.1113 6.94686H9.55948L9.38904 6.42829L9.21931 6.94686H8.66754ZM4.3342 2.66115L4.78053 2.98186L4.61009 3.49972L5.0557 3.17972L5.50204 3.49972L5.33159 2.98186L5.77792 2.66115H5.22615L5.0557 2.14258L4.88598 2.66115H4.3342ZM7.22309 2.66115L7.66942 2.98186L7.49898 3.49972L7.94459 3.17972L8.39092 3.49972L8.22048 2.98186L8.66681 2.66115H8.11504L7.94459 2.14258L7.77487 2.66115H7.22309ZM10.112 2.66115L10.5583 2.98186L10.3879 3.49972L10.8335 3.17972L11.2798 3.49972L11.1094 2.98186L11.5557 2.66115H11.0039L10.8335 2.14258L10.6638 2.66115H10.112ZM1.44531 5.51829L1.89165 5.83901L1.7212 6.35686L2.16681 6.03686L2.61315 6.35686L2.4427 5.83901L2.88903 5.51829H2.33726L2.16681 4.99972L1.99709 5.51829H1.44531ZM4.61009 6.35686L5.0557 6.03686L5.50204 6.35686L5.33159 5.83901L5.77792 5.51829H5.22615L5.0557 4.99972L4.88598 5.51829H4.3342L4.78053 5.83901L4.61009 6.35686ZM7.22309 5.51829L7.66942 5.83901L7.49898 6.35686L7.94459 6.03686L8.39092 6.35686L8.22048 5.83901L8.66681 5.51829H8.11504L7.94459 4.99972L7.77487 5.51829H7.22309ZM10.112 5.51829L10.5583 5.83901L10.3879 6.35686L10.8335 6.03686L11.2798 6.35686L11.1094 5.83901L11.5557 5.51829H11.0039L10.8335 4.99972L10.6638 5.51829H10.112ZM1.44531 8.37544L1.89165 8.69615L1.7212 9.21401L2.16681 8.89401L2.61315 9.21401L2.4427 8.69615L2.88903 8.37544H2.33726L2.16681 7.85686L1.99709 8.37544H1.44531ZM4.61009 9.21401L5.0557 8.89401L5.50204 9.21401L5.33159 8.69615L5.77792 8.37544H5.22615L5.0557 7.85686L4.88598 8.37544H4.3342L4.78053 8.69615L4.61009 9.21401ZM7.22309 8.37544L7.66942 8.69615L7.49898 9.21401L7.94459 8.89401L8.39092 9.21401L8.22048 8.69615L8.66681 8.37544H8.11504L7.94459 7.85686L7.77487 8.37544H7.22309ZM10.112 8.37544L10.5583 8.69615L10.3879 9.21401L10.8335 8.89401L11.2798 9.21401L11.1094 8.69615L11.5557 8.37544H11.0039L10.8335 7.85686L10.6638 8.37544H10.112Z" fill="white"/>
</g>
<defs>
<clipPath id="clip0_2010_649">
<rect width="26" height="20" fill="white"/>
</clipPath>
</defs>
</svg>
