<svg width="18" height="18" viewBox="0 0 18 18" fill="none" xmlns="http://www.w3.org/2000/svg">
<path d="M9.00032 9.45305C8.88024 9.45305 8.7629 9.42167 8.65919 9.36231L2.51884 5.81592C2.41513 5.75603 2.32901 5.66991 2.26913 5.56619C2.20926 5.46248 2.17773 5.34483 2.17773 5.22508C2.17773 5.10532 2.20926 4.98767 2.26913 4.88396C2.32901 4.78025 2.41513 4.69412 2.51884 4.63424L8.65919 1.09057C8.87069 0.96981 9.12995 0.96981 9.34145 1.09057L15.4818 4.63424C15.5855 4.69412 15.6716 4.78025 15.7315 4.88396C15.7914 4.98767 15.8229 5.10532 15.8229 5.22508C15.8229 5.34483 15.7914 5.46248 15.7315 5.56619C15.6716 5.66991 15.5855 5.75603 15.4818 5.81592L9.34145 9.36231C9.23767 9.42196 9.12002 9.45326 9.00032 9.45305Z" fill="#3433FE"/>
<path d="M15.4818 8.40747L14.1418 7.63379L9.34145 10.4065C9.12995 10.5279 8.87069 10.5279 8.65919 10.4065L3.8588 7.63379L2.51884 8.40747C2.41513 8.46736 2.32901 8.55348 2.26913 8.6572C2.20926 8.76091 2.17773 8.87856 2.17773 8.99831C2.17773 9.11807 2.20926 9.23572 2.26913 9.33943C2.32901 9.44314 2.41513 9.52927 2.51884 9.58915L8.65919 13.1355C8.87069 13.257 9.12995 13.257 9.34145 13.1355L15.4818 9.58915C15.5855 9.52927 15.6716 9.44314 15.7315 9.33943C15.7914 9.23572 15.8229 9.11807 15.8229 8.99831C15.8229 8.87856 15.7914 8.76091 15.7315 8.6572C15.6716 8.55348 15.5855 8.46736 15.4818 8.40747Z" fill="#21F0A8"/>
<path d="M15.4818 12.1809L14.1418 11.4072L9.34145 14.1799C9.12995 14.3014 8.87069 14.3014 8.65919 14.1799L3.8588 11.4072L2.51884 12.1809C2.41513 12.2408 2.32901 12.3269 2.26913 12.4306C2.20926 12.5343 2.17773 12.652 2.17773 12.7718C2.17773 12.8915 2.20926 13.0092 2.26913 13.1129C2.32901 13.2166 2.41513 13.3027 2.51884 13.3626L8.65919 16.909C8.87069 17.0304 9.12995 17.0304 9.34145 16.909L15.4818 13.3626C15.5855 13.3027 15.6716 13.2166 15.7315 13.1129C15.7914 13.0092 15.8229 12.8915 15.8229 12.7718C15.8229 12.652 15.7914 12.5343 15.7315 12.4306C15.6716 12.3269 15.5855 12.2408 15.4818 12.1809Z" fill="#3433FE"/>
</svg>
