<svg width="28" height="27" viewBox="0 0 28 27" fill="none" xmlns="http://www.w3.org/2000/svg">
<path d="M23.2986 24.0931C23.0512 24.0931 22.8037 24.0019 22.6084 23.8196C22.2177 23.4419 22.2177 22.8298 22.5954 22.4391C24.8223 20.1731 26.0465 17.1777 26.0465 14C26.0465 7.35816 20.6419 1.95349 14 1.95349C7.35814 1.95349 1.95349 7.35816 1.95349 14C1.95349 17.1647 3.16465 20.147 5.3786 22.4131C5.75628 22.8038 5.74326 23.4159 5.36558 23.7936C4.97488 24.1712 4.36279 24.1582 3.98512 23.7805C1.41953 21.1498 0 17.6726 0 14C0 6.27723 6.27721 0 14 0C21.7228 0 28 6.27723 28 14C28 17.6856 26.5805 21.1759 23.9888 23.8066C23.8065 24.0019 23.546 24.0931 23.2986 24.0931Z" fill="white"/>
<path d="M14 26.3722C16.7908 26.3722 19.0531 24.1099 19.0531 21.3192C19.0531 18.5284 16.7908 16.2661 14 16.2661C11.2093 16.2661 8.94702 18.5284 8.94702 21.3192C8.94702 24.1099 11.2093 26.3722 14 26.3722Z" fill="white"/>
<path d="M19.2094 8.79077C17.7768 8.79077 16.6047 9.96287 16.6047 11.3954V12.3722C16.6047 13.2708 17.334 14.0001 18.2326 14.0001H19.2094C20.6419 14.0001 21.814 12.828 21.814 11.3954C21.814 9.96287 20.6419 8.79077 19.2094 8.79077Z" fill="white"/>
</svg>
