<svg width="78" height="78" viewBox="0 0 78 78" fill="none" xmlns="http://www.w3.org/2000/svg">
<rect width="78" height="78" rx="8" fill="#00ADD8"/>
<path d="M20 39C20 29.6 27.6 22 37 22H41C50.4 22 58 29.6 58 39V41C58 50.4 50.4 58 41 58H37C27.6 58 20 50.4 20 41V39Z" fill="white"/>
<path d="M30 35H26V30H34V34C34 36.2 32.2 38 30 38V35ZM48 35H52V30H44V34C44 36.2 45.8 38 48 38V35ZM26 45C26 42.8 27.8 41 30 41V44H34V49H26V45ZM52 45C52 42.8 50.2 41 48 41V44H44V49H52V45Z" fill="#00ADD8"/>
<ellipse cx="31" cy="34" rx="2" ry="1.5" fill="#00ADD8"/>
<ellipse cx="47" cy="34" rx="2" ry="1.5" fill="#00ADD8"/>
</svg>