<svg width="25" height="28" viewBox="0 0 25 28" fill="none" xmlns="http://www.w3.org/2000/svg">
<path d="M18.5543 3.11711V1.01205C18.5543 0.458796 18.0955 0 17.5423 0C16.989 0 16.5302 0.458796 16.5302 1.01205V3.03615H7.75914V1.01205C7.75914 0.458796 7.30034 0 6.74709 0C6.19383 0 5.73504 0.458796 5.73504 1.01205V3.11711C2.09166 3.45446 0.323945 5.627 0.0540646 8.85206C0.0270766 9.24339 0.350933 9.56724 0.728764 9.56724H23.5606C23.9519 9.56724 24.2758 9.22989 24.2353 8.85206C23.9654 5.627 22.1977 3.45446 18.5543 3.11711Z" fill="white"/>
<path d="M22.9398 11.5913H1.3494C0.60723 11.5913 0 12.1985 0 12.9407V21.253C0 25.3012 2.0241 28 6.747 28H17.5422C22.2651 28 24.2892 25.3012 24.2892 21.253V12.9407C24.2892 12.1985 23.682 11.5913 22.9398 11.5913ZM8.37977 22.8858C8.3123 22.9398 8.24483 23.0072 8.17736 23.0477C8.0964 23.1017 8.01544 23.1422 7.93447 23.1692C7.85351 23.2096 7.77254 23.2366 7.69158 23.2501C7.59712 23.2636 7.51616 23.2771 7.4217 23.2771C7.24628 23.2771 7.07085 23.2366 6.90893 23.1692C6.7335 23.1017 6.59857 23.0072 6.46362 22.8858C6.22073 22.6294 6.0723 22.2786 6.0723 21.9277C6.0723 21.5769 6.22073 21.226 6.46362 20.9696C6.59857 20.8482 6.7335 20.7537 6.90893 20.6863C7.15182 20.5783 7.4217 20.5513 7.69158 20.6053C7.77254 20.6188 7.85351 20.6458 7.93447 20.6863C8.01544 20.7133 8.0964 20.7537 8.17736 20.8077C8.24483 20.8617 8.3123 20.9157 8.37977 20.9696C8.62266 21.226 8.7711 21.5769 8.7711 21.9277C8.7711 22.2786 8.62266 22.6294 8.37977 22.8858ZM8.37977 18.1629C8.12339 18.4058 7.77254 18.5542 7.4217 18.5542C7.07086 18.5542 6.72001 18.4058 6.46362 18.1629C6.22073 17.9065 6.0723 17.5557 6.0723 17.2048C6.0723 16.854 6.22073 16.5031 6.46362 16.2467C6.84146 15.8689 7.43519 15.7475 7.93447 15.9634C8.10989 16.0308 8.25833 16.1253 8.37977 16.2467C8.62266 16.5031 8.7711 16.854 8.7711 17.2048C8.7711 17.5557 8.62266 17.9065 8.37977 18.1629ZM13.1027 22.8858C12.8463 23.1287 12.4954 23.2771 12.1446 23.2771C11.7938 23.2771 11.4429 23.1287 11.1865 22.8858C10.9436 22.6294 10.7952 22.2786 10.7952 21.9277C10.7952 21.5769 10.9436 21.226 11.1865 20.9696C11.6858 20.4704 12.6034 20.4704 13.1027 20.9696C13.3456 21.226 13.494 21.5769 13.494 21.9277C13.494 22.2786 13.3456 22.6294 13.1027 22.8858ZM13.1027 18.1629C13.0352 18.2169 12.9677 18.2708 12.9003 18.3248C12.8193 18.3788 12.7383 18.4193 12.6574 18.4463C12.5764 18.4867 12.4954 18.5137 12.4145 18.5272C12.32 18.5407 12.2391 18.5542 12.1446 18.5542C11.7938 18.5542 11.4429 18.4058 11.1865 18.1629C10.9436 17.9065 10.7952 17.5557 10.7952 17.2048C10.7952 16.854 10.9436 16.5031 11.1865 16.2467C11.308 16.1253 11.4564 16.0308 11.6318 15.9634C12.1311 15.7475 12.7248 15.8689 13.1027 16.2467C13.3456 16.5031 13.494 16.854 13.494 17.2048C13.494 17.5557 13.3456 17.9065 13.1027 18.1629ZM17.8256 22.8858C17.5692 23.1287 17.2183 23.2771 16.8675 23.2771C16.5167 23.2771 16.1658 23.1287 15.9094 22.8858C15.6665 22.6294 15.5181 22.2786 15.5181 21.9277C15.5181 21.5769 15.6665 21.226 15.9094 20.9696C16.4087 20.4704 17.3263 20.4704 17.8256 20.9696C18.0685 21.226 18.2169 21.5769 18.2169 21.9277C18.2169 22.2786 18.0685 22.6294 17.8256 22.8858ZM17.8256 18.1629C17.7581 18.2169 17.6906 18.2708 17.6232 18.3248C17.5422 18.3788 17.4612 18.4193 17.3803 18.4463C17.2993 18.4867 17.2183 18.5137 17.1374 18.5272C17.0429 18.5407 16.9485 18.5542 16.8675 18.5542C16.5167 18.5542 16.1658 18.4058 15.9094 18.1629C15.6665 17.9065 15.5181 17.5557 15.5181 17.2048C15.5181 16.854 15.6665 16.5031 15.9094 16.2467C16.0444 16.1253 16.1793 16.0308 16.3547 15.9634C16.5976 15.8554 16.8675 15.8284 17.1374 15.8824C17.2183 15.8959 17.2993 15.9229 17.3803 15.9634C17.4612 15.9904 17.5422 16.0308 17.6232 16.0848C17.6906 16.1388 17.7581 16.1928 17.8256 16.2467C18.0685 16.5031 18.2169 16.854 18.2169 17.2048C18.2169 17.5557 18.0685 17.9065 17.8256 18.1629Z" fill="white"/>
</svg>
