<svg width="41" height="33" viewBox="0 0 41 33" fill="none" xmlns="http://www.w3.org/2000/svg">
<path d="M11.0085 6.15333L35.7815 6.07077C36.0637 6.06967 36.3424 6.13279 36.5969 6.25542C36.8514 6.37805 37.0751 6.55701 37.251 6.7789C37.427 7.00078 37.5509 7.25984 37.6132 7.53669C37.6756 7.81353 37.6749 8.10097 37.6112 8.3775L33.8625 24.646C33.7668 25.0592 33.5353 25.4279 33.2055 25.6923C32.8756 25.9567 32.4667 26.1014 32.0449 26.1029L13.654 26.166C13.2447 26.1675 12.8462 26.0338 12.5196 25.7856C12.193 25.5373 11.9564 25.1882 11.8461 24.7917L6.68289 6.32573C6.58767 5.97649 6.39417 5.66237 6.12567 5.42114C5.85717 5.17991 5.52511 5.02185 5.16943 4.96597L3.41941 4.72316C2.97688 4.65696 2.57258 4.43341 2.27986 4.09306C1.98713 3.75272 1.82535 3.31811 1.82387 2.86806C1.82114 2.59645 1.87682 2.32745 1.9871 2.07951C2.09737 1.83157 2.25964 1.61055 2.46276 1.43158C2.66589 1.25262 2.90508 1.11995 3.16395 1.04266C3.42281 0.965379 3.69522 0.945308 3.96252 0.983825L7.84876 1.56658C8.18245 1.61515 8.49684 1.75365 8.75862 1.96739C9.0204 2.18113 9.2198 2.46215 9.33568 2.78065L10.4147 5.74783C10.4603 5.86858 10.5417 5.97228 10.6479 6.04483C10.7542 6.11738 10.8801 6.15526 11.0085 6.15333Z" fill="#216DF0"/>
<path d="M16.7724 32.9453C18.2241 32.9453 19.401 31.7614 19.401 30.3011C19.401 28.8407 18.2241 27.6568 16.7724 27.6568C15.3206 27.6568 14.1437 28.8407 14.1437 30.3011C14.1437 31.7614 15.3206 32.9453 16.7724 32.9453Z" fill="#216DF0"/>
<path d="M28.975 32.901C30.4268 32.901 31.6037 31.7172 31.6037 30.2568C31.6037 28.7964 30.4268 27.6126 28.975 27.6126C27.5233 27.6126 26.3464 28.7964 26.3464 30.2568C26.3464 31.7172 27.5233 32.901 28.975 32.901Z" fill="#216DF0"/>
<path d="M5.61731 8.40245L0.706 7.60499C0.436204 7.56118 0.182258 7.74569 0.138797 8.0171L0.00636192 8.84414C-0.0370993 9.11555 0.146382 9.37109 0.416178 9.4149L5.32749 10.2124C5.59728 10.2562 5.85123 10.0717 5.89469 9.80025L6.02713 8.97321C6.07059 8.7018 5.88711 8.44626 5.61731 8.40245Z" fill="#216DF0"/>
<path d="M6.64389 12.1128L3.11223 11.54C2.84242 11.4962 2.58844 11.6807 2.54493 11.9521L2.41236 12.7792C2.36885 13.0506 2.55231 13.3061 2.82211 13.3498L6.35377 13.9227C6.62357 13.9664 6.87756 13.7819 6.92107 13.5105L7.05364 12.6835C7.09714 12.4121 6.91369 12.1566 6.64389 12.1128Z" fill="#216DF0"/>
<path d="M7.83651 15.7097L0.851831 14.5767C0.582027 14.533 0.328041 14.7175 0.284535 14.9889L0.151965 15.8159C0.10846 16.0873 0.291911 16.3428 0.561714 16.3866L7.5464 17.5195C7.8162 17.5633 8.07019 17.3788 8.11369 17.1074L8.24626 16.2803C8.28977 16.0089 8.10632 15.7534 7.83651 15.7097Z" fill="#216DF0"/>
<path d="M28.8444 13.032C28.8439 13.2111 28.7906 13.3861 28.6913 13.5347C28.592 13.6834 28.4511 13.7991 28.2864 13.8672C28.1217 13.9353 27.9406 13.9528 27.766 13.9174C27.5915 13.8819 27.4313 13.7952 27.3057 13.6682C27.1801 13.5412 27.0948 13.3796 27.0605 13.2039C27.0263 13.0281 27.0446 12.846 27.1132 12.6807C27.1817 12.5154 27.2975 12.3743 27.4458 12.2751C27.5942 12.176 27.7684 12.1234 27.9465 12.1238C28.0648 12.1238 28.1819 12.1474 28.2912 12.1931C28.4005 12.2388 28.4997 12.3057 28.5831 12.3901C28.6666 12.4745 28.7326 12.5747 28.7774 12.6848C28.8223 12.795 28.845 12.9129 28.8444 13.032Z" fill="white"/>
<path d="M18.1315 13.0053C18.1315 13.1853 18.0783 13.3613 17.9786 13.5108C17.879 13.6604 17.7374 13.7768 17.5719 13.8452C17.4064 13.9136 17.2244 13.931 17.049 13.8952C16.8736 13.8594 16.7128 13.7719 16.5869 13.6439C16.4611 13.516 16.3758 13.3532 16.3421 13.1765C16.3084 12.9997 16.3276 12.8168 16.3974 12.651C16.4673 12.4852 16.5845 12.3441 16.7342 12.2455C16.8839 12.1469 17.0594 12.0953 17.2383 12.0972C17.4761 12.0998 17.7033 12.1966 17.8705 12.3666C18.0377 12.5366 18.1315 12.7661 18.1315 13.0053Z" fill="white"/>
<path d="M25.7304 19.4747C24.8279 20.1054 23.7553 20.4434 22.6564 20.4434C21.5575 20.4434 20.4849 20.1054 19.5824 19.4747C16.9031 17.4763 16.9634 13.5063 16.9682 13.3218C16.9682 13.1883 17.1203 13.079 17.3013 13.079C17.4872 13.079 17.6345 13.1931 17.632 13.3218C17.632 13.3655 17.5427 17.1413 20.0241 18.9915C20.78 19.5472 21.6924 19.8458 22.6286 19.8438C23.5657 19.8391 24.4779 19.5403 25.238 18.9891C27.7797 17.1558 27.6735 13.3655 27.6711 13.3218C27.6711 13.1858 27.8159 13.079 28.0018 13.079C28.1828 13.079 28.3325 13.1883 28.3349 13.3218C28.3422 13.5063 28.4097 17.4763 25.7304 19.4747Z" fill="white"/>
<path d="M33.9203 14.2434C37.8303 14.2434 41 11.0549 41 7.12172C41 3.1885 37.8303 0 33.9203 0C30.0103 0 26.8405 3.1885 26.8405 7.12172C26.8405 11.0549 30.0103 14.2434 33.9203 14.2434Z" fill="#216DF0"/>
<path d="M33.9206 13.4287C37.3827 13.4287 40.1893 10.6054 40.1893 7.1228C40.1893 3.64016 37.3827 0.816927 33.9206 0.816927C30.4585 0.816927 27.6519 3.64016 27.6519 7.1228C27.6519 10.6054 30.4585 13.4287 33.9206 13.4287Z" fill="white"/>
<path d="M37.1524 10.7646H36.4065C36.3425 10.7646 36.2811 10.739 36.2358 10.6935C36.1905 10.6479 36.1651 10.5862 36.1651 10.5218C36.1063 9.07888 35.5101 7.71101 34.495 6.68987C33.4799 5.66874 32.1201 5.06904 30.6857 5.0099C30.6217 5.0099 30.5603 4.98432 30.515 4.93878C30.4698 4.89325 30.4443 4.83149 30.4443 4.76709V4.01437C30.4443 3.98122 30.451 3.9484 30.464 3.91795C30.477 3.8875 30.4961 3.86006 30.5201 3.83731C30.5441 3.81456 30.5724 3.79699 30.6034 3.78568C30.6344 3.77437 30.6673 3.76956 30.7002 3.77155C32.4587 3.83658 34.1276 4.56837 35.3718 5.82001C36.6161 7.07165 37.3436 8.75046 37.4082 10.5193C37.4086 10.5527 37.4022 10.5858 37.3893 10.6165C37.3764 10.6473 37.3574 10.675 37.3334 10.698C37.3094 10.721 37.2809 10.7388 37.2497 10.7503C37.2186 10.7617 37.1855 10.7666 37.1524 10.7646ZM34.9099 10.7646H34.1616C34.0976 10.7646 34.0362 10.739 33.9909 10.6935C33.9457 10.6479 33.9202 10.5862 33.9202 10.5218C33.8648 9.67437 33.5052 8.87607 32.9085 8.27535C32.3118 7.67462 31.5184 7.31236 30.6761 7.25593C30.6121 7.25593 30.5507 7.23035 30.5054 7.18481C30.4601 7.13927 30.4347 7.07751 30.4347 7.01312V6.26039C30.4346 6.2268 30.4414 6.19356 30.4547 6.16276C30.468 6.13195 30.4876 6.10427 30.5121 6.08145C30.5366 6.05863 30.5655 6.04117 30.5971 6.03017C30.6286 6.01918 30.6621 6.01489 30.6954 6.01758C31.8576 6.08214 32.9553 6.57562 33.7783 7.40355C34.6014 8.23148 35.0919 9.33569 35.1561 10.5048C35.1585 10.5385 35.1538 10.5723 35.1424 10.6041C35.1311 10.6359 35.1132 10.6649 35.0901 10.6894C35.0669 10.7138 35.0389 10.7331 35.0079 10.7461C34.9769 10.759 34.9435 10.7653 34.9099 10.7646ZM31.4316 10.7646C31.2344 10.7646 31.0417 10.7058 30.8777 10.5956C30.7138 10.4854 30.586 10.3288 30.5106 10.1455C30.4351 9.96229 30.4154 9.76065 30.4538 9.56613C30.4923 9.3716 30.5873 9.19291 30.7267 9.05267C30.8661 8.91242 31.0437 8.81691 31.2371 8.77821C31.4305 8.73952 31.6309 8.75938 31.8131 8.83528C31.9953 8.91118 32.151 9.03972 32.2605 9.20463C32.37 9.36954 32.4285 9.56343 32.4285 9.76177C32.4288 9.89355 32.4033 10.0241 32.3533 10.1459C32.3033 10.2677 32.2299 10.3784 32.1372 10.4716C32.0446 10.5648 31.9346 10.6386 31.8135 10.6889C31.6924 10.7392 31.5626 10.7649 31.4316 10.7646Z" fill="#216DF0"/>
</svg>
