<svg width="35" height="32" viewBox="0 0 35 32" fill="none" xmlns="http://www.w3.org/2000/svg">
<path d="M34.4893 0.801343C34.117 0.320537 33.4789 0 32.7875 0H2.15644C1.51829 0 0.986502 0.267108 0.56107 0.694491C0.082459 1.22872 -0.130262 1.92322 0.0824542 2.67114L1.35875 7.53263H33.532L34.8083 2.67114C34.9679 1.97665 34.8083 1.33557 34.4361 0.801343H34.4893Z" fill="#6E42D1"/>
<path d="M31.4583 12.2337L29.4375 19.7663H5.50693L3.5393 12.2337H31.4583Z" fill="#EC8034"/>
<path d="M10.0794 30.3973C10.1857 30.8781 10.4516 31.2521 10.8239 31.5192C11.1961 31.7863 11.6215 32 12.1533 32H22.8423C23.3209 32 23.7464 31.8397 24.1186 31.5726C24.4909 31.3055 24.8099 30.8781 24.9163 30.3973L26.5117 24.4674H8.53717L10.0794 30.3973Z" fill="#6E42D1"/>
</svg>
