<svg width="24" height="24" viewBox="0 0 24 24" fill="none" xmlns="http://www.w3.org/2000/svg">
<path d="M18.0137 2.95508C18.5441 2.95508 19.0528 3.16579 19.4279 3.54086C19.803 3.91594 20.0137 4.42465 20.0137 4.95508V18.9551C20.0137 19.4855 19.803 19.9942 19.4279 20.3693C19.0528 20.7444 18.5441 20.9551 18.0137 20.9551H4.01367C3.48324 20.9551 2.97453 20.7444 2.59946 20.3693C2.22439 19.9942 2.01367 19.4855 2.01367 18.9551V4.95508C2.01367 4.42465 2.22439 3.91594 2.59946 3.54086C2.97453 3.16579 3.48324 2.95508 4.01367 2.95508H18.0137ZM17.5137 18.4551V13.1551C17.5137 12.2905 17.1702 11.4613 16.5588 10.8499C15.9475 10.2385 15.1183 9.89508 14.2537 9.89508C13.4037 9.89508 12.4137 10.4151 11.9337 11.1951V10.0851H9.14367V18.4551H11.9337V13.5251C11.9337 12.7551 12.5537 12.1251 13.3237 12.1251C13.695 12.1251 14.0511 12.2726 14.3136 12.5351C14.5762 12.7977 14.7237 13.1538 14.7237 13.5251V18.4551H17.5137ZM5.89367 8.51508C6.33924 8.51508 6.76655 8.33808 7.08161 8.02302C7.39667 7.70796 7.57367 7.28064 7.57367 6.83508C7.57367 5.90508 6.82367 5.14508 5.89367 5.14508C5.44546 5.14508 5.0156 5.32313 4.69866 5.64007C4.38172 5.957 4.20367 6.38686 4.20367 6.83508C4.20367 7.76508 4.96367 8.51508 5.89367 8.51508ZM7.28367 18.4551V10.0851H4.51367V18.4551H7.28367Z" fill="#0F0E55"/>
</svg>
