<svg width="151" height="151" viewBox="0 0 151 151" fill="none" xmlns="http://www.w3.org/2000/svg">
<g filter="url(#filter0_d_1_39)">
<path d="M107 65C107 82.6731 92.6731 97 75 97C57.3269 97 43 82.6731 43 65C43 47.3269 57.3269 33 75 33C92.6731 33 107 47.3269 107 65Z" fill="#3433FE"/>
<path d="M75.5 30C55.904 30 40 45.904 40 65.5C40 85.096 55.904 101 75.5 101C95.096 101 111 85.096 111 65.5C111 45.904 95.096 30 75.5 30ZM84.943 71.6415L75.855 76.8955C69.9975 80.268 65.205 77.499 65.205 70.754V60.246C65.205 53.4655 69.9975 50.732 75.855 54.1045L84.943 59.3585C90.8005 62.731 90.8005 68.269 84.943 71.6415Z" fill="white"/>
</g>
<defs>
<filter id="filter0_d_1_39" x="0" y="0" width="151" height="151" filterUnits="userSpaceOnUse" color-interpolation-filters="sRGB">
<feFlood flood-opacity="0" result="BackgroundImageFix"/>
<feColorMatrix in="SourceAlpha" type="matrix" values="0 0 0 0 0 0 0 0 0 0 0 0 0 0 0 0 0 0 127 0" result="hardAlpha"/>
<feOffset dy="10"/>
<feGaussianBlur stdDeviation="20"/>
<feComposite in2="hardAlpha" operator="out"/>
<feColorMatrix type="matrix" values="0 0 0 0 0.0840815 0 0 0 0 0.0828038 0 0 0 0 0.342191 0 0 0 0.35 0"/>
<feBlend mode="normal" in2="BackgroundImageFix" result="effect1_dropShadow_1_39"/>
<feBlend mode="normal" in="SourceGraphic" in2="effect1_dropShadow_1_39" result="shape"/>
</filter>
</defs>
</svg>
