<svg width="28" height="28" viewBox="0 0 28 28" fill="none" xmlns="http://www.w3.org/2000/svg">
<path d="M14.9707 25.4345C18.6177 24.7042 23.3333 22.0803 23.3333 15.2962C23.3333 9.12333 18.8148 5.012 15.5657 3.12317C14.8435 2.70317 14 3.255 14 4.08917V6.22183C14 7.90417 13.293 10.9748 11.3283 12.2523C10.325 12.9045 9.24 11.928 9.11867 10.738L9.01833 9.76033C8.90167 8.624 7.74433 7.9345 6.83667 8.6275C5.2045 9.87 3.5 12.0517 3.5 15.295C3.5 23.5912 9.6705 25.6667 12.7552 25.6667C12.9356 25.6667 13.1238 25.6608 13.3198 25.6492C13.8402 25.5838 13.3198 25.7647 14.9707 25.4333" fill="#3433FE"/>
<path d="M9.33301 21.5179C9.33301 24.5746 11.7958 25.5196 13.3195 25.6503C13.8398 25.5849 13.3195 25.7658 14.9703 25.4344C16.1825 25.0063 17.4997 23.9073 17.4997 21.5179C17.4997 20.0048 16.5442 19.0703 15.7963 18.6328C15.5677 18.4986 15.3017 18.6678 15.2818 18.9314C15.2165 19.7691 14.4115 20.4364 13.8643 19.7994C13.3802 19.2371 13.176 18.4146 13.176 17.8884V17.2001C13.176 16.7871 12.7595 16.5118 12.4025 16.7241C11.0772 17.5093 9.33301 19.1263 9.33301 21.5179Z" fill="#21F0A8"/>
</svg>
