<svg width="78" height="78" viewBox="0 0 78 78" fill="none" xmlns="http://www.w3.org/2000/svg">
<rect width="78" height="78" rx="8" fill="#3776AB"/>
<path d="M25.2 38.4C25.2 35.8 25.9 33.6 27.3 31.8C28.7 30 30.6 28.7 33 27.9C35.4 27.1 38.1 26.7 41.1 26.7C44.1 26.7 46.8 27.1 49.2 27.9C51.6 28.7 53.5 30 54.9 31.8C56.3 33.6 57 35.8 57 38.4V52.2C57 54.8 56.3 57 54.9 58.8C53.5 60.6 51.6 61.9 49.2 62.7C46.8 63.5 44.1 63.9 41.1 63.9C38.1 63.9 35.4 63.5 33 62.7C30.6 61.9 28.7 60.6 27.3 58.8C25.9 57 25.2 54.8 25.2 52.2V38.4ZM31.5 52.2C31.5 53.4 32.1 54.3 33.3 54.9C34.5 55.5 36.1 55.8 38.1 55.8C40.1 55.8 41.7 55.5 42.9 54.9C44.1 54.3 44.7 53.4 44.7 52.2V38.4C44.7 37.2 44.1 36.3 42.9 35.7C41.7 35.1 40.1 34.8 38.1 34.8C36.1 34.8 34.5 35.1 33.3 35.7C32.1 36.3 31.5 37.2 31.5 38.4V52.2Z" fill="white"/>
<path d="M41 22C32.2 22 25 29.2 25 38V52C25 60.8 32.2 68 41 68C49.8 68 57 60.8 57 52V38C57 29.2 49.8 22 41 22ZM52 52C52 57.5 47.5 62 42 62H40C34.5 62 30 57.5 30 52V38C30 32.5 34.5 28 40 28H42C47.5 28 52 32.5 52 38V52Z" fill="#FFD43B"/>
</svg>