<svg width="176" height="53" viewBox="0 0 176 53" fill="none" xmlns="http://www.w3.org/2000/svg">
<path d="M68.5907 26.6978V4.86612C68.5907 3.32964 69.852 2.06836 71.4114 2.06836H71.4802C73.0396 2.06836 74.2779 3.32964 74.2779 4.86612V26.6978C74.2779 28.2343 73.0396 29.4956 71.4802 29.4956H71.4114C69.852 29.4956 68.5907 28.2343 68.5907 26.6978Z" fill="#0B0B35"/>
<path d="M105.132 29.4955C103.573 29.4955 102.311 28.2342 102.311 26.6977V16.1029C102.311 14.9792 102.105 13.9014 101.692 12.9153C101.257 11.9063 100.683 11.0119 99.9494 10.2552C99.2156 9.52133 98.3212 8.92508 97.3351 8.48936C96.3261 8.07658 95.2253 7.87019 94.0787 7.87019C92.9321 7.87019 91.8543 8.07658 90.8682 8.48936C89.8591 8.92508 88.9877 9.52133 88.2539 10.2552C87.52 11.0119 86.9238 11.9063 86.4881 12.9153C86.0294 13.9014 85.823 14.9792 85.823 16.1029V26.6977C85.823 28.2342 84.5618 29.4955 83.0023 29.4955H82.9794C81.4429 29.4955 80.1817 28.2342 80.1817 26.6977V16.1029C80.1817 14.1995 80.5486 12.3649 81.2824 10.6679C81.9933 8.97094 83.0023 7.4574 84.2636 6.21905C85.5249 4.9807 86.9926 3.99461 88.6666 3.26077C90.3407 2.52693 92.1524 2.16001 94.0787 2.16001C95.9821 2.16001 97.8167 2.52693 99.4907 3.26077C101.188 3.99461 102.678 4.9807 103.917 6.21905C105.178 7.4574 106.187 8.97094 106.921 10.6679C107.655 12.3649 108.022 14.1995 108.022 16.1029V26.6977C108.022 28.2342 106.76 29.4955 105.201 29.4955H105.132Z" fill="#0B0B35"/>
<path d="M138.876 29.4955C137.316 29.4955 136.078 28.2342 136.078 26.6977V16.1029C136.078 14.9792 135.849 13.9014 135.436 12.9153C135 11.9063 134.427 11.0119 133.693 10.2552C132.959 9.52133 132.065 8.92508 131.079 8.48936C130.07 8.07658 128.969 7.87019 127.822 7.87019C126.698 7.87019 125.621 8.07658 124.612 8.48936C123.603 8.92508 122.731 9.52133 121.997 10.2552C121.264 11.0119 120.667 11.9063 120.232 12.9153C119.796 13.9014 119.567 14.9792 119.567 16.1029V26.6977C119.567 28.2342 118.305 29.4955 116.746 29.4955H116.723C115.186 29.4955 113.925 28.2342 113.925 26.6977V16.1029C113.925 14.1995 114.292 12.3649 115.026 10.6679C115.737 8.97094 116.746 7.4574 118.007 6.21905C119.268 4.9807 120.759 3.99461 122.41 3.26077C124.084 2.52693 125.896 2.16001 127.822 2.16001C129.726 2.16001 131.56 2.52693 133.234 3.26077C134.931 3.99461 136.422 4.9807 137.683 6.21905C138.921 7.4574 139.93 8.97094 140.664 10.6679C141.398 12.3649 141.765 14.1995 141.765 16.1029V26.6977C141.765 28.2342 140.504 29.4955 138.944 29.4955H138.876Z" fill="#0B0B35"/>
<path fill-rule="evenodd" clip-rule="evenodd" d="M161.566 30C159.662 30 157.828 29.6331 156.154 28.8992C154.502 28.1883 153.012 27.1793 151.774 25.941C150.512 24.7026 149.503 23.212 148.769 21.5379C148.036 19.8639 147.669 18.0293 147.669 16.1029C147.669 14.1995 148.036 12.3649 148.769 10.6679C149.503 8.97094 150.512 7.4574 151.774 6.21905C153.012 4.9807 154.502 3.99461 156.154 3.26077C157.828 2.52693 159.662 2.16001 161.566 2.16001C163.492 2.16001 165.304 2.52693 167.001 3.26077C168.675 3.99461 170.165 4.9807 171.427 6.21905C172.688 7.4574 173.697 8.97094 174.431 10.6679C175.142 12.3649 175.509 14.1995 175.509 16.1029C175.509 18.0293 175.142 19.8409 174.408 21.5379C173.697 23.212 172.688 24.7026 171.427 25.941C170.165 27.1793 168.675 28.1883 167.001 28.8992C165.304 29.6331 163.492 30 161.566 30ZM161.566 7.87019C160.442 7.87019 159.364 8.07658 158.355 8.48936C157.369 8.92508 156.475 9.52133 155.718 10.2552C154.961 11.0119 154.388 11.9063 153.952 12.9153C153.539 13.9014 153.31 14.9792 153.31 16.1029C153.31 17.2496 153.539 18.3274 153.952 19.3135C154.365 20.3225 154.961 21.1939 155.718 21.9278C156.475 22.6616 157.369 23.2579 158.378 23.6936C159.364 24.1522 160.442 24.3586 161.566 24.3586C162.689 24.3586 163.767 24.1522 164.776 23.7165C165.785 23.2579 166.68 22.6616 167.413 21.9278C168.17 21.1939 168.766 20.3225 169.179 19.3135C169.615 18.3274 169.821 17.2496 169.821 16.1029C169.821 14.9792 169.615 13.9014 169.179 12.9153C168.766 11.9063 168.17 11.0119 167.413 10.2552C166.657 9.52133 165.785 8.92508 164.776 8.48936C163.767 8.07658 162.689 7.87019 161.566 7.87019Z" fill="#0B0B35"/>
<path d="M55.8532 29.496C48.3772 29.496 45.052 26.6065 45.052 20.1396V4.79776C45.052 3.26129 46.3133 2 47.8727 2H47.9644C49.5009 2 50.7622 3.26129 50.7622 4.79776V20.1396C50.7622 22.9373 51.496 23.8775 55.8532 23.8775H59.8663C61.4257 23.8775 62.687 25.1159 62.687 26.6753C62.687 28.2347 61.4257 29.496 59.8663 29.496H55.8532Z" fill="#0B0B35"/>
<path d="M12.236 0V14.9629C12.236 18.1326 13.075 19.1814 17.9694 19.1814H22.5142C24.2622 19.1814 25.6839 20.6031 25.6839 22.3511C25.6839 24.0991 24.2622 25.5208 22.5142 25.5208H17.9694C9.55572 25.5208 5.80335 22.2579 5.80335 14.9629V0H0V16.5944C0 24.7983 6.6657 31.464 14.8696 31.464H31.464V0H12.236Z" fill="#3433FE"/>
<path d="M1.484 50V39.78H2.856V50H1.484ZM2.576 45.45V44.218L6.958 44.204V45.436L2.576 45.45ZM2.576 41.012V39.78H7.196V41.012H2.576ZM12.4293 50.252C11.7759 50.252 11.2019 50.14 10.7073 49.916C10.2126 49.692 9.7926 49.398 9.44727 49.034C9.11127 48.6607 8.8546 48.2453 8.67727 47.788C8.50927 47.3307 8.42527 46.864 8.42527 46.388V46.136C8.42527 45.66 8.51393 45.1933 8.69127 44.736C8.8686 44.2693 9.12993 43.854 9.47527 43.49C9.8206 43.1167 10.2406 42.8227 10.7353 42.608C11.2299 42.384 11.7946 42.272 12.4293 42.272C13.0639 42.272 13.6286 42.384 14.1233 42.608C14.6179 42.8227 15.0379 43.1167 15.3833 43.49C15.7286 43.854 15.9899 44.2693 16.1673 44.736C16.3446 45.1933 16.4333 45.66 16.4333 46.136V46.388C16.4333 46.864 16.3446 47.3307 16.1673 47.788C15.9993 48.2453 15.7426 48.6607 15.3973 49.034C15.0613 49.398 14.6459 49.692 14.1513 49.916C13.6566 50.14 13.0826 50.252 12.4293 50.252ZM12.4293 49.048C12.9893 49.048 13.4653 48.9267 13.8573 48.684C14.2586 48.432 14.5619 48.096 14.7673 47.676C14.9819 47.256 15.0893 46.7847 15.0893 46.262C15.0893 45.73 14.9819 45.254 14.7673 44.834C14.5526 44.414 14.2446 44.0827 13.8433 43.84C13.4513 43.5973 12.9799 43.476 12.4293 43.476C11.8879 43.476 11.4166 43.5973 11.0153 43.84C10.6139 44.0827 10.3059 44.414 10.0913 44.834C9.8766 45.254 9.76927 45.73 9.76927 46.262C9.76927 46.7847 9.87193 47.256 10.0773 47.676C10.2919 48.096 10.5953 48.432 10.9873 48.684C11.3886 48.9267 11.8693 49.048 12.4293 49.048ZM18.4462 50V42.524H19.5102V45.604H19.4542C19.4542 44.512 19.6922 43.714 20.1682 43.21C20.6535 42.6967 21.3769 42.44 22.3382 42.44H22.5902V43.644H22.1142C21.3675 43.644 20.7935 43.8447 20.3922 44.246C19.9909 44.638 19.7902 45.2073 19.7902 45.954V50H18.4462ZM24.1884 50V42.524H25.2524V45.73H25.0844C25.0844 45.002 25.1777 44.386 25.3644 43.882C25.5604 43.3687 25.8497 42.9767 26.2324 42.706C26.6151 42.4353 27.1004 42.3 27.6884 42.3H27.7444C28.3324 42.3 28.8177 42.4353 29.2004 42.706C29.5924 42.9767 29.8817 43.3687 30.0684 43.882C30.2551 44.386 30.3484 45.002 30.3484 45.73H29.9564C29.9564 45.002 30.0544 44.386 30.2504 43.882C30.4464 43.3687 30.7357 42.9767 31.1184 42.706C31.5104 42.4353 32.0004 42.3 32.5884 42.3H32.6444C33.2324 42.3 33.7224 42.4353 34.1144 42.706C34.5064 42.9767 34.7957 43.3687 34.9824 43.882C35.1784 44.386 35.2764 45.002 35.2764 45.73V50H33.9324V45.436C33.9324 44.8293 33.7831 44.3627 33.4844 44.036C33.1857 43.7 32.7704 43.532 32.2384 43.532C31.6877 43.532 31.2444 43.7093 30.9084 44.064C30.5724 44.4093 30.4044 44.8947 30.4044 45.52V50H29.0604V45.436C29.0604 44.8293 28.9111 44.3627 28.6124 44.036C28.3137 43.7 27.8984 43.532 27.3664 43.532C26.8157 43.532 26.3724 43.7093 26.0364 44.064C25.7004 44.4093 25.5324 44.8947 25.5324 45.52V50H24.1884ZM40.9152 50.252C40.2619 50.252 39.6972 50.14 39.2212 49.916C38.7452 49.692 38.3579 49.398 38.0592 49.034C37.7606 48.6607 37.5366 48.2453 37.3872 47.788C37.2472 47.3307 37.1772 46.864 37.1772 46.388V46.136C37.1772 45.6507 37.2472 45.1793 37.3872 44.722C37.5366 44.2647 37.7606 43.854 38.0592 43.49C38.3579 43.1167 38.7359 42.8227 39.1932 42.608C39.6599 42.384 40.2059 42.272 40.8312 42.272C41.6432 42.272 42.3106 42.4493 42.8332 42.804C43.3652 43.1493 43.7572 43.5973 44.0092 44.148C44.2706 44.6987 44.4012 45.2867 44.4012 45.912V46.514H37.7652V45.506H43.4212L43.1132 46.052C43.1132 45.52 43.0292 45.0627 42.8612 44.68C42.6932 44.288 42.4412 43.9847 42.1052 43.77C41.7692 43.5553 41.3446 43.448 40.8312 43.448C40.2992 43.448 39.8559 43.5693 39.5012 43.812C39.1559 44.0547 38.8946 44.386 38.7172 44.806C38.5492 45.226 38.4652 45.7113 38.4652 46.262C38.4652 46.794 38.5492 47.2747 38.7172 47.704C38.8946 48.124 39.1652 48.46 39.5292 48.712C39.8932 48.9547 40.3552 49.076 40.9152 49.076C41.5032 49.076 41.9792 48.9453 42.3432 48.684C42.7166 48.4227 42.9406 48.1193 43.0152 47.774H44.2752C44.1726 48.2873 43.9672 48.7307 43.6592 49.104C43.3512 49.4773 42.9639 49.762 42.4972 49.958C42.0306 50.154 41.5032 50.252 40.9152 50.252ZM46.3095 50V42.524H47.3735V45.604H47.3175C47.3175 44.512 47.5555 43.714 48.0315 43.21C48.5168 42.6967 49.2402 42.44 50.2015 42.44H50.4535V43.644H49.9775C49.2308 43.644 48.6568 43.8447 48.2555 44.246C47.8542 44.638 47.6535 45.2073 47.6535 45.954V50H46.3095ZM52.1357 50V39.78H53.4797V50H52.1357ZM51.0997 40.844V39.78H53.4797V40.844H51.0997ZM55.5535 52.912V51.708H56.6315C56.9489 51.708 57.2149 51.666 57.4295 51.582C57.6535 51.5073 57.8355 51.3767 57.9755 51.19C58.1249 51.0033 58.2462 50.756 58.3395 50.448L60.6915 42.524H62.0075L59.5155 50.798C59.3662 51.2927 59.1562 51.694 58.8855 52.002C58.6149 52.3193 58.2835 52.548 57.8915 52.688C57.5089 52.8373 57.0609 52.912 56.5475 52.912H55.5535ZM57.8355 49.832V48.712H59.4595V49.832H57.8355ZM57.6955 49.832L55.0215 42.524H56.3935L58.9555 49.832H57.6955ZM71.5333 50.252C70.6 50.252 69.802 50.0887 69.1393 49.762C68.486 49.4353 67.9587 49.0107 67.5573 48.488C67.156 47.9653 66.862 47.4007 66.6753 46.794C66.4887 46.178 66.3953 45.5853 66.3953 45.016V44.708C66.3953 44.092 66.4887 43.476 66.6753 42.86C66.8713 42.244 67.17 41.684 67.5713 41.18C67.9727 40.676 68.4953 40.27 69.1393 39.962C69.7833 39.654 70.5533 39.5 71.4493 39.5C72.364 39.5 73.148 39.6587 73.8013 39.976C74.4547 40.2933 74.9727 40.7367 75.3553 41.306C75.738 41.8753 75.9713 42.5473 76.0553 43.322H74.6553C74.5807 42.7433 74.394 42.2673 74.0953 41.894C73.7967 41.5113 73.4187 41.2267 72.9613 41.04C72.5133 40.8533 72.0093 40.76 71.4493 40.76C70.8427 40.76 70.3107 40.8673 69.8533 41.082C69.396 41.2873 69.0133 41.5813 68.7053 41.964C68.4067 42.3373 68.178 42.7713 68.0193 43.266C67.87 43.7607 67.7953 44.2973 67.7953 44.876C67.7953 45.4267 67.87 45.9493 68.0193 46.444C68.178 46.9387 68.4113 47.3773 68.7193 47.76C69.0367 48.1427 69.4287 48.446 69.8953 48.67C70.362 48.8847 70.908 48.992 71.5333 48.992C72.4107 48.992 73.148 48.7727 73.7453 48.334C74.3427 47.8953 74.7067 47.2607 74.8373 46.43H76.2373C76.144 47.13 75.906 47.7693 75.5233 48.348C75.15 48.9267 74.6273 49.3887 73.9553 49.734C73.2927 50.0793 72.4853 50.252 71.5333 50.252ZM82.8022 50.252C81.8876 50.252 81.0989 50.0887 80.4362 49.762C79.7736 49.4353 79.2276 49.006 78.7982 48.474C78.3689 47.942 78.0469 47.3727 77.8322 46.766C77.6269 46.1593 77.5242 45.576 77.5242 45.016V44.708C77.5242 44.1013 77.6316 43.49 77.8462 42.874C78.0609 42.258 78.3876 41.698 78.8262 41.194C79.2649 40.6807 79.8109 40.27 80.4642 39.962C81.1269 39.654 81.9062 39.5 82.8022 39.5C83.6982 39.5 84.4729 39.654 85.1262 39.962C85.7889 40.27 86.3396 40.6807 86.7782 41.194C87.2169 41.698 87.5436 42.258 87.7582 42.874C87.9729 43.49 88.0802 44.1013 88.0802 44.708V45.016C88.0802 45.576 87.9729 46.1593 87.7582 46.766C87.5529 47.3727 87.2356 47.942 86.8062 48.474C86.3769 49.006 85.8309 49.4353 85.1682 49.762C84.5056 50.0887 83.7169 50.252 82.8022 50.252ZM82.8022 48.992C83.3996 48.992 83.9362 48.88 84.4122 48.656C84.8976 48.432 85.3082 48.1287 85.6442 47.746C85.9802 47.354 86.2369 46.9153 86.4142 46.43C86.5916 45.9353 86.6802 45.4173 86.6802 44.876C86.6802 44.3067 86.5916 43.7747 86.4142 43.28C86.2369 42.7853 85.9802 42.3513 85.6442 41.978C85.3082 41.5953 84.8976 41.2967 84.4122 41.082C83.9362 40.8673 83.3996 40.76 82.8022 40.76C82.2049 40.76 81.6636 40.8673 81.1782 41.082C80.7022 41.2967 80.2962 41.5953 79.9602 41.978C79.6242 42.3513 79.3676 42.7853 79.1902 43.28C79.0129 43.7747 78.9242 44.3067 78.9242 44.876C78.9242 45.4173 79.0129 45.9353 79.1902 46.43C79.3676 46.9153 79.6242 47.354 79.9602 47.746C80.2962 48.1287 80.7022 48.432 81.1782 48.656C81.6636 48.88 82.2049 48.992 82.8022 48.992ZM91.4295 50.056V48.796H93.9775C94.5935 48.796 95.1395 48.698 95.6155 48.502C96.1008 48.2967 96.5115 48.0167 96.8475 47.662C97.1928 47.3073 97.4542 46.892 97.6315 46.416C97.8088 45.94 97.8975 45.4267 97.8975 44.876C97.8975 44.2973 97.8088 43.7747 97.6315 43.308C97.4542 42.832 97.1928 42.4213 96.8475 42.076C96.5115 41.7213 96.1008 41.4507 95.6155 41.264C95.1395 41.0773 94.5935 40.984 93.9775 40.984H91.4295V39.724H93.8375C94.7615 39.724 95.5642 39.8687 96.2455 40.158C96.9268 40.438 97.4915 40.8207 97.9395 41.306C98.3968 41.782 98.7375 42.3187 98.9615 42.916C99.1855 43.504 99.2975 44.106 99.2975 44.722V45.03C99.2975 45.6273 99.1855 46.2247 98.9615 46.822C98.7375 47.4193 98.3968 47.9607 97.9395 48.446C97.4915 48.9313 96.9268 49.3233 96.2455 49.622C95.5642 49.9113 94.7615 50.056 93.8375 50.056H91.4295ZM90.3375 50.056V39.724H91.7095V50.056H90.3375ZM101.412 50V39.78H102.784V50H101.412ZM102.504 50V48.768H107.46V50H102.504ZM102.504 45.422V44.19H107.026V45.422H102.504ZM102.504 41.012V39.78H107.32V41.012H102.504ZM112.992 50V39.724H114.364V50H112.992ZM119.306 50L115.918 45.45H117.528L120.972 50H119.306ZM113.846 46.304V45.086H116.59C117.019 45.086 117.388 44.9973 117.696 44.82C118.004 44.6427 118.242 44.4 118.41 44.092C118.578 43.7747 118.662 43.4153 118.662 43.014C118.662 42.6127 118.578 42.258 118.41 41.95C118.242 41.6327 118.004 41.3853 117.696 41.208C117.388 41.0213 117.019 40.928 116.59 40.928H113.846V39.724H116.338C117.084 39.724 117.738 39.836 118.298 40.06C118.858 40.284 119.292 40.6293 119.6 41.096C119.908 41.5627 120.062 42.1647 120.062 42.902V43.126C120.062 43.8633 119.903 44.4653 119.586 44.932C119.278 45.3987 118.844 45.744 118.284 45.968C117.733 46.192 117.084 46.304 116.338 46.304H113.846ZM122.795 50V39.78H124.167V50H122.795ZM123.887 50V48.768H128.843V50H123.887ZM123.887 45.422V44.19H128.409V45.422H123.887ZM123.887 41.012V39.78H128.703V41.012H123.887ZM129.929 50L133.737 44.54V44.792L130.265 39.78H131.819L134.493 43.7H134.717L137.433 39.78H138.917L135.347 44.848L135.333 44.596L139.197 50H137.643L134.591 45.702H134.367L131.413 50H129.929Z" fill="#51515F"/>
</svg>
