<svg width="52" height="52" viewBox="0 0 52 52" fill="none" xmlns="http://www.w3.org/2000/svg">
<path d="M0 6C0 2.68629 2.68629 0 6 0H45.1041C48.4178 0 51.1041 2.68629 51.1041 6V46C51.1041 49.3137 48.4178 52 45.1041 52H6.00001C2.6863 52 0 49.3137 0 46V6Z" fill="#BEBED7" fill-opacity="0.15"/>
<path d="M24.352 36H20.752C18.992 36 17.552 37.44 17.552 39.2V39.6H15.952C15.296 39.6 14.752 40.144 14.752 40.8C14.752 41.456 15.296 42 15.952 42H35.1521C35.8081 42 36.3521 41.456 36.3521 40.8C36.3521 40.144 35.8081 39.6 35.1521 39.6H33.552V39.2C33.552 37.44 32.112 36 30.352 36H26.752V32.336C26.352 32.384 25.952 32.4 25.552 32.4C25.152 32.4 24.752 32.384 24.352 32.336V36Z" fill="url(#paint0_linear_6116_318)"/>
<path d="M35.92 25.424C36.976 25.024 37.9041 24.368 38.6401 23.632C40.1281 21.984 41.1041 20.016 41.1041 17.712C41.1041 15.408 39.2961 13.6 36.992 13.6H36.096C35.056 11.472 32.88 10 30.352 10H20.752C18.224 10 16.048 11.472 15.008 13.6H14.112C11.808 13.6 10 15.408 10 17.712C10 20.016 10.976 21.984 12.464 23.632C13.2 24.368 14.128 25.024 15.184 25.424C16.848 29.52 20.848 32.4 25.552 32.4C30.256 32.4 34.256 29.52 35.92 25.424ZM30.096 20.32L29.104 21.536C28.944 21.712 28.832 22.064 28.848 22.304L28.944 23.872C29.008 24.832 28.32 25.328 27.424 24.976L25.968 24.4C25.744 24.32 25.36 24.32 25.136 24.4L23.68 24.976C22.784 25.328 22.096 24.832 22.16 23.872L22.256 22.304C22.272 22.064 22.16 21.712 22 21.536L21.008 20.32C20.384 19.584 20.656 18.768 21.584 18.528L23.104 18.144C23.344 18.08 23.632 17.856 23.76 17.648L24.608 16.336C25.136 15.52 25.968 15.52 26.496 16.336L27.344 17.648C27.472 17.856 27.76 18.08 28 18.144L29.52 18.528C30.448 18.768 30.72 19.584 30.096 20.32Z" fill="url(#paint1_linear_6116_318)"/>
<defs>
<linearGradient id="paint0_linear_6116_318" x1="10" y1="26" x2="41.1041" y2="26" gradientUnits="userSpaceOnUse">
<stop offset="0.567308" stop-color="#3433FE"/>
<stop offset="1" stop-color="#0DF26B"/>
</linearGradient>
<linearGradient id="paint1_linear_6116_318" x1="10" y1="26" x2="41.1041" y2="26" gradientUnits="userSpaceOnUse">
<stop offset="0.567308" stop-color="#3433FE"/>
<stop offset="1" stop-color="#0DF26B"/>
</linearGradient>
</defs>
</svg>
