<svg width="53" height="52" viewBox="0 0 53 52" fill="none" xmlns="http://www.w3.org/2000/svg">
<path d="M0 6C0 2.68629 2.68629 0 6 0H46.1371C49.4508 0 52.1371 2.68629 52.1371 6V46C52.1371 49.3137 49.4508 52 46.1371 52H6C2.68629 52 0 49.3137 0 46V6Z" fill="#BEBED7" fill-opacity="0.15"/>
<path d="M34.1659 42H17.9818C17.3182 42 16.768 41.4497 16.768 40.7862C16.768 40.1226 17.3182 39.5724 17.9818 39.5724H34.1659C34.8295 39.5724 35.3797 40.1226 35.3797 40.7862C35.3797 41.4497 34.8295 42 34.1659 42Z" fill="url(#paint0_linear_6116_330)"/>
<path d="M39.5876 15.3286L33.1139 19.9573C32.2562 20.5723 31.0262 20.2 30.654 19.2128L27.5952 11.056C27.0773 9.648 25.0866 9.648 24.5687 11.056L21.4937 19.1966C21.1215 20.2 19.9077 20.5723 19.0499 19.9411L12.5763 15.3124C11.2816 14.4061 9.56604 15.6847 10.1001 17.1898L16.8327 36.0443C17.0593 36.6917 17.6743 37.1125 18.354 37.1125H33.7775C34.4572 37.1125 35.0722 36.6755 35.2988 36.0443L42.0314 17.1898C42.5817 15.6847 40.8661 14.4061 39.5876 15.3286ZM30.1199 30.2666H22.0278C21.3643 30.2666 20.814 29.7163 20.814 29.0528C20.814 28.3892 21.3643 27.839 22.0278 27.839H30.1199C30.7834 27.839 31.3337 28.3892 31.3337 29.0528C31.3337 29.7163 30.7834 30.2666 30.1199 30.2666Z" fill="url(#paint1_linear_6116_330)"/>
<defs>
<linearGradient id="paint0_linear_6116_330" x1="10" y1="26" x2="42.1371" y2="26" gradientUnits="userSpaceOnUse">
<stop offset="0.567308" stop-color="#3433FE"/>
<stop offset="1" stop-color="#0DF26B"/>
</linearGradient>
<linearGradient id="paint1_linear_6116_330" x1="10" y1="26" x2="42.1371" y2="26" gradientUnits="userSpaceOnUse">
<stop offset="0.567308" stop-color="#3433FE"/>
<stop offset="1" stop-color="#0DF26B"/>
</linearGradient>
</defs>
</svg>
